<?xml version="1.0" encoding="UTF-8" standalone="no"?>
<!DOCTYPE svg PUBLIC "-//W3C//DTD SVG 1.1//EN" "http://www.w3.org/Graphics/SVG/1.1/DTD/svg11.dtd">
<!-- Created with Vectornator (http://vectornator.io/) -->
<svg height="100%" stroke-miterlimit="10" style="fill-rule:nonzero;clip-rule:evenodd;stroke-linecap:round;stroke-linejoin:round;" version="1.1" viewBox="0 0 800 800" width="100%" xml:space="preserve" xmlns="http://www.w3.org/2000/svg" xmlns:xlink="http://www.w3.org/1999/xlink">
<defs/>
<clipPath id="ArtboardFrame">
<rect height="800" width="800" x="0" y="0"/>
</clipPath>
<g clip-path="url(#ArtboardFrame)" id="Ebene-1">
<path d="M-5.31188-8.00807L809.6-8.00807L809.6 811.901L-5.31188 811.901L-5.31188-8.00807Z" fill="#397367" fill-rule="nonzero" opacity="1" stroke="none"/>
<path d="M258.239 399.698C258.239 387.697 267.968 377.969 279.969 377.969C291.97 377.969 301.699 387.697 301.699 399.698C301.699 411.7 291.97 421.428 279.969 421.428C267.968 421.428 258.239 411.7 258.239 399.698Z" fill="#ffffff" fill-rule="nonzero" opacity="1" stroke="#000000" stroke-linecap="round" stroke-linejoin="round" stroke-width="5"/>
<path d="M543.25 103.582C543.25 89.5233 554.647 78.1262 568.706 78.1262C582.766 78.1262 594.163 89.5233 594.163 103.582C594.163 117.642 582.766 129.039 568.706 129.039C554.647 129.039 543.25 117.642 543.25 103.582Z" fill="#ffffff" fill-rule="nonzero" opacity="1" stroke="#000000" stroke-linecap="round" stroke-linejoin="round" stroke-width="6"/>
<path d="M376.644 685.374C376.644 671.315 388.041 659.918 402.1 659.918C416.159 659.918 427.556 671.315 427.556 685.374C427.556 699.433 416.159 710.83 402.1 710.83C388.041 710.83 376.644 699.433 376.644 685.374Z" fill="#ffffff" fill-rule="nonzero" opacity="1" stroke="#000000" stroke-linecap="round" stroke-linejoin="round" stroke-width="6"/>
<path d="M-7.31188-10.0081L807.6-10.0081L807.6 809.901L-7.31188 809.901L-7.31188-10.0081Z" fill="#397367" fill-opacity="0.65" fill-rule="nonzero" opacity="1" stroke="none"/>
<g opacity="1">
<g opacity="1">
<clipPath id="ClipPath">
<path d="M30.5302 85.4388L796.923 85.4388L796.923 85.4388L796.923 687.886L796.923 687.886L30.5302 687.886L30.5302 687.886L30.5302 85.4388L30.5302 85.4388Z"/>
</clipPath>
<g clip-path="url(#ClipPath)">
<path d="M345.75 506.219C345.75 541.352 332.937 570.699 307.31 594.259C282.097 617.819 250.89 629.599 213.69 629.599C196.744 629.599 177.524 625.259 156.03 616.579C143.63 611.619 133.504 609.139 125.65 609.139C118.21 609.139 103.124 614.719 80.3903 625.879L37.6103 522.959L53.1103 516.139C113.457 578.966 167.81 610.379 216.17 610.379C240.144 610.379 261.017 602.319 278.79 586.199C296.564 570.492 305.45 551.066 305.45 527.919C305.45 500.226 293.05 478.939 268.25 464.059C253.784 454.966 229.604 446.286 195.71 438.019C148.177 426.446 114.904 414.459 95.8902 402.059C65.3036 382.219 50.0102 353.079 50.0102 314.639C50.0102 280.746 63.6502 253.052 90.9302 231.559C114.077 213.786 138.877 204.899 165.33 204.899C174.837 204.899 188.684 206.759 206.87 210.479C225.057 214.199 238.49 216.059 247.17 216.059C259.157 216.059 271.35 213.579 283.75 208.619L324.05 305.959L308.55 312.159C265.977 252.639 219.477 222.879 169.05 222.879C145.077 222.879 125.237 230.112 109.53 244.579C94.2369 258.632 86.5902 275.579 86.5902 295.419C86.5902 320.219 98.1636 339.646 121.31 353.699C137.017 363.206 164.71 372.712 204.39 382.219C243.657 391.312 273.004 401.852 292.43 413.839C327.977 435.746 345.75 466.539 345.75 506.219Z" fill="#000000" fill-rule="nonzero" opacity="1" stroke="none"/>
</g>
</g>
<g opacity="1">
<clipPath id="ClipPath_2">
<path d="M30.5302 85.4388L796.923 85.4388L796.923 85.4388L796.923 687.886L796.923 687.886L30.5302 687.886L30.5302 687.886L30.5302 85.4388L30.5302 85.4388Z"/>
</clipPath>
<g clip-path="url(#ClipPath_2)">
<path d="M770.45 618.439L602.43 618.439L602.43 602.939C633.844 601.699 649.55 595.912 649.55 585.579C649.55 583.099 647.897 578.552 644.59 571.939L522.45 403.919L468.51 455.379L468.51 560.779C468.51 578.139 473.884 589.919 484.63 596.119C492.07 600.252 504.677 602.526 522.45 602.939L522.45 618.439L358.15 618.439L358.15 602.939C378.404 602.526 392.044 599.632 399.07 594.259C408.99 587.232 413.95 572.146 413.95 548.999L413.95 274.959C413.95 256.359 408.784 243.959 398.45 237.759C391.424 234.039 378.61 231.972 360.01 231.559L360.01 216.059L522.45 216.059L522.45 231.559C502.61 231.972 489.384 234.039 482.77 237.759C473.264 243.546 468.51 255.326 468.51 273.099L468.51 432.439L616.69 294.179C634.464 277.646 643.35 264.006 643.35 253.259C643.35 240.446 629.71 233.212 602.43 231.559L602.43 216.059L751.85 216.059L751.85 231.559C722.09 232.799 694.604 244.992 669.39 268.139L561.51 367.339L703.49 565.739C714.237 580.619 724.57 590.539 734.49 595.499C742.757 599.632 754.744 602.112 770.45 602.939L770.45 618.439Z" fill="#000000" fill-rule="nonzero" opacity="1" stroke="none"/>
</g>
</g>
</g>
<path d="M714.304 73.4122L746.256 222.18" fill="none" opacity="1" stroke="#000000" stroke-linecap="round" stroke-linejoin="round" stroke-width="6"/>
<path d="M585.941 220.545C585.941 204.228 599.169 191 615.486 191C631.803 191 645.03 204.228 645.03 220.545C645.03 236.862 631.803 250.089 615.486 250.089C599.169 250.089 585.941 236.862 585.941 220.545Z" fill="#ffffff" fill-rule="nonzero" opacity="1" stroke="#000000" stroke-linecap="round" stroke-linejoin="round" stroke-width="7"/>
<path d="M714.996 220.545C714.996 204.228 728.224 191 744.541 191C760.858 191 774.086 204.228 774.086 220.545C774.086 236.862 760.858 250.09 744.541 250.09C728.224 250.09 714.996 236.862 714.996 220.545Z" fill="#ffffff" fill-rule="nonzero" opacity="1" stroke="#000000" stroke-linecap="round" stroke-linejoin="round" stroke-width="7"/>
<path d="M683.623 72.559C683.623 56.242 696.85 43.0144 713.168 43.0144C729.485 43.0144 742.712 56.242 742.712 72.559C742.712 88.8761 729.485 102.104 713.168 102.104C696.85 102.104 683.623 88.8761 683.623 72.559Z" fill="#ffffff" fill-rule="nonzero" opacity="1" stroke="#000000" stroke-linecap="round" stroke-linejoin="round" stroke-width="7"/>
<path d="M599.247 755.892C599.247 692.968 650.257 641.958 713.181 641.958C776.105 641.958 827.115 692.968 827.115 755.892C827.115 818.816 776.105 869.826 713.181 869.826C650.257 869.826 599.247 818.816 599.247 755.892Z" fill="#ffffff" fill-rule="nonzero" opacity="1" stroke="#000000" stroke-linecap="round" stroke-linejoin="round" stroke-width="16"/>
<path d="M-52.5966-27.0887C-52.5966-126.698 28.1525-207.447 127.762-207.447C227.371-207.447 308.12-126.698 308.12-27.0887C308.12 72.5204 227.371 153.27 127.762 153.27C28.1525 153.27-52.5966 72.5204-52.5966-27.0887Z" fill="#ffffff" fill-rule="nonzero" opacity="1" stroke="#000000" stroke-linecap="round" stroke-linejoin="round" stroke-width="22"/>
</g>
</svg>
