<svg xmlns="http://www.w3.org/2000/svg" xmlns:xlink="http://www.w3.org/1999/xlink" xmlns:lucid="lucid" width="242" height="489"><g transform="translate(-394 -2766)" lucid:page-tab-id="0_0"><path d="M205.33 2460h561.22v290.98H205.33z" fill="none"/><use xlink:href="#a" transform="matrix(1,0,0,1,205.325618744135,2460) translate(0 17.77777777777778)"/><use xlink:href="#b" transform="matrix(1,0,0,1,205.325618744135,2460) translate(44.382716049382715 17.77777777777778)"/><use xlink:href="#c" transform="matrix(1,0,0,1,205.325618744135,2460) translate(145.37037037037038 17.77777777777778)"/><use xlink:href="#d" transform="matrix(1,0,0,1,205.325618744135,2460) translate(184.7530864197531 17.77777777777778)"/><use xlink:href="#e" transform="matrix(1,0,0,1,205.325618744135,2460) translate(262.4074074074074 17.77777777777778)"/><use xlink:href="#f" transform="matrix(1,0,0,1,205.325618744135,2460) translate(325.2469135802469 17.77777777777778)"/><use xlink:href="#g" transform="matrix(1,0,0,1,205.325618744135,2460) translate(426.41975308641975 17.77777777777778)"/><use xlink:href="#h" transform="matrix(1,0,0,1,205.325618744135,2460) translate(0 44.44444444444444)"/><use xlink:href="#i" transform="matrix(1,0,0,1,205.325618744135,2460) translate(112.16049382716051 44.44444444444444)"/><use xlink:href="#j" transform="matrix(1,0,0,1,205.325618744135,2460) translate(136.85185185185188 44.44444444444444)"/><use xlink:href="#k" transform="matrix(1,0,0,1,205.325618744135,2460) translate(173.8888888888889 44.44444444444444)"/><use xlink:href="#l" transform="matrix(1,0,0,1,205.325618744135,2460) translate(245.37037037037038 44.44444444444444)"/><use xlink:href="#m" transform="matrix(1,0,0,1,205.325618744135,2460) translate(303.33333333333337 44.44444444444444)"/><use xlink:href="#e" transform="matrix(1,0,0,1,205.325618744135,2460) translate(395.4320987654321 44.44444444444444)"/><use xlink:href="#n" transform="matrix(1,0,0,1,205.325618744135,2460) translate(458.2716049382716 44.44444444444444)"/><use xlink:href="#j" transform="matrix(1,0,0,1,205.325618744135,2460) translate(0 71.11111111111111)"/><use xlink:href="#o" transform="matrix(1,0,0,1,205.325618744135,2460) translate(37.03703703703704 71.11111111111111)"/><use xlink:href="#p" transform="matrix(1,0,0,1,205.325618744135,2460) translate(103.64197530864197 71.11111111111111)"/><use xlink:href="#i" transform="matrix(1,0,0,1,205.325618744135,2460) translate(182.65432098765433 71.11111111111111)"/><use xlink:href="#j" transform="matrix(1,0,0,1,205.325618744135,2460) translate(207.3456790123457 71.11111111111111)"/><use xlink:href="#k" transform="matrix(1,0,0,1,205.325618744135,2460) translate(244.38271604938274 71.11111111111111)"/><use xlink:href="#l" transform="matrix(1,0,0,1,205.325618744135,2460) translate(315.8641975308642 71.11111111111111)"/><use xlink:href="#m" transform="matrix(1,0,0,1,205.325618744135,2460) translate(373.82716049382714 71.11111111111111)"/><use xlink:href="#q" transform="matrix(1,0,0,1,205.325618744135,2460) translate(465.92592592592587 71.11111111111111)"/><use xlink:href="#r" transform="matrix(1,0,0,1,205.325618744135,2460) translate(0 97.77777777777777)"/><use xlink:href="#j" transform="matrix(1,0,0,1,205.325618744135,2460) translate(88.82716049382717 97.77777777777777)"/><use xlink:href="#s" transform="matrix(1,0,0,1,205.325618744135,2460) translate(125.8641975308642 97.77777777777777)"/><use xlink:href="#t" transform="matrix(1,0,0,1,205.325618744135,2460) translate(167.83950617283952 97.77777777777777)"/><use xlink:href="#u" transform="matrix(1,0,0,1,205.325618744135,2460) translate(360 97.77777777777777)"/><use xlink:href="#v" transform="matrix(1,0,0,1,205.325618744135,2460) translate(403.2098765432099 97.77777777777777)"/><use xlink:href="#q" transform="matrix(1,0,0,1,205.325618744135,2460) translate(504.320987654321 97.77777777777777)"/><use xlink:href="#r" transform="matrix(1,0,0,1,205.325618744135,2460) translate(0 124.44444444444446)"/><use xlink:href="#j" transform="matrix(1,0,0,1,205.325618744135,2460) translate(88.82716049382717 124.44444444444446)"/><use xlink:href="#s" transform="matrix(1,0,0,1,205.325618744135,2460) translate(125.8641975308642 124.44444444444446)"/><use xlink:href="#w" transform="matrix(1,0,0,1,205.325618744135,2460) translate(167.83950617283952 124.44444444444446)"/><use xlink:href="#x" transform="matrix(1,0,0,1,205.325618744135,2460) translate(204.87654320987656 124.44444444444446)"/><use xlink:href="#y" transform="matrix(1,0,0,1,205.325618744135,2460) translate(278.8888888888889 124.44444444444446)"/><use xlink:href="#g" transform="matrix(1,0,0,1,205.325618744135,2460) translate(419.44444444444446 124.44444444444446)"/><use xlink:href="#z" transform="matrix(1,0,0,1,205.325618744135,2460) translate(0 151.11111111111111)"/><use xlink:href="#A" transform="matrix(1,0,0,1,205.325618744135,2460) translate(149.25925925925927 151.11111111111111)"/><use xlink:href="#B" transform="matrix(1,0,0,1,205.325618744135,2460) translate(242.962962962963 151.11111111111111)"/><use xlink:href="#C" transform="matrix(1,0,0,1,205.325618744135,2460) translate(267.65432098765433 151.11111111111111)"/><use xlink:href="#D" transform="matrix(1,0,0,1,205.325618744135,2460) translate(335.8641975308642 151.11111111111111)"/><use xlink:href="#E" transform="matrix(1,0,0,1,205.325618744135,2460) translate(415.98765432098764 151.11111111111111)"/><use xlink:href="#F" transform="matrix(1,0,0,1,205.325618744135,2460) translate(446.85185185185185 151.11111111111111)"/><use xlink:href="#G" transform="matrix(1,0,0,1,205.325618744135,2460) translate(487.5308641975309 151.11111111111111)"/><use xlink:href="#e" transform="matrix(1,0,0,1,205.325618744135,2460) translate(0 177.77777777777777)"/><use xlink:href="#r" transform="matrix(1,0,0,1,205.325618744135,2460) translate(62.839506172839506 177.77777777777777)"/><use xlink:href="#j" transform="matrix(1,0,0,1,205.325618744135,2460) translate(151.66666666666669 177.77777777777777)"/><use xlink:href="#s" transform="matrix(1,0,0,1,205.325618744135,2460) translate(188.70370370370372 177.77777777777777)"/><use xlink:href="#H" transform="matrix(1,0,0,1,205.325618744135,2460) translate(230.67901234567904 177.77777777777777)"/><use xlink:href="#e" transform="matrix(1,0,0,1,205.325618744135,2460) translate(318.2098765432099 177.77777777777777)"/><use xlink:href="#r" transform="matrix(1,0,0,1,205.325618744135,2460) translate(381.04938271604937 177.77777777777777)"/><use xlink:href="#j" transform="matrix(1,0,0,1,205.325618744135,2460) translate(469.87654320987656 177.77777777777777)"/><use xlink:href="#I" transform="matrix(1,0,0,1,205.325618744135,2460) translate(506.9135802469136 177.77777777777777)"/><use xlink:href="#J" transform="matrix(1,0,0,1,205.325618744135,2460) translate(0 204.44444444444443)"/><path d="M554.46 2800c15.25 0 27.62 13.43 27.62 30s-12.37 30-27.62 30H471.6c-15.25 0-27.62-13.43-27.62-30s12.37-30 27.62-30z" stroke="#5e5e5e" fill="#fff"/><g><use xlink:href="#K" transform="matrix(1,0,0,1,448.97899190291605,2805) translate(37.51851851851851 20.041666666666668)"/><use xlink:href="#L" transform="matrix(1,0,0,1,448.97899190291605,2805) translate(26.370370370370367 36.04166666666667)"/></g><path d="M513.67 3023.1h-1v-9.34h1zm0-25.34h-1V2981h1z" stroke="#5e5e5e" stroke-width=".05" fill="#5e5e5e"/><path d="M513.67 2981h-1v-.5h1z" fill="#5e5e5e"/><path d="M513.7 2981.04h-1.06v-.57h1.05zm-1-.5v.45h.94v-.47z" stroke="#5e5e5e" stroke-width=".05" fill="#5e5e5e"/><path d="M513.17 3037.88l-4.64-14.27h9.27z" fill="#5e5e5e"/><path d="M513.17 3039.5l-5.32-16.4h10.64zm-3.95-15.4l3.95 12.16 3.95-12.15z" stroke="#5e5e5e" stroke-width=".05" fill="#5e5e5e"/><g><use xlink:href="#M" transform="matrix(1,0,0,1,434.371773328662,2997.756854491589) translate(0.0049999999999954525 10.666666666666668)"/></g><path d="M554.68 3040c15.3 0 27.68 13.43 27.68 30s-12.4 30-27.68 30h-83.02c-15.3 0-27.68-13.43-27.68-30s12.4-30 27.67-30z" stroke="#5e5e5e" fill="#fff"/><g><use xlink:href="#N" transform="matrix(1,0,0,1,448.97899190291605,3045) translate(3.111111111111107 26.604166666666668)"/></g><path d="M513.67 3143.12h-1v-11.3h1zm0-27.3h-1V3101h1z" stroke="#5e5e5e" stroke-width=".05" fill="#5e5e5e"/><path d="M513.67 3101h-1v-.5h1z" fill="#5e5e5e"/><path d="M513.7 3101.04h-1.06v-.57h1.05zm-1-.5v.45h.94v-.47z" stroke="#5e5e5e" stroke-width=".05" fill="#5e5e5e"/><path d="M513.17 3157.88l-4.64-14.26h9.27z" fill="#5e5e5e"/><path d="M513.17 3159.5l-5.32-16.38h10.64zm-3.95-15.38l3.95 12.14 3.95-12.14z" stroke="#5e5e5e" stroke-width=".05" fill="#5e5e5e"/><g><use xlink:href="#O" transform="matrix(1,0,0,1,458.42732888421745,3115.8248881474624) translate(0.005000000000002558 10.666666666666668)"/></g><path d="M554.96 3160c15.3 0 27.68 13.43 27.68 30s-12.4 30-27.68 30h-83.03c-15.28 0-27.67-13.43-27.67-30s12.4-30 27.68-30z" stroke="#5e5e5e" fill="#fff"/><g><use xlink:href="#P" transform="matrix(1,0,0,1,449.2590347668879,3165) translate(14.925925925925931 26.604166666666668)"/></g><path d="M513.53 2903.12h-1v-10.87h1zm0-26.87h-1V2861h1z" stroke="#5e5e5e" stroke-width=".05" fill="#5e5e5e"/><path d="M513.53 2861h-1v-.5h1z" fill="#5e5e5e"/><path d="M513.55 2861.04h-1.05v-.57h1.05zm-1-.5v.45h.95v-.47z" stroke="#5e5e5e" stroke-width=".05" fill="#5e5e5e"/><path d="M513.03 2917.88l-4.64-14.26h9.26z" fill="#5e5e5e"/><path d="M513.03 2919.5l-5.32-16.38h10.65zm-3.95-15.38l3.95 12.14 3.95-12.14z" stroke="#5e5e5e" stroke-width=".05" fill="#5e5e5e"/><g><use xlink:href="#Q" transform="matrix(1,0,0,1,428.6947148596389,2876.249946069039) translate(0.0049999999999954525 10.666666666666668)"/></g><path d="M554.68 2920c15.3 0 27.68 13.43 27.68 30s-12.4 30-27.68 30h-83.02c-15.3 0-27.68-13.43-27.68-30s12.4-30 27.67-30z" stroke="#5e5e5e" fill="#fff"/><g><use xlink:href="#R" transform="matrix(1,0,0,1,448.97899190291616,2925) translate(-0.2037037037037095 20.166666666666668)"/><use xlink:href="#S" transform="matrix(1,0,0,1,448.97899190291616,2925) translate(34.53703703703704 36.16666666666667)"/></g><defs><path fill="#333" d="M127-220V0H93v-220H8v-28h204v28h-85" id="T"/><path fill="#333" d="M106-169C34-169 62-67 57 0H25v-261h32l-1 103c12-21 28-36 61-36 89 0 53 116 60 194h-32v-121c2-32-8-49-39-48" id="U"/><path fill="#333" d="M100-194c63 0 86 42 84 106H49c0 40 14 67 53 68 26 1 43-12 49-29l28 8c-11 28-37 45-77 45C44 4 14-33 15-96c1-61 26-98 85-98zm52 81c6-60-76-77-97-28-3 7-6 17-6 28h103" id="V"/><g id="a"><use transform="matrix(0.06172839506172839,0,0,0.06172839506172839,0,0)" xlink:href="#T"/><use transform="matrix(0.06172839506172839,0,0,0.06172839506172839,13.518518518518517,0)" xlink:href="#U"/><use transform="matrix(0.06172839506172839,0,0,0.06172839506172839,25.864197530864196,0)" xlink:href="#V"/></g><path fill="#333" d="M115-194c55 1 70 41 70 98S169 2 115 4C84 4 66-9 55-30l1 105H24l-1-265h31l2 30c10-21 28-34 59-34zm-8 174c40 0 45-34 45-75s-6-73-45-74c-42 0-51 32-51 76 0 43 10 73 51 73" id="W"/><path fill="#333" d="M114-163C36-179 61-72 57 0H25l-1-190h30c1 12-1 29 2 39 6-27 23-49 58-41v29" id="X"/><path fill="#333" d="M24-231v-30h32v30H24zM24 0v-190h32V0H24" id="Y"/><path fill="#333" d="M100-194c62-1 85 37 85 99 1 63-27 99-86 99S16-35 15-95c0-66 28-99 85-99zM99-20c44 1 53-31 53-75 0-43-8-75-51-75s-53 32-53 75 10 74 51 75" id="Z"/><path fill="#333" d="M85-194c31 0 48 13 60 33l-1-100h32l1 261h-30c-2-10 0-23-3-31C134-8 116 4 85 4 32 4 16-35 15-94c0-66 23-100 70-100zm9 24c-40 0-46 34-46 75 0 40 6 74 45 74 42 0 51-32 51-76 0-42-9-74-50-73" id="aa"/><path fill="#333" d="M96-169c-40 0-48 33-48 73s9 75 48 75c24 0 41-14 43-38l32 2c-6 37-31 61-74 61-59 0-76-41-82-99-10-93 101-131 147-64 4 7 5 14 7 22l-32 3c-4-21-16-35-41-35" id="ab"/><path fill="#333" d="M141-36C126-15 110 5 73 4 37 3 15-17 15-53c-1-64 63-63 125-63 3-35-9-54-41-54-24 1-41 7-42 31l-33-3c5-37 33-52 76-52 45 0 72 20 72 64v82c-1 20 7 32 28 27v20c-31 9-61-2-59-35zM48-53c0 20 12 33 32 33 41-3 63-29 60-74-43 2-92-5-92 41" id="ac"/><path fill="#333" d="M24 0v-261h32V0H24" id="ad"/><g id="b"><use transform="matrix(0.06172839506172839,0,0,0.06172839506172839,0,0)" xlink:href="#W"/><use transform="matrix(0.06172839506172839,0,0,0.06172839506172839,12.345679012345679,0)" xlink:href="#V"/><use transform="matrix(0.06172839506172839,0,0,0.06172839506172839,24.691358024691358,0)" xlink:href="#X"/><use transform="matrix(0.06172839506172839,0,0,0.06172839506172839,32.03703703703704,0)" xlink:href="#Y"/><use transform="matrix(0.06172839506172839,0,0,0.06172839506172839,36.91358024691358,0)" xlink:href="#Z"/><use transform="matrix(0.06172839506172839,0,0,0.06172839506172839,49.25925925925926,0)" xlink:href="#aa"/><use transform="matrix(0.06172839506172839,0,0,0.06172839506172839,61.60493827160494,0)" xlink:href="#Y"/><use transform="matrix(0.06172839506172839,0,0,0.06172839506172839,66.48148148148148,0)" xlink:href="#ab"/><use transform="matrix(0.06172839506172839,0,0,0.06172839506172839,77.5925925925926,0)" xlink:href="#ac"/><use transform="matrix(0.06172839506172839,0,0,0.06172839506172839,89.93827160493828,0)" xlink:href="#ad"/></g><path fill="#333" d="M248-139C247-14 144 9 11 0l48-248c105-6 190 8 189 109zm-34 0c1-70-52-87-126-82L50-27c98 7 163-21 164-112" id="ae"/><path fill="#333" d="M50-231l6-30h32l-6 30H50zM6 0l37-190h31L37 0H6" id="af"/><path fill="#333" d="M111-194c62-3 86 47 72 106H45c-7 38 6 69 45 68 27-1 43-14 53-32l24 11C152-15 129 4 87 4 38 3 12-23 12-71c0-70 32-119 99-123zm44 81c14-66-71-72-95-28-4 8-8 17-11 28h106" id="ag"/><g id="c"><use transform="matrix(0.06172839506172839,0,0,0.06172839506172839,0,0)" xlink:href="#ae"/><use transform="matrix(0.06172839506172839,0,0,0.06172839506172839,15.987654320987653,0)" xlink:href="#af"/><use transform="matrix(0.06172839506172839,0,0,0.06172839506172839,20.864197530864196,0)" xlink:href="#ag"/></g><path fill="#333" d="M87-220l-18 92h140l-5 28H64L45 0H11l48-248h178l-5 28H87" id="ah"/><path fill="#333" d="M165-48c-4 18 1 34 23 27l-3 20c-29 8-62 0-52-35h-2C116-14 99 4 63 4 30 4 8-16 8-49c0-68 71-67 138-67 10-26 0-56-31-54-26 1-42 9-47 31l-32-5c8-67 160-71 144 15-5 28-9 54-15 81zM42-50c3 52 80 24 89-6 7-12 7-24 11-38-47 1-103-4-100 44" id="ai"/><path fill="#333" d="M44-68c0 29 11 47 38 47 30 0 42-19 51-41l28 9C148-21 126 4 82 4 31 4 10-29 12-85c3-77 74-140 146-93 12 8 15 23 18 40l-31 5c-1-22-13-36-36-36-52 0-65 49-65 101" id="aj"/><path fill="#333" d="M127 0L80-88 50-66 37 0H6l51-261h31L57-100l99-90h39l-93 82L161 0h-34" id="ak"/><path fill="#333" d="M6 0l50-261h32L37 0H6" id="al"/><path fill="#333" d="M68-38c1 34 0 65-14 84H32c9-13 17-26 17-46H33v-38h35" id="am"/><g id="d"><use transform="matrix(0.06172839506172839,0,0,0.06172839506172839,0,0)" xlink:href="#ah"/><use transform="matrix(0.06172839506172839,0,0,0.06172839506172839,13.518518518518517,0)" xlink:href="#ai"/><use transform="matrix(0.06172839506172839,0,0,0.06172839506172839,25.864197530864196,0)" xlink:href="#aj"/><use transform="matrix(0.06172839506172839,0,0,0.06172839506172839,36.9753086419753,0)" xlink:href="#ak"/><use transform="matrix(0.06172839506172839,0,0,0.06172839506172839,48.08641975308642,0)" xlink:href="#ag"/><use transform="matrix(0.06172839506172839,0,0,0.06172839506172839,60.432098765432094,0)" xlink:href="#al"/><use transform="matrix(0.06172839506172839,0,0,0.06172839506172839,65.30864197530863,0)" xlink:href="#am"/></g><path fill="#333" d="M206 0h-36l-40-164L89 0H53L-1-190h32L70-26l43-164h34l41 164 42-164h31" id="an"/><g id="e"><use transform="matrix(0.06172839506172839,0,0,0.06172839506172839,0,0)" xlink:href="#an"/><use transform="matrix(0.06172839506172839,0,0,0.06172839506172839,15.987654320987653,0)" xlink:href="#U"/><use transform="matrix(0.06172839506172839,0,0,0.06172839506172839,28.333333333333332,0)" xlink:href="#Y"/><use transform="matrix(0.06172839506172839,0,0,0.06172839506172839,33.20987654320987,0)" xlink:href="#ab"/><use transform="matrix(0.06172839506172839,0,0,0.06172839506172839,44.32098765432099,0)" xlink:href="#U"/></g><path fill="#333" d="M117-194c89-4 53 116 60 194h-32v-121c0-31-8-49-39-48C34-167 62-67 57 0H25l-1-190h30c1 10-1 24 2 32 11-22 29-35 61-36" id="ao"/><path fill="#333" d="M59-47c-2 24 18 29 38 22v24C64 9 27 4 27-40v-127H5v-23h24l9-43h21v43h35v23H59v120" id="ap"/><path fill="#333" d="M135-143c-3-34-86-38-87 0 15 53 115 12 119 90S17 21 10-45l28-5c4 36 97 45 98 0-10-56-113-15-118-90-4-57 82-63 122-42 12 7 21 19 24 35" id="aq"/><g id="f"><use transform="matrix(0.06172839506172839,0,0,0.06172839506172839,0,0)" xlink:href="#ab"/><use transform="matrix(0.06172839506172839,0,0,0.06172839506172839,11.11111111111111,0)" xlink:href="#Z"/><use transform="matrix(0.06172839506172839,0,0,0.06172839506172839,23.45679012345679,0)" xlink:href="#ao"/><use transform="matrix(0.06172839506172839,0,0,0.06172839506172839,35.80246913580247,0)" xlink:href="#ap"/><use transform="matrix(0.06172839506172839,0,0,0.06172839506172839,41.97530864197531,0)" xlink:href="#ac"/><use transform="matrix(0.06172839506172839,0,0,0.06172839506172839,54.32098765432099,0)" xlink:href="#Y"/><use transform="matrix(0.06172839506172839,0,0,0.06172839506172839,59.19753086419753,0)" xlink:href="#ao"/><use transform="matrix(0.06172839506172839,0,0,0.06172839506172839,71.54320987654322,0)" xlink:href="#V"/><use transform="matrix(0.06172839506172839,0,0,0.06172839506172839,83.8888888888889,0)" xlink:href="#aq"/></g><g id="g"><use transform="matrix(0.06172839506172839,0,0,0.06172839506172839,0,0)" xlink:href="#ap"/><use transform="matrix(0.06172839506172839,0,0,0.06172839506172839,6.172839506172839,0)" xlink:href="#U"/><use transform="matrix(0.06172839506172839,0,0,0.06172839506172839,18.51851851851852,0)" xlink:href="#V"/></g><path fill="#333" d="M84 4C-5 8 30-112 23-190h32v120c0 31 7 50 39 49 72-2 45-101 50-169h31l1 190h-30c-1-10 1-25-2-33-11 22-28 36-60 37" id="ar"/><path fill="#333" d="M115-194c53 0 69 39 70 98 0 66-23 100-70 100C84 3 66-7 56-30L54 0H23l1-261h32v101c10-23 28-34 59-34zm-8 174c40 0 45-34 45-75 0-40-5-75-45-74-42 0-51 32-51 76 0 43 10 73 51 73" id="as"/><g id="h"><use transform="matrix(0.06172839506172839,0,0,0.06172839506172839,0,0)" xlink:href="#W"/><use transform="matrix(0.06172839506172839,0,0,0.06172839506172839,12.345679012345679,0)" xlink:href="#ar"/><use transform="matrix(0.06172839506172839,0,0,0.06172839506172839,24.691358024691358,0)" xlink:href="#as"/><use transform="matrix(0.06172839506172839,0,0,0.06172839506172839,37.03703703703704,0)" xlink:href="#ad"/><use transform="matrix(0.06172839506172839,0,0,0.06172839506172839,41.91358024691358,0)" xlink:href="#Y"/><use transform="matrix(0.06172839506172839,0,0,0.06172839506172839,46.79012345679013,0)" xlink:href="#ab"/><use transform="matrix(0.06172839506172839,0,0,0.06172839506172839,57.90123456790124,0)" xlink:href="#ac"/><use transform="matrix(0.06172839506172839,0,0,0.06172839506172839,70.24691358024693,0)" xlink:href="#ap"/><use transform="matrix(0.06172839506172839,0,0,0.06172839506172839,76.41975308641976,0)" xlink:href="#Y"/><use transform="matrix(0.06172839506172839,0,0,0.06172839506172839,81.2962962962963,0)" xlink:href="#Z"/><use transform="matrix(0.06172839506172839,0,0,0.06172839506172839,93.64197530864199,0)" xlink:href="#ao"/></g><path fill="#333" d="M101-234c-31-9-42 10-38 44h38v23H63V0H32v-167H5v-23h27c-7-52 17-82 69-68v24" id="at"/><g id="i"><use transform="matrix(0.06172839506172839,0,0,0.06172839506172839,0,0)" xlink:href="#Z"/><use transform="matrix(0.06172839506172839,0,0,0.06172839506172839,12.345679012345679,0)" xlink:href="#at"/></g><g id="j"><use transform="matrix(0.06172839506172839,0,0,0.06172839506172839,0,0)" xlink:href="#ap"/><use transform="matrix(0.06172839506172839,0,0,0.06172839506172839,6.172839506172839,0)" xlink:href="#U"/><use transform="matrix(0.06172839506172839,0,0,0.06172839506172839,18.51851851851852,0)" xlink:href="#V"/></g><g id="k"><use transform="matrix(0.06172839506172839,0,0,0.06172839506172839,0,0)" xlink:href="#ah"/><use transform="matrix(0.06172839506172839,0,0,0.06172839506172839,13.518518518518517,0)" xlink:href="#ai"/><use transform="matrix(0.06172839506172839,0,0,0.06172839506172839,25.864197530864196,0)" xlink:href="#aj"/><use transform="matrix(0.06172839506172839,0,0,0.06172839506172839,36.9753086419753,0)" xlink:href="#ak"/><use transform="matrix(0.06172839506172839,0,0,0.06172839506172839,48.08641975308642,0)" xlink:href="#ag"/><use transform="matrix(0.06172839506172839,0,0,0.06172839506172839,60.432098765432094,0)" xlink:href="#al"/></g><g id="l"><use transform="matrix(0.06172839506172839,0,0,0.06172839506172839,0,0)" xlink:href="#Y"/><use transform="matrix(0.06172839506172839,0,0,0.06172839506172839,4.876543209876543,0)" xlink:href="#aq"/><use transform="matrix(0.06172839506172839,0,0,0.06172839506172839,15.987654320987653,0)" xlink:href="#aq"/><use transform="matrix(0.06172839506172839,0,0,0.06172839506172839,27.098765432098766,0)" xlink:href="#ar"/><use transform="matrix(0.06172839506172839,0,0,0.06172839506172839,39.44444444444444,0)" xlink:href="#V"/></g><path fill="#333" d="M99-251c64 0 84 50 84 122C183-37 130 33 47-8c-14-7-20-23-25-40l30-5c6 39 69 39 84 7 9-19 16-44 16-74-10 22-31 35-62 35-49 0-73-33-73-83 0-54 28-83 82-83zm-1 141c31-1 51-18 51-49 0-36-14-67-51-67-34 0-49 23-49 58 0 34 15 58 49 58" id="au"/><path fill="#333" d="M101-251c68 0 85 55 85 127S166 4 100 4C33 4 14-52 14-124c0-73 17-127 87-127zm-1 229c47 0 54-49 54-102s-4-102-53-102c-51 0-55 48-55 102 0 53 5 102 54 102" id="av"/><path fill="#333" d="M16-82v-28h88v28H16" id="aw"/><path fill="#333" d="M27 0v-27h64v-190l-56 39v-29l58-41h29v221h61V0H27" id="ax"/><g id="m"><use transform="matrix(0.06172839506172839,0,0,0.06172839506172839,0,0)" xlink:href="#au"/><use transform="matrix(0.06172839506172839,0,0,0.06172839506172839,12.345679012345679,0)" xlink:href="#av"/><use transform="matrix(0.06172839506172839,0,0,0.06172839506172839,24.691358024691358,0)" xlink:href="#au"/><use transform="matrix(0.06172839506172839,0,0,0.06172839506172839,37.03703703703704,0)" xlink:href="#aw"/><use transform="matrix(0.06172839506172839,0,0,0.06172839506172839,44.382716049382715,0)" xlink:href="#au"/><use transform="matrix(0.06172839506172839,0,0,0.06172839506172839,56.72839506172839,0)" xlink:href="#ax"/><use transform="matrix(0.06172839506172839,0,0,0.06172839506172839,67.4074074074074,0)" xlink:href="#ax"/><use transform="matrix(0.06172839506172839,0,0,0.06172839506172839,79.75308641975309,0)" xlink:href="#am"/></g><g id="n"><use transform="matrix(0.06172839506172839,0,0,0.06172839506172839,0,0)" xlink:href="#ab"/><use transform="matrix(0.06172839506172839,0,0,0.06172839506172839,11.11111111111111,0)" xlink:href="#Z"/><use transform="matrix(0.06172839506172839,0,0,0.06172839506172839,23.45679012345679,0)" xlink:href="#ao"/><use transform="matrix(0.06172839506172839,0,0,0.06172839506172839,35.80246913580247,0)" xlink:href="#ap"/><use transform="matrix(0.06172839506172839,0,0,0.06172839506172839,41.97530864197531,0)" xlink:href="#ac"/><use transform="matrix(0.06172839506172839,0,0,0.06172839506172839,54.32098765432099,0)" xlink:href="#Y"/><use transform="matrix(0.06172839506172839,0,0,0.06172839506172839,59.19753086419753,0)" xlink:href="#ao"/><use transform="matrix(0.06172839506172839,0,0,0.06172839506172839,71.54320987654322,0)" xlink:href="#aq"/></g><g id="o"><use transform="matrix(0.06172839506172839,0,0,0.06172839506172839,0,0)" xlink:href="#V"/><use transform="matrix(0.06172839506172839,0,0,0.06172839506172839,12.345679012345679,0)" xlink:href="#aa"/><use transform="matrix(0.06172839506172839,0,0,0.06172839506172839,24.691358024691358,0)" xlink:href="#Y"/><use transform="matrix(0.06172839506172839,0,0,0.06172839506172839,29.5679012345679,0)" xlink:href="#ap"/><use transform="matrix(0.06172839506172839,0,0,0.06172839506172839,35.74074074074074,0)" xlink:href="#V"/><use transform="matrix(0.06172839506172839,0,0,0.06172839506172839,48.08641975308642,0)" xlink:href="#aa"/></g><g id="p"><use transform="matrix(0.06172839506172839,0,0,0.06172839506172839,0,0)" xlink:href="#ab"/><use transform="matrix(0.06172839506172839,0,0,0.06172839506172839,11.11111111111111,0)" xlink:href="#Z"/><use transform="matrix(0.06172839506172839,0,0,0.06172839506172839,23.45679012345679,0)" xlink:href="#ao"/><use transform="matrix(0.06172839506172839,0,0,0.06172839506172839,35.80246913580247,0)" xlink:href="#ap"/><use transform="matrix(0.06172839506172839,0,0,0.06172839506172839,41.97530864197531,0)" xlink:href="#V"/><use transform="matrix(0.06172839506172839,0,0,0.06172839506172839,54.32098765432099,0)" xlink:href="#ao"/><use transform="matrix(0.06172839506172839,0,0,0.06172839506172839,66.66666666666667,0)" xlink:href="#ap"/></g><g id="q"><use transform="matrix(0.06172839506172839,0,0,0.06172839506172839,0,0)" xlink:href="#an"/><use transform="matrix(0.06172839506172839,0,0,0.06172839506172839,15.987654320987653,0)" xlink:href="#U"/><use transform="matrix(0.06172839506172839,0,0,0.06172839506172839,28.333333333333332,0)" xlink:href="#Y"/><use transform="matrix(0.06172839506172839,0,0,0.06172839506172839,33.20987654320987,0)" xlink:href="#ab"/><use transform="matrix(0.06172839506172839,0,0,0.06172839506172839,44.32098765432099,0)" xlink:href="#U"/></g><g id="r"><use transform="matrix(0.06172839506172839,0,0,0.06172839506172839,0,0)" xlink:href="#ab"/><use transform="matrix(0.06172839506172839,0,0,0.06172839506172839,11.11111111111111,0)" xlink:href="#Z"/><use transform="matrix(0.06172839506172839,0,0,0.06172839506172839,23.45679012345679,0)" xlink:href="#ao"/><use transform="matrix(0.06172839506172839,0,0,0.06172839506172839,35.80246913580247,0)" xlink:href="#ap"/><use transform="matrix(0.06172839506172839,0,0,0.06172839506172839,41.97530864197531,0)" xlink:href="#ac"/><use transform="matrix(0.06172839506172839,0,0,0.06172839506172839,54.32098765432099,0)" xlink:href="#Y"/><use transform="matrix(0.06172839506172839,0,0,0.06172839506172839,59.19753086419753,0)" xlink:href="#ao"/><use transform="matrix(0.06172839506172839,0,0,0.06172839506172839,71.54320987654322,0)" xlink:href="#aq"/></g><path fill="#333" d="M141 0L90-78 38 0H4l68-98-65-92h35l48 74 47-74h35l-64 92 68 98h-35" id="ay"/><g id="s"><use transform="matrix(0.06172839506172839,0,0,0.06172839506172839,0,0)" xlink:href="#ap"/><use transform="matrix(0.06172839506172839,0,0,0.06172839506172839,6.172839506172839,0)" xlink:href="#V"/><use transform="matrix(0.06172839506172839,0,0,0.06172839506172839,18.51851851851852,0)" xlink:href="#ay"/><use transform="matrix(0.06172839506172839,0,0,0.06172839506172839,29.62962962962963,0)" xlink:href="#ap"/></g><path fill="#333" d="M238-179c0 84-86 86-175 82L45 0H11l48-248c82 0 179-12 179 69zm-34 1c0-53-64-42-116-43l-19 98c63 0 135 9 135-55" id="az"/><path fill="#333" d="M66-151c12-25 30-51 66-40l-6 26C45-176 58-65 38 0H6l36-190h30" id="aA"/><path fill="#333" d="M30-147c31-64 166-65 159 27C183-49 158 1 86 4 9 8 1-88 30-147zM88-20c53 0 68-48 68-100 0-31-11-51-44-50-52 1-68 46-68 97 0 32 13 53 44 53" id="aB"/><path fill="#333" d="M103-194c29 0 47 14 56 36 2-11 5-23 8-32h30L160-5C157 61 82 97 21 62 9 55 4 45 1 30l28-7c7 42 83 31 92-3 4-16 9-38 13-55-13 20-29 36-62 36-40 0-60-25-60-64 0-71 23-131 91-131zm4 24c-53 0-58 54-61 104-2 27 10 44 36 44 49 0 65-50 67-102 1-29-15-46-42-46" id="aC"/><path fill="#333" d="M248-111c6-24 9-61-24-58-72 9-57 108-77 169h-31l26-142c3-37-50-30-64-10C52-115 50-51 37 0H6l36-190h30c-1 10-6 24-4 32 13-43 101-52 105 5 13-22 29-41 61-41 90 0 28 129 23 194h-31" id="aD"/><path fill="#333" d="M18-82l6-28h88l-6 28H18" id="aE"/><path fill="#333" d="M173 0L80-213 41 0H11l48-248h37l94 214 40-214h30L212 0h-39" id="aF"/><path fill="#333" d="M51-54c-9 22 5 41 31 30L79-1C43 14 10-4 19-52l22-115H19l5-23h22l19-43h21l-9 43h35l-4 23H73" id="aG"/><path fill="#333" d="M-8 0l5-24 140-142H31l5-24h145l-5 24L36-24h119l-5 24H-8" id="aH"/><path fill="#333" d="M67-158c22-48 132-52 116 29L158 0h-32l25-140c3-38-53-32-70-12C52-117 51-52 38 0H6l36-190h30" id="aI"/><g id="t"><use transform="matrix(0.06172839506172839,0,0,0.06172839506172839,0,0)" xlink:href="#az"/><use transform="matrix(0.06172839506172839,0,0,0.06172839506172839,14.814814814814813,0)" xlink:href="#aA"/><use transform="matrix(0.06172839506172839,0,0,0.06172839506172839,22.160493827160494,0)" xlink:href="#aB"/><use transform="matrix(0.06172839506172839,0,0,0.06172839506172839,34.50617283950617,0)" xlink:href="#aC"/><use transform="matrix(0.06172839506172839,0,0,0.06172839506172839,46.85185185185185,0)" xlink:href="#aA"/><use transform="matrix(0.06172839506172839,0,0,0.06172839506172839,54.197530864197525,0)" xlink:href="#ai"/><use transform="matrix(0.06172839506172839,0,0,0.06172839506172839,66.5432098765432,0)" xlink:href="#aD"/><use transform="matrix(0.06172839506172839,0,0,0.06172839506172839,84.99999999999999,0)" xlink:href="#aD"/><use transform="matrix(0.06172839506172839,0,0,0.06172839506172839,103.45679012345677,0)" xlink:href="#aE"/><use transform="matrix(0.06172839506172839,0,0,0.06172839506172839,110.80246913580245,0)" xlink:href="#aF"/><use transform="matrix(0.06172839506172839,0,0,0.06172839506172839,126.79012345679011,0)" xlink:href="#aB"/><use transform="matrix(0.06172839506172839,0,0,0.06172839506172839,139.1358024691358,0)" xlink:href="#aG"/><use transform="matrix(0.06172839506172839,0,0,0.06172839506172839,145.30864197530863,0)" xlink:href="#af"/><use transform="matrix(0.06172839506172839,0,0,0.06172839506172839,150.18518518518516,0)" xlink:href="#aH"/><use transform="matrix(0.06172839506172839,0,0,0.06172839506172839,161.29629629629628,0)" xlink:href="#ag"/><use transform="matrix(0.06172839506172839,0,0,0.06172839506172839,173.64197530864195,0)" xlink:href="#aI"/></g><path fill="#333" d="M67 3c-93-2-31-127-26-193h32L48-50c-3 39 53 32 70 12 30-34 30-101 43-152h32L157 0h-30c1-10 6-24 4-33-14 20-29 37-64 36" id="aJ"/><path fill="#333" d="M133-28C103 26-5 8 13-77c13-62 24-115 90-117 29-1 46 15 56 35l19-102h32L160 0h-30zM45-64c-2 27 10 43 35 43 54-1 69-50 69-103 0-29-15-46-42-46-53-1-58 58-62 106" id="aK"/><g id="u"><use transform="matrix(0.06172839506172839,0,0,0.06172839506172839,0,0)" xlink:href="#aJ"/><use transform="matrix(0.06172839506172839,0,0,0.06172839506172839,12.345679012345679,0)" xlink:href="#aI"/><use transform="matrix(0.06172839506172839,0,0,0.06172839506172839,24.691358024691358,0)" xlink:href="#aK"/></g><path fill="#333" d="M52-101C46-14 166-7 216-51l9-45h-74l6-28h105l-18 87C217-12 181 4 130 4 60 4 18-31 18-101c0-106 78-167 188-146 30 6 48 27 59 54l-34 9c-10-26-31-41-67-40-75 1-107 50-112 123" id="aL"/><path fill="#333" d="M55-144c13 50 104 24 104 88C159 21 15 23 1-39l26-10c6 40 102 42 102-4-13-50-104-23-104-87 0-71 143-71 148-8l-29 4c-5-35-85-37-89 0" id="aM"/><g id="v"><use transform="matrix(0.06172839506172839,0,0,0.06172839506172839,0,0)" xlink:href="#aE"/><use transform="matrix(0.06172839506172839,0,0,0.06172839506172839,7.345679012345679,0)" xlink:href="#aL"/><use transform="matrix(0.06172839506172839,0,0,0.06172839506172839,24.629629629629626,0)" xlink:href="#al"/><use transform="matrix(0.06172839506172839,0,0,0.06172839506172839,29.50617283950617,0)" xlink:href="#aB"/><use transform="matrix(0.06172839506172839,0,0,0.06172839506172839,41.85185185185185,0)" xlink:href="#aM"/><use transform="matrix(0.06172839506172839,0,0,0.06172839506172839,52.96296296296296,0)" xlink:href="#aM"/><use transform="matrix(0.06172839506172839,0,0,0.06172839506172839,64.07407407407408,0)" xlink:href="#ag"/><use transform="matrix(0.06172839506172839,0,0,0.06172839506172839,76.41975308641976,0)" xlink:href="#aI"/><use transform="matrix(0.06172839506172839,0,0,0.06172839506172839,88.76543209876544,0)" xlink:href="#am"/></g><path fill="#333" d="M123-251c66 0 92 69 53 113C138-94 73-75 39-27h128l-5 27H-2c17-92 123-93 159-163 14-28-1-64-36-62-29 2-46 17-54 41l-30-6c13-36 37-61 86-61" id="aN"/><path fill="#333" d="M206-222l-58 71C115-108 89-62 76 0H43c20-96 77-159 130-221H37l5-27h169" id="aO"/><path fill="#333" d="M14 0l8-38h34L48 0H14" id="aP"/><g id="w"><use transform="matrix(0.06172839506172839,0,0,0.06172839506172839,0,0)" xlink:href="#aN"/><use transform="matrix(0.06172839506172839,0,0,0.06172839506172839,12.345679012345679,0)" xlink:href="#aO"/><use transform="matrix(0.06172839506172839,0,0,0.06172839506172839,24.691358024691358,0)" xlink:href="#aP"/></g><path fill="#333" d="M29-66c0 49 71 55 82 11 13-52 22-111 33-165H93l5-28h85L149-74C151 11 7 37-1-60" id="aQ"/><g id="x"><use transform="matrix(0.06172839506172839,0,0,0.06172839506172839,0,0)" xlink:href="#aQ"/><use transform="matrix(0.06172839506172839,0,0,0.06172839506172839,11.11111111111111,0)" xlink:href="#ai"/><use transform="matrix(0.06172839506172839,0,0,0.06172839506172839,23.45679012345679,0)" xlink:href="#aI"/><use transform="matrix(0.06172839506172839,0,0,0.06172839506172839,35.80246913580247,0)" xlink:href="#aJ"/><use transform="matrix(0.06172839506172839,0,0,0.06172839506172839,48.148148148148145,0)" xlink:href="#ai"/><use transform="matrix(0.06172839506172839,0,0,0.06172839506172839,60.49382716049382,0)" xlink:href="#aA"/></g><path fill="#333" d="M87 75C49 33 22-17 22-94c0-76 28-126 65-167h31c-38 41-64 92-64 168S80 34 118 75H87" id="aR"/><path fill="#333" d="M210-169c-67 3-38 105-44 169h-31v-121c0-29-5-50-35-48C34-165 62-65 56 0H25l-1-190h30c1 10-1 24 2 32 10-44 99-50 107 0 11-21 27-35 58-36 85-2 47 119 55 194h-31v-121c0-29-5-49-35-48" id="aS"/><path fill="#333" d="M177-190C167-65 218 103 67 71c-23-6-38-20-44-43l32-5c15 47 100 32 89-28v-30C133-14 115 1 83 1 29 1 15-40 15-95c0-56 16-97 71-98 29-1 48 16 59 35 1-10 0-23 2-32h30zM94-22c36 0 50-32 50-73 0-42-14-75-50-75-39 0-46 34-46 75s6 73 46 73" id="aT"/><g id="y"><use transform="matrix(0.06172839506172839,0,0,0.06172839506172839,0,0)" xlink:href="#aR"/><use transform="matrix(0.06172839506172839,0,0,0.06172839506172839,7.345679012345679,0)" xlink:href="#aa"/><use transform="matrix(0.06172839506172839,0,0,0.06172839506172839,19.691358024691358,0)" xlink:href="#Z"/><use transform="matrix(0.06172839506172839,0,0,0.06172839506172839,32.03703703703704,0)" xlink:href="#ab"/><use transform="matrix(0.06172839506172839,0,0,0.06172839506172839,43.14814814814815,0)" xlink:href="#ar"/><use transform="matrix(0.06172839506172839,0,0,0.06172839506172839,55.49382716049383,0)" xlink:href="#aS"/><use transform="matrix(0.06172839506172839,0,0,0.06172839506172839,73.95061728395062,0)" xlink:href="#V"/><use transform="matrix(0.06172839506172839,0,0,0.06172839506172839,86.2962962962963,0)" xlink:href="#ao"/><use transform="matrix(0.06172839506172839,0,0,0.06172839506172839,98.64197530864199,0)" xlink:href="#ap"/><use transform="matrix(0.06172839506172839,0,0,0.06172839506172839,104.81481481481482,0)" xlink:href="#Y"/><use transform="matrix(0.06172839506172839,0,0,0.06172839506172839,109.69135802469137,0)" xlink:href="#ao"/><use transform="matrix(0.06172839506172839,0,0,0.06172839506172839,122.03703703703705,0)" xlink:href="#aT"/></g><path fill="#333" d="M179-190L93 31C79 59 56 82 12 73V49c39 6 53-20 64-50L1-190h34L92-34l54-156h33" id="aU"/><g id="z"><use transform="matrix(0.06172839506172839,0,0,0.06172839506172839,0,0)" xlink:href="#ac"/><use transform="matrix(0.06172839506172839,0,0,0.06172839506172839,12.345679012345679,0)" xlink:href="#ab"/><use transform="matrix(0.06172839506172839,0,0,0.06172839506172839,23.45679012345679,0)" xlink:href="#ab"/><use transform="matrix(0.06172839506172839,0,0,0.06172839506172839,34.5679012345679,0)" xlink:href="#Z"/><use transform="matrix(0.06172839506172839,0,0,0.06172839506172839,46.913580246913575,0)" xlink:href="#aS"/><use transform="matrix(0.06172839506172839,0,0,0.06172839506172839,65.37037037037037,0)" xlink:href="#W"/><use transform="matrix(0.06172839506172839,0,0,0.06172839506172839,77.71604938271605,0)" xlink:href="#ac"/><use transform="matrix(0.06172839506172839,0,0,0.06172839506172839,90.06172839506173,0)" xlink:href="#ao"/><use transform="matrix(0.06172839506172839,0,0,0.06172839506172839,102.40740740740742,0)" xlink:href="#aU"/><use transform="matrix(0.06172839506172839,0,0,0.06172839506172839,113.51851851851853,0)" xlink:href="#Y"/><use transform="matrix(0.06172839506172839,0,0,0.06172839506172839,118.39506172839508,0)" xlink:href="#ao"/><use transform="matrix(0.06172839506172839,0,0,0.06172839506172839,130.74074074074076,0)" xlink:href="#aT"/></g><g id="A"><use transform="matrix(0.06172839506172839,0,0,0.06172839506172839,0,0)" xlink:href="#as"/><use transform="matrix(0.06172839506172839,0,0,0.06172839506172839,12.345679012345679,0)" xlink:href="#X"/><use transform="matrix(0.06172839506172839,0,0,0.06172839506172839,19.691358024691358,0)" xlink:href="#Z"/><use transform="matrix(0.06172839506172839,0,0,0.06172839506172839,32.03703703703704,0)" xlink:href="#ab"/><use transform="matrix(0.06172839506172839,0,0,0.06172839506172839,43.14814814814815,0)" xlink:href="#U"/><use transform="matrix(0.06172839506172839,0,0,0.06172839506172839,55.49382716049383,0)" xlink:href="#ar"/><use transform="matrix(0.06172839506172839,0,0,0.06172839506172839,67.8395061728395,0)" xlink:href="#X"/><use transform="matrix(0.06172839506172839,0,0,0.06172839506172839,75.18518518518519,0)" xlink:href="#V"/></g><g id="B"><use transform="matrix(0.06172839506172839,0,0,0.06172839506172839,0,0)" xlink:href="#ap"/><use transform="matrix(0.06172839506172839,0,0,0.06172839506172839,6.172839506172839,0)" xlink:href="#Z"/></g><path fill="#333" d="M194 0L95-120 63-95V0H30v-248h33v124l119-124h40L117-140 236 0h-42" id="aV"/><path fill="#333" d="M58-248c1 32-1 62-14 81H22c9-13 17-27 17-46H23v-35h35" id="aW"/><g id="C"><use transform="matrix(0.06172839506172839,0,0,0.06172839506172839,0,0)" xlink:href="#aV"/><use transform="matrix(0.06172839506172839,0,0,0.06172839506172839,14.814814814814813,0)" xlink:href="#X"/><use transform="matrix(0.06172839506172839,0,0,0.06172839506172839,22.160493827160494,0)" xlink:href="#ac"/><use transform="matrix(0.06172839506172839,0,0,0.06172839506172839,34.50617283950617,0)" xlink:href="#ar"/><use transform="matrix(0.06172839506172839,0,0,0.06172839506172839,46.85185185185185,0)" xlink:href="#aq"/><use transform="matrix(0.06172839506172839,0,0,0.06172839506172839,57.96296296296296,0)" xlink:href="#aW"/></g><g id="D"><use transform="matrix(0.06172839506172839,0,0,0.06172839506172839,0,0)" xlink:href="#X"/><use transform="matrix(0.06172839506172839,0,0,0.06172839506172839,7.345679012345679,0)" xlink:href="#V"/><use transform="matrix(0.06172839506172839,0,0,0.06172839506172839,19.691358024691358,0)" xlink:href="#ac"/><use transform="matrix(0.06172839506172839,0,0,0.06172839506172839,32.03703703703704,0)" xlink:href="#aa"/><use transform="matrix(0.06172839506172839,0,0,0.06172839506172839,44.382716049382715,0)" xlink:href="#Y"/><use transform="matrix(0.06172839506172839,0,0,0.06172839506172839,49.25925925925926,0)" xlink:href="#ao"/><use transform="matrix(0.06172839506172839,0,0,0.06172839506172839,61.60493827160494,0)" xlink:href="#aT"/></g><g id="E"><use transform="matrix(0.06172839506172839,0,0,0.06172839506172839,0,0)" xlink:href="#Z"/><use transform="matrix(0.06172839506172839,0,0,0.06172839506172839,12.345679012345679,0)" xlink:href="#ao"/></g><g id="F"><use transform="matrix(0.06172839506172839,0,0,0.06172839506172839,0,0)" xlink:href="#ap"/><use transform="matrix(0.06172839506172839,0,0,0.06172839506172839,6.172839506172839,0)" xlink:href="#U"/><use transform="matrix(0.06172839506172839,0,0,0.06172839506172839,18.51851851851852,0)" xlink:href="#Y"/><use transform="matrix(0.06172839506172839,0,0,0.06172839506172839,23.395061728395063,0)" xlink:href="#aq"/></g><path fill="#333" d="M33-261c38 41 65 92 65 168S71 34 33 75H2C39 34 66-17 66-93S39-220 2-261h31" id="aX"/><g id="G"><use transform="matrix(0.06172839506172839,0,0,0.06172839506172839,0,0)" xlink:href="#aa"/><use transform="matrix(0.06172839506172839,0,0,0.06172839506172839,12.345679012345679,0)" xlink:href="#ac"/><use transform="matrix(0.06172839506172839,0,0,0.06172839506172839,24.691358024691358,0)" xlink:href="#ap"/><use transform="matrix(0.06172839506172839,0,0,0.06172839506172839,30.864197530864196,0)" xlink:href="#V"/><use transform="matrix(0.06172839506172839,0,0,0.06172839506172839,43.20987654320987,0)" xlink:href="#aX"/><use transform="matrix(0.06172839506172839,0,0,0.06172839506172839,50.55555555555555,0)" xlink:href="#am"/></g><g id="H"><use transform="matrix(0.06172839506172839,0,0,0.06172839506172839,0,0)" xlink:href="#aF"/><use transform="matrix(0.06172839506172839,0,0,0.06172839506172839,15.987654320987653,0)" xlink:href="#aB"/><use transform="matrix(0.06172839506172839,0,0,0.06172839506172839,28.333333333333332,0)" xlink:href="#aG"/><use transform="matrix(0.06172839506172839,0,0,0.06172839506172839,34.50617283950617,0)" xlink:href="#af"/><use transform="matrix(0.06172839506172839,0,0,0.06172839506172839,39.382716049382715,0)" xlink:href="#aH"/><use transform="matrix(0.06172839506172839,0,0,0.06172839506172839,50.49382716049382,0)" xlink:href="#ag"/><use transform="matrix(0.06172839506172839,0,0,0.06172839506172839,62.8395061728395,0)" xlink:href="#aI"/><use transform="matrix(0.06172839506172839,0,0,0.06172839506172839,75.18518518518518,0)" xlink:href="#am"/></g><g id="I"><use transform="matrix(0.06172839506172839,0,0,0.06172839506172839,0,0)" xlink:href="#ap"/><use transform="matrix(0.06172839506172839,0,0,0.06172839506172839,6.172839506172839,0)" xlink:href="#V"/><use transform="matrix(0.06172839506172839,0,0,0.06172839506172839,18.51851851851852,0)" xlink:href="#ay"/><use transform="matrix(0.06172839506172839,0,0,0.06172839506172839,29.62962962962963,0)" xlink:href="#ap"/></g><path fill="#333" d="M11 0l48-248h34L50-27h125l-5 27H11" id="aY"/><path fill="#333" d="M67-162c32-53 139-36 121 50C175-51 163 2 97 4 68 4 52-11 42-31 38 6 28 39 22 75H-9l50-265h29c-1 10 0 20-3 28zm89 36c0-26-10-43-35-43-54 0-67 50-69 103-1 29 14 45 42 46 53 0 62-58 62-106" id="aZ"/><path fill="#333" d="M89 0H52L20-190h33L74-25l89-165h34" id="ba"/><path fill="#333" d="M68-162c25-46 127-43 121 31C183-60 169 1 98 4 69 5 53-11 43-31L36 0H5l52-261h31zm88 36c2-27-9-43-34-43-55 0-70 51-70 103 0 29 15 45 43 46 52 0 58-58 61-106" id="bb"/><path fill="#333" d="M33 0v-38h34V0H33" id="bc"/><g id="J"><use transform="matrix(0.06172839506172839,0,0,0.06172839506172839,0,0)" xlink:href="#aY"/><use transform="matrix(0.06172839506172839,0,0,0.06172839506172839,12.345679012345679,0)" xlink:href="#aJ"/><use transform="matrix(0.06172839506172839,0,0,0.06172839506172839,24.691358024691358,0)" xlink:href="#aD"/><use transform="matrix(0.06172839506172839,0,0,0.06172839506172839,43.148148148148145,0)" xlink:href="#aZ"/><use transform="matrix(0.06172839506172839,0,0,0.06172839506172839,55.49382716049382,0)" xlink:href="#ai"/><use transform="matrix(0.06172839506172839,0,0,0.06172839506172839,67.8395061728395,0)" xlink:href="#aH"/><use transform="matrix(0.06172839506172839,0,0,0.06172839506172839,78.95061728395062,0)" xlink:href="#af"/><use transform="matrix(0.06172839506172839,0,0,0.06172839506172839,83.82716049382717,0)" xlink:href="#ba"/><use transform="matrix(0.06172839506172839,0,0,0.06172839506172839,94.93827160493828,0)" xlink:href="#ai"/><use transform="matrix(0.06172839506172839,0,0,0.06172839506172839,107.28395061728396,0)" xlink:href="#aC"/><use transform="matrix(0.06172839506172839,0,0,0.06172839506172839,119.62962962962965,0)" xlink:href="#ai"/><use transform="matrix(0.06172839506172839,0,0,0.06172839506172839,131.97530864197532,0)" xlink:href="#bb"/><use transform="matrix(0.06172839506172839,0,0,0.06172839506172839,144.320987654321,0)" xlink:href="#aJ"/><use transform="matrix(0.06172839506172839,0,0,0.06172839506172839,156.66666666666666,0)" xlink:href="#aI"/><use transform="matrix(0.06172839506172839,0,0,0.06172839506172839,169.01234567901233,0)" xlink:href="#aK"/><use transform="matrix(0.06172839506172839,0,0,0.06172839506172839,181.358024691358,0)" xlink:href="#aJ"/><use transform="matrix(0.06172839506172839,0,0,0.06172839506172839,193.70370370370367,0)" xlink:href="#aM"/><use transform="matrix(0.06172839506172839,0,0,0.06172839506172839,204.81481481481478,0)" xlink:href="#bc"/></g><path fill="#333" d="M33-154v-36h34v36H33zM33 0v-36h34V0H33" id="bd"/><path fill="#333" d="M33 0v-248h34V0H33" id="be"/><path fill="#333" d="M190 0L58-211 59 0H30v-248h39L202-35l-2-213h31V0h-41" id="bf"/><path fill="#333" d="M-5 72V49h209v23H-5" id="bg"/><g id="K"><use transform="matrix(0.03703703703703704,0,0,0.03703703703703704,0,0)" xlink:href="#Y"/><use transform="matrix(0.03703703703703704,0,0,0.03703703703703704,2.9259259259259265,0)" xlink:href="#ao"/><use transform="matrix(0.03703703703703704,0,0,0.03703703703703704,10.333333333333334,0)" xlink:href="#ap"/><use transform="matrix(0.03703703703703704,0,0,0.03703703703703704,14.037037037037038,0)" xlink:href="#bd"/><use transform="matrix(0.03703703703703704,0,0,0.03703703703703704,17.740740740740744,0)" xlink:href="#be"/><use transform="matrix(0.03703703703703704,0,0,0.03703703703703704,21.44444444444445,0)" xlink:href="#bf"/><use transform="matrix(0.03703703703703704,0,0,0.03703703703703704,31.037037037037045,0)" xlink:href="#T"/><use transform="matrix(0.03703703703703704,0,0,0.03703703703703704,39.14814814814816,0)" xlink:href="#ax"/><use transform="matrix(0.03703703703703704,0,0,0.03703703703703704,46.55555555555557,0)" xlink:href="#bg"/></g><path fill="#333" d="M30-248c87 1 191-15 191 75 0 78-77 80-158 76V0H30v-248zm33 125c57 0 124 11 124-50 0-59-68-47-124-48v98" id="bh"/><g id="L"><use transform="matrix(0.03703703703703704,0,0,0.03703703703703704,0,0)" xlink:href="#T"/><use transform="matrix(0.03703703703703704,0,0,0.03703703703703704,6.629629629629631,0)" xlink:href="#V"/><use transform="matrix(0.03703703703703704,0,0,0.03703703703703704,14.037037037037038,0)" xlink:href="#ay"/><use transform="matrix(0.03703703703703704,0,0,0.03703703703703704,20.703703703703706,0)" xlink:href="#ap"/><use transform="matrix(0.03703703703703704,0,0,0.03703703703703704,24.407407407407412,0)" xlink:href="#bh"/><use transform="matrix(0.03703703703703704,0,0,0.03703703703703704,33.296296296296305,0)" xlink:href="#ac"/><use transform="matrix(0.03703703703703704,0,0,0.03703703703703704,40.70370370370371,0)" xlink:href="#aq"/><use transform="matrix(0.03703703703703704,0,0,0.03703703703703704,47.37037037037039,0)" xlink:href="#aq"/><use transform="matrix(0.03703703703703704,0,0,0.03703703703703704,54.03703703703705,0)" xlink:href="#ac"/><use transform="matrix(0.03703703703703704,0,0,0.03703703703703704,61.444444444444464,0)" xlink:href="#aT"/><use transform="matrix(0.03703703703703704,0,0,0.03703703703703704,68.85185185185186,0)" xlink:href="#V"/></g><path fill="#333" d="M233-177c-1 41-23 64-60 70L243 0h-38l-65-103H63V0H30v-248c88 3 205-21 203 71zM63-129c60-2 137 13 137-47 0-61-80-42-137-45v92" id="bi"/><path fill="#333" d="M64 0c3-98 48-159 88-221H18v-27h164v26C143-157 98-101 97 0H64" id="bj"/><path fill="#333" d="M9 0v-24l116-142H16v-24h144v24L44-24h123V0H9" id="bk"/><g id="M"><use transform="matrix(0.03703703703703704,0,0,0.03703703703703704,0,0)" xlink:href="#Y"/><use transform="matrix(0.03703703703703704,0,0,0.03703703703703704,2.9259259259259265,0)" xlink:href="#ao"/><use transform="matrix(0.03703703703703704,0,0,0.03703703703703704,10.333333333333334,0)" xlink:href="#ap"/><use transform="matrix(0.03703703703703704,0,0,0.03703703703703704,14.037037037037038,0)" xlink:href="#bd"/><use transform="matrix(0.03703703703703704,0,0,0.03703703703703704,17.740740740740744,0)" xlink:href="#bi"/><use transform="matrix(0.03703703703703704,0,0,0.03703703703703704,27.333333333333336,0)" xlink:href="#ax"/><use transform="matrix(0.03703703703703704,0,0,0.03703703703703704,34.74074074074075,0)" xlink:href="#bj"/><use transform="matrix(0.03703703703703704,0,0,0.03703703703703704,42.14814814814815,0)" xlink:href="#bg"/><use transform="matrix(0.03703703703703704,0,0,0.03703703703703704,49.55555555555556,0)" xlink:href="#ac"/><use transform="matrix(0.03703703703703704,0,0,0.03703703703703704,56.96296296296296,0)" xlink:href="#ab"/><use transform="matrix(0.03703703703703704,0,0,0.03703703703703704,63.629629629629626,0)" xlink:href="#ap"/><use transform="matrix(0.03703703703703704,0,0,0.03703703703703704,67.33333333333334,0)" xlink:href="#ar"/><use transform="matrix(0.03703703703703704,0,0,0.03703703703703704,74.74074074074075,0)" xlink:href="#ac"/><use transform="matrix(0.03703703703703704,0,0,0.03703703703703704,82.14814814814815,0)" xlink:href="#ad"/><use transform="matrix(0.03703703703703704,0,0,0.03703703703703704,85.07407407407406,0)" xlink:href="#Y"/><use transform="matrix(0.03703703703703704,0,0,0.03703703703703704,88,0)" xlink:href="#bk"/><use transform="matrix(0.03703703703703704,0,0,0.03703703703703704,94.66666666666669,0)" xlink:href="#V"/><use transform="matrix(0.03703703703703704,0,0,0.03703703703703704,102.07407407407408,0)" xlink:href="#aq"/><use transform="matrix(0.03703703703703704,0,0,0.03703703703703704,108.74074074074076,0)" xlink:href="#bg"/><use transform="matrix(0.03703703703703704,0,0,0.03703703703703704,116.14814814814815,0)" xlink:href="#at"/><use transform="matrix(0.03703703703703704,0,0,0.03703703703703704,119.85185185185186,0)" xlink:href="#V"/><use transform="matrix(0.03703703703703704,0,0,0.03703703703703704,127.25925925925925,0)" xlink:href="#ac"/><use transform="matrix(0.03703703703703704,0,0,0.03703703703703704,134.66666666666669,0)" xlink:href="#ap"/><use transform="matrix(0.03703703703703704,0,0,0.03703703703703704,138.37037037037038,0)" xlink:href="#ar"/><use transform="matrix(0.03703703703703704,0,0,0.03703703703703704,145.7777777777778,0)" xlink:href="#X"/><use transform="matrix(0.03703703703703704,0,0,0.03703703703703704,150.18518518518522,0)" xlink:href="#V"/></g><path fill="#333" d="M134-131c28 9 52 24 51 62-1 50-34 73-85 73S17-19 16-69c0-36 21-54 49-61-75-25-45-126 34-121 46 3 78 18 79 63 0 33-17 51-44 57zm-34-11c31 1 46-15 46-44 0-28-17-43-47-42-29 0-46 13-45 42 1 28 16 44 46 44zm1 122c35 0 51-18 51-52 0-30-18-46-53-46-33 0-51 17-51 47 0 34 19 51 53 51" id="bl"/><g id="N"><use transform="matrix(0.03703703703703704,0,0,0.03703703703703704,0,0)" xlink:href="#Y"/><use transform="matrix(0.03703703703703704,0,0,0.03703703703703704,2.9259259259259265,0)" xlink:href="#ao"/><use transform="matrix(0.03703703703703704,0,0,0.03703703703703704,10.333333333333334,0)" xlink:href="#ap"/><use transform="matrix(0.03703703703703704,0,0,0.03703703703703704,14.037037037037038,0)" xlink:href="#bd"/><use transform="matrix(0.03703703703703704,0,0,0.03703703703703704,17.740740740740744,0)" xlink:href="#be"/><use transform="matrix(0.03703703703703704,0,0,0.03703703703703704,21.44444444444445,0)" xlink:href="#bf"/><use transform="matrix(0.03703703703703704,0,0,0.03703703703703704,31.037037037037045,0)" xlink:href="#T"/><use transform="matrix(0.03703703703703704,0,0,0.03703703703703704,39.14814814814816,0)" xlink:href="#ax"/><use transform="matrix(0.03703703703703704,0,0,0.03703703703703704,46.55555555555557,0)" xlink:href="#bl"/><use transform="matrix(0.03703703703703704,0,0,0.03703703703703704,53.962962962962976,0)" xlink:href="#bg"/><use transform="matrix(0.03703703703703704,0,0,0.03703703703703704,61.37037037037038,0)" xlink:href="#bi"/><use transform="matrix(0.03703703703703704,0,0,0.03703703703703704,70.96296296296298,0)" xlink:href="#V"/><use transform="matrix(0.03703703703703704,0,0,0.03703703703703704,78.37037037037038,0)" xlink:href="#at"/><use transform="matrix(0.03703703703703704,0,0,0.03703703703703704,82.07407407407409,0)" xlink:href="#V"/><use transform="matrix(0.03703703703703704,0,0,0.03703703703703704,89.4814814814815,0)" xlink:href="#X"/><use transform="matrix(0.03703703703703704,0,0,0.03703703703703704,93.8888888888889,0)" xlink:href="#V"/><use transform="matrix(0.03703703703703704,0,0,0.03703703703703704,101.2962962962963,0)" xlink:href="#ao"/><use transform="matrix(0.03703703703703704,0,0,0.03703703703703704,108.7037037037037,0)" xlink:href="#ab"/><use transform="matrix(0.03703703703703704,0,0,0.03703703703703704,115.37037037037038,0)" xlink:href="#V"/></g><path fill="#333" d="M110-160c48 1 74 30 74 79 0 53-28 85-80 85-65 0-83-55-86-122-5-90 50-162 133-122 14 7 22 21 27 39l-31 6c-5-40-67-38-82-6-9 19-15 44-15 74 11-20 30-34 60-33zm-7 138c34 0 49-23 49-58s-16-56-50-56c-29 0-50 16-49 49 1 36 15 65 50 65" id="bm"/><g id="O"><use transform="matrix(0.03703703703703704,0,0,0.03703703703703704,0,0)" xlink:href="#ab"/><use transform="matrix(0.03703703703703704,0,0,0.03703703703703704,6.666666666666668,0)" xlink:href="#X"/><use transform="matrix(0.03703703703703704,0,0,0.03703703703703704,11.074074074074076,0)" xlink:href="#aS"/><use transform="matrix(0.03703703703703704,0,0,0.03703703703703704,22.148148148148152,0)" xlink:href="#bd"/><use transform="matrix(0.03703703703703704,0,0,0.03703703703703704,25.851851851851855,0)" xlink:href="#bh"/><use transform="matrix(0.03703703703703704,0,0,0.03703703703703704,34.74074074074075,0)" xlink:href="#bm"/><use transform="matrix(0.03703703703703704,0,0,0.03703703703703704,42.14814814814815,0)" xlink:href="#bj"/><use transform="matrix(0.03703703703703704,0,0,0.03703703703703704,49.55555555555556,0)" xlink:href="#bg"/><use transform="matrix(0.03703703703703704,0,0,0.03703703703703704,56.96296296296296,0)" xlink:href="#X"/><use transform="matrix(0.03703703703703704,0,0,0.03703703703703704,61.37037037037037,0)" xlink:href="#V"/><use transform="matrix(0.03703703703703704,0,0,0.03703703703703704,68.77777777777777,0)" xlink:href="#at"/><use transform="matrix(0.03703703703703704,0,0,0.03703703703703704,72.48148148148148,0)" xlink:href="#V"/><use transform="matrix(0.03703703703703704,0,0,0.03703703703703704,79.88888888888889,0)" xlink:href="#X"/><use transform="matrix(0.03703703703703704,0,0,0.03703703703703704,84.29629629629629,0)" xlink:href="#aq"/><use transform="matrix(0.03703703703703704,0,0,0.03703703703703704,90.96296296296296,0)" xlink:href="#bg"/><use transform="matrix(0.03703703703703704,0,0,0.03703703703703704,98.37037037037037,0)" xlink:href="#ap"/><use transform="matrix(0.03703703703703704,0,0,0.03703703703703704,102.07407407407408,0)" xlink:href="#Z"/></g><path fill="#333" d="M30 0v-248h187v28H63v79h144v27H63v87h162V0H30" id="bn"/><path fill="#333" d="M101-251c82-7 93 87 43 132L82-64C71-53 59-42 53-27h129V0H18c2-99 128-94 128-182 0-28-16-43-45-43s-46 15-49 41l-32-3c6-41 34-60 81-64" id="bo"/><g id="P"><use transform="matrix(0.03703703703703704,0,0,0.03703703703703704,0,0)" xlink:href="#ab"/><use transform="matrix(0.03703703703703704,0,0,0.03703703703703704,6.666666666666668,0)" xlink:href="#X"/><use transform="matrix(0.03703703703703704,0,0,0.03703703703703704,11.074074074074076,0)" xlink:href="#aS"/><use transform="matrix(0.03703703703703704,0,0,0.03703703703703704,22.148148148148152,0)" xlink:href="#bd"/><use transform="matrix(0.03703703703703704,0,0,0.03703703703703704,25.851851851851855,0)" xlink:href="#bn"/><use transform="matrix(0.03703703703703704,0,0,0.03703703703703704,34.74074074074075,0)" xlink:href="#bo"/><use transform="matrix(0.03703703703703704,0,0,0.03703703703703704,42.14814814814815,0)" xlink:href="#ax"/><use transform="matrix(0.03703703703703704,0,0,0.03703703703703704,49.55555555555556,0)" xlink:href="#bg"/><use transform="matrix(0.03703703703703704,0,0,0.03703703703703704,56.96296296296296,0)" xlink:href="#bh"/><use transform="matrix(0.03703703703703704,0,0,0.03703703703703704,65.85185185185185,0)" xlink:href="#V"/><use transform="matrix(0.03703703703703704,0,0,0.03703703703703704,73.25925925925925,0)" xlink:href="#X"/><use transform="matrix(0.03703703703703704,0,0,0.03703703703703704,77.66666666666666,0)" xlink:href="#aq"/><use transform="matrix(0.03703703703703704,0,0,0.03703703703703704,84.33333333333333,0)" xlink:href="#Z"/><use transform="matrix(0.03703703703703704,0,0,0.03703703703703704,91.74074074074073,0)" xlink:href="#ao"/></g><g id="Q"><use transform="matrix(0.03703703703703704,0,0,0.03703703703703704,0,0)" xlink:href="#Y"/><use transform="matrix(0.03703703703703704,0,0,0.03703703703703704,2.9259259259259265,0)" xlink:href="#ao"/><use transform="matrix(0.03703703703703704,0,0,0.03703703703703704,10.333333333333334,0)" xlink:href="#ap"/><use transform="matrix(0.03703703703703704,0,0,0.03703703703703704,14.037037037037038,0)" xlink:href="#bd"/><use transform="matrix(0.03703703703703704,0,0,0.03703703703703704,17.740740740740744,0)" xlink:href="#bi"/><use transform="matrix(0.03703703703703704,0,0,0.03703703703703704,27.333333333333336,0)" xlink:href="#ax"/><use transform="matrix(0.03703703703703704,0,0,0.03703703703703704,34.74074074074075,0)" xlink:href="#bl"/><use transform="matrix(0.03703703703703704,0,0,0.03703703703703704,42.14814814814815,0)" xlink:href="#bg"/><use transform="matrix(0.03703703703703704,0,0,0.03703703703703704,49.55555555555556,0)" xlink:href="#aq"/><use transform="matrix(0.03703703703703704,0,0,0.03703703703703704,56.22222222222223,0)" xlink:href="#U"/><use transform="matrix(0.03703703703703704,0,0,0.03703703703703704,63.629629629629626,0)" xlink:href="#Z"/><use transform="matrix(0.03703703703703704,0,0,0.03703703703703704,71.03703703703704,0)" xlink:href="#an"/><use transform="matrix(0.03703703703703704,0,0,0.03703703703703704,80.62962962962963,0)" xlink:href="#aq"/><use transform="matrix(0.03703703703703704,0,0,0.03703703703703704,87.2962962962963,0)" xlink:href="#bg"/><use transform="matrix(0.03703703703703704,0,0,0.03703703703703704,94.70370370370371,0)" xlink:href="#ac"/><use transform="matrix(0.03703703703703704,0,0,0.03703703703703704,102.11111111111111,0)" xlink:href="#ab"/><use transform="matrix(0.03703703703703704,0,0,0.03703703703703704,108.77777777777779,0)" xlink:href="#ap"/><use transform="matrix(0.03703703703703704,0,0,0.03703703703703704,112.4814814814815,0)" xlink:href="#ar"/><use transform="matrix(0.03703703703703704,0,0,0.03703703703703704,119.8888888888889,0)" xlink:href="#ac"/><use transform="matrix(0.03703703703703704,0,0,0.03703703703703704,127.29629629629632,0)" xlink:href="#ad"/><use transform="matrix(0.03703703703703704,0,0,0.03703703703703704,130.22222222222223,0)" xlink:href="#Y"/><use transform="matrix(0.03703703703703704,0,0,0.03703703703703704,133.14814814814815,0)" xlink:href="#bk"/><use transform="matrix(0.03703703703703704,0,0,0.03703703703703704,139.8148148148148,0)" xlink:href="#ac"/><use transform="matrix(0.03703703703703704,0,0,0.03703703703703704,147.22222222222223,0)" xlink:href="#ap"/><use transform="matrix(0.03703703703703704,0,0,0.03703703703703704,150.92592592592592,0)" xlink:href="#Y"/><use transform="matrix(0.03703703703703704,0,0,0.03703703703703704,153.85185185185185,0)" xlink:href="#Z"/><use transform="matrix(0.03703703703703704,0,0,0.03703703703703704,161.25925925925927,0)" xlink:href="#ao"/></g><path fill="#333" d="M205 0l-28-72H64L36 0H1l101-248h38L239 0h-34zm-38-99l-47-123c-12 45-31 82-46 123h93" id="bp"/><g id="R"><use transform="matrix(0.03703703703703704,0,0,0.03703703703703704,0,0)" xlink:href="#Y"/><use transform="matrix(0.03703703703703704,0,0,0.03703703703703704,2.9259259259259265,0)" xlink:href="#ao"/><use transform="matrix(0.03703703703703704,0,0,0.03703703703703704,10.333333333333334,0)" xlink:href="#ap"/><use transform="matrix(0.03703703703703704,0,0,0.03703703703703704,14.037037037037038,0)" xlink:href="#bd"/><use transform="matrix(0.03703703703703704,0,0,0.03703703703703704,17.740740740740744,0)" xlink:href="#be"/><use transform="matrix(0.03703703703703704,0,0,0.03703703703703704,21.44444444444445,0)" xlink:href="#bf"/><use transform="matrix(0.03703703703703704,0,0,0.03703703703703704,31.037037037037045,0)" xlink:href="#T"/><use transform="matrix(0.03703703703703704,0,0,0.03703703703703704,39.14814814814816,0)" xlink:href="#bo"/><use transform="matrix(0.03703703703703704,0,0,0.03703703703703704,46.55555555555557,0)" xlink:href="#bg"/><use transform="matrix(0.03703703703703704,0,0,0.03703703703703704,53.962962962962976,0)" xlink:href="#bp"/><use transform="matrix(0.03703703703703704,0,0,0.03703703703703704,62.85185185185186,0)" xlink:href="#ab"/><use transform="matrix(0.03703703703703704,0,0,0.03703703703703704,69.51851851851853,0)" xlink:href="#ap"/><use transform="matrix(0.03703703703703704,0,0,0.03703703703703704,73.22222222222224,0)" xlink:href="#ar"/><use transform="matrix(0.03703703703703704,0,0,0.03703703703703704,80.62962962962963,0)" xlink:href="#ac"/><use transform="matrix(0.03703703703703704,0,0,0.03703703703703704,88.03703703703705,0)" xlink:href="#ad"/><use transform="matrix(0.03703703703703704,0,0,0.03703703703703704,90.96296296296298,0)" xlink:href="#Y"/><use transform="matrix(0.03703703703703704,0,0,0.03703703703703704,93.8888888888889,0)" xlink:href="#bk"/><use transform="matrix(0.03703703703703704,0,0,0.03703703703703704,100.55555555555557,0)" xlink:href="#ac"/><use transform="matrix(0.03703703703703704,0,0,0.03703703703703704,107.96296296296298,0)" xlink:href="#ap"/><use transform="matrix(0.03703703703703704,0,0,0.03703703703703704,111.66666666666669,0)" xlink:href="#Y"/><use transform="matrix(0.03703703703703704,0,0,0.03703703703703704,114.59259259259261,0)" xlink:href="#Z"/><use transform="matrix(0.03703703703703704,0,0,0.03703703703703704,122.00000000000001,0)" xlink:href="#ao"/></g><path fill="#333" d="M140-251c81 0 123 46 123 126C263-46 219 4 140 4 59 4 17-45 17-125s42-126 123-126zm0 227c63 0 89-41 89-101s-29-99-89-99c-61 0-89 39-89 99S79-25 140-24" id="bq"/><path fill="#333" d="M63-220v92h138v28H63V0H30v-248h175v28H63" id="br"/><g id="S"><use transform="matrix(0.03703703703703704,0,0,0.03703703703703704,0,0)" xlink:href="#bq"/><use transform="matrix(0.03703703703703704,0,0,0.03703703703703704,10.370370370370372,0)" xlink:href="#at"/><use transform="matrix(0.03703703703703704,0,0,0.03703703703703704,14.074074074074076,0)" xlink:href="#br"/><use transform="matrix(0.03703703703703704,0,0,0.03703703703703704,22.185185185185194,0)" xlink:href="#V"/><use transform="matrix(0.03703703703703704,0,0,0.03703703703703704,29.592592592592602,0)" xlink:href="#ac"/><use transform="matrix(0.03703703703703704,0,0,0.03703703703703704,37.00000000000001,0)" xlink:href="#ap"/><use transform="matrix(0.03703703703703704,0,0,0.03703703703703704,40.70370370370371,0)" xlink:href="#ar"/><use transform="matrix(0.03703703703703704,0,0,0.03703703703703704,48.111111111111114,0)" xlink:href="#X"/><use transform="matrix(0.03703703703703704,0,0,0.03703703703703704,52.51851851851852,0)" xlink:href="#V"/></g></defs></g></svg>