<?xml version="1.0" encoding="UTF-8" standalone="no"?>
<!DOCTYPE svg PUBLIC "-//W3C//DTD SVG 1.1//EN" "http://www.w3.org/Graphics/SVG/1.1/DTD/svg11.dtd">
<!-- Created with Vectornator (http://vectornator.io/) -->
<svg height="100%" stroke-miterlimit="10" style="fill-rule:nonzero;clip-rule:evenodd;stroke-linecap:round;stroke-linejoin:round;" version="1.1" viewBox="0 0 615.5 312.58" width="100%" xml:space="preserve" xmlns="http://www.w3.org/2000/svg" xmlns:xlink="http://www.w3.org/1999/xlink">
<defs/>
<g id="Untitled">
<g opacity="1">
<path d="M586.813 128.344C600.063 128.344 610.813 141.344 610.813 157.364C610.813 173.394 600.063 186.384 586.813 186.384L514.813 186.384C501.563 186.384 490.813 173.384 490.813 157.364C490.813 141.344 501.563 128.344 514.813 128.344L586.813 128.344Z" fill="#ffffff" fill-rule="nonzero" opacity="1" stroke="#5e5e5e" stroke-linecap="butt" stroke-linejoin="miter" stroke-width="1"/>
<g opacity="1">
<path d="M505.294 153.064C503.813 153.064 503.516 154.286 503.516 155.768C503.516 157.249 503.85 158.546 505.294 158.546C506.183 158.546 506.813 158.027 506.887 157.138L508.072 157.212C507.85 158.583 506.924 159.472 505.331 159.472C503.146 159.472 502.516 157.953 502.294 155.805C501.924 152.361 506.035 150.953 507.739 153.435C507.887 153.694 507.924 153.953 507.998 154.249L506.813 154.361C506.664 153.583 506.22 153.064 505.294 153.064" fill="#333333" fill-rule="nonzero" opacity="1" stroke="none"/>
<path d="M512.627 153.286C509.739 152.694 510.664 156.657 510.516 159.324L509.331 159.324L509.294 152.286L510.405 152.286C510.442 152.731 510.368 153.361 510.479 153.731C510.701 152.731 511.331 151.916 512.627 152.212L512.627 153.286" fill="#333333" fill-rule="nonzero" opacity="1" stroke="none"/>
<path d="M520.59 153.064C518.109 153.175 519.183 156.953 518.961 159.324L517.813 159.324L517.813 154.842C517.813 153.768 517.627 152.99 516.516 153.064C514.072 153.212 515.109 156.916 514.887 159.324L513.739 159.324L513.701 152.286L514.813 152.286C514.85 152.657 514.776 153.175 514.887 153.472C515.257 151.842 518.553 151.62 518.85 153.472C519.257 152.694 519.85 152.175 520.998 152.138C524.146 152.064 522.739 156.546 523.035 159.324L521.887 159.324L521.887 154.842C521.887 153.768 521.701 153.027 520.59 153.064" fill="#333333" fill-rule="nonzero" opacity="1" stroke="none"/>
<path d="M525.109 153.62L525.109 152.286L526.368 152.286L526.368 153.62L525.109 153.62ZM525.109 159.324L525.109 157.99L526.368 157.99L526.368 159.324L525.109 159.324" fill="#333333" fill-rule="nonzero" opacity="1" stroke="none"/>
<path d="M528.701 159.324L528.701 150.138L535.627 150.138L535.627 151.175L529.924 151.175L529.924 154.101L535.257 154.101L535.257 155.101L529.924 155.101L529.924 158.324L535.924 158.324L535.924 159.324L528.701 159.324" fill="#333333" fill-rule="nonzero" opacity="1" stroke="none"/>
<path d="M540.22 150.027C543.257 149.768 543.664 153.249 541.813 154.916L539.516 156.953C539.109 157.361 538.664 157.768 538.442 158.324L543.22 158.324L543.22 159.324L537.146 159.324C537.22 155.657 541.887 155.842 541.887 152.583C541.887 151.546 541.294 150.99 540.22 150.99C539.146 150.99 538.516 151.546 538.405 152.509L537.22 152.398C537.442 150.879 538.479 150.175 540.22 150.027" fill="#333333" fill-rule="nonzero" opacity="1" stroke="none"/>
<path d="M544.887 159.324L544.887 158.324L547.257 158.324L547.257 151.286L545.183 152.731L545.183 151.657L547.331 150.138L548.405 150.138L548.405 158.324L550.664 158.324L550.664 159.324L544.887 159.324" fill="#333333" fill-rule="nonzero" opacity="1" stroke="none"/>
<path d="M551.109 161.99L551.109 161.138L558.85 161.138L558.85 161.99L551.109 161.99" fill="#333333" fill-rule="nonzero" opacity="1" stroke="none"/>
<path d="M559.813 150.138C563.035 150.175 566.887 149.583 566.887 152.916C566.887 155.805 564.035 155.879 561.035 155.731L561.035 159.324L559.813 159.324L559.813 150.138ZM561.035 154.768C563.146 154.768 565.627 155.175 565.627 152.916C565.627 150.731 563.109 151.175 561.035 151.138L561.035 154.768" fill="#333333" fill-rule="nonzero" opacity="1" stroke="none"/>
<path d="M571.294 152.138C573.627 152.138 574.479 153.694 574.405 156.064L569.405 156.064C569.405 157.546 569.924 158.546 571.368 158.583C572.331 158.62 572.961 158.138 573.183 157.509L574.22 157.805C573.813 158.842 572.85 159.472 571.368 159.472C569.22 159.472 568.109 158.101 568.146 155.768C568.183 153.509 569.109 152.138 571.294 152.138ZM573.22 155.138C573.442 152.916 570.405 152.286 569.627 154.101C569.516 154.361 569.405 154.731 569.405 155.138L573.22 155.138" fill="#333333" fill-rule="nonzero" opacity="1" stroke="none"/>
<path d="M579.22 153.286C576.331 152.694 577.257 156.657 577.109 159.324L575.924 159.324L575.887 152.286L576.998 152.286C577.035 152.731 576.961 153.361 577.072 153.731C577.294 152.731 577.924 151.916 579.22 152.212L579.22 153.286" fill="#333333" fill-rule="nonzero" opacity="1" stroke="none"/>
<path d="M584.405 154.027C584.294 152.768 581.22 152.62 581.183 154.027C581.739 155.99 585.442 154.472 585.59 157.361C585.739 160.249 580.035 160.101 579.776 157.657L580.813 157.472C580.961 158.805 584.405 159.138 584.442 157.472C584.072 155.398 580.257 156.916 580.072 154.138C579.924 152.027 583.109 151.805 584.59 152.583C585.035 152.842 585.368 153.286 585.479 153.879" fill="#333333" fill-rule="nonzero" opacity="1" stroke="none"/>
<path d="M589.776 152.138C592.072 152.101 592.924 153.509 592.924 155.805C592.961 158.138 591.924 159.472 589.739 159.472C587.553 159.472 586.664 158.027 586.627 155.805C586.627 153.361 587.664 152.138 589.776 152.138ZM589.739 158.583C591.368 158.62 591.701 157.435 591.701 155.805C591.701 154.212 591.405 153.027 589.813 153.027C588.22 153.027 587.85 154.212 587.85 155.805C587.85 157.398 588.22 158.546 589.739 158.583" fill="#333333" fill-rule="nonzero" opacity="1" stroke="none"/>
<path d="M597.813 152.138C601.109 151.99 599.776 156.435 600.035 159.324L598.85 159.324L598.85 154.842C598.85 153.694 598.553 153.027 597.405 153.064C594.739 153.138 595.776 156.842 595.59 159.324L594.405 159.324L594.368 152.286L595.479 152.286C595.516 152.657 595.442 153.175 595.553 153.472C595.961 152.657 596.627 152.175 597.813 152.138" fill="#333333" fill-rule="nonzero" opacity="1" stroke="none"/>
</g>
<path d="M106.813 128.344C120.063 128.344 130.813 141.344 130.813 157.364C130.813 173.394 120.063 186.384 106.813 186.384L34.8126 186.384C21.5626 186.384 10.8126 173.384 10.8126 157.364C10.8126 141.344 21.5626 128.344 34.8126 128.344L106.813 128.344Z" fill="#ffffff" fill-rule="nonzero" opacity="1" stroke="#5e5e5e" stroke-linecap="butt" stroke-linejoin="miter" stroke-width="1"/>
<g opacity="1">
<path d="M34.4052 153.064C32.9237 153.064 32.6274 154.286 32.6274 155.768C32.6274 157.249 32.9608 158.546 34.4052 158.546C35.2941 158.546 35.9237 158.027 35.9978 157.138L37.183 157.212C36.9608 158.583 36.0348 159.472 34.4422 159.472C32.257 159.472 31.6274 157.953 31.4052 155.805C31.0348 152.361 35.1459 150.953 36.8496 153.435C36.9978 153.694 37.0348 153.953 37.1089 154.249L35.9237 154.361C35.7756 153.583 35.3311 153.064 34.4052 153.064" fill="#333333" fill-rule="nonzero" opacity="1" stroke="none"/>
<path d="M41.7385 153.286C38.8496 152.694 39.7756 156.657 39.6274 159.324L38.4422 159.324L38.4052 152.286L39.5163 152.286C39.5533 152.731 39.4793 153.361 39.5904 153.731C39.8126 152.731 40.4422 151.916 41.7385 152.212L41.7385 153.286" fill="#333333" fill-rule="nonzero" opacity="1" stroke="none"/>
<path d="M49.7015 153.064C47.22 153.175 48.2941 156.953 48.0719 159.324L46.9237 159.324L46.9237 154.842C46.9237 153.768 46.7385 152.99 45.6274 153.064C43.183 153.212 44.22 156.916 43.9978 159.324L42.8496 159.324L42.8126 152.286L43.9237 152.286C43.9608 152.657 43.8867 153.175 43.9978 153.472C44.3682 151.842 47.6645 151.62 47.9608 153.472C48.3682 152.694 48.9608 152.175 50.1089 152.138C53.257 152.064 51.8496 156.546 52.1459 159.324L50.9978 159.324L50.9978 154.842C50.9978 153.768 50.8126 153.027 49.7015 153.064" fill="#333333" fill-rule="nonzero" opacity="1" stroke="none"/>
<path d="M54.22 153.62L54.22 152.286L55.4793 152.286L55.4793 153.62L54.22 153.62ZM54.22 159.324L54.22 157.99L55.4793 157.99L55.4793 159.324L54.22 159.324" fill="#333333" fill-rule="nonzero" opacity="1" stroke="none"/>
<path d="M57.8126 159.324L57.8126 150.138L64.7385 150.138L64.7385 151.175L59.0348 151.175L59.0348 154.101L64.3682 154.101L64.3682 155.101L59.0348 155.101L59.0348 158.324L65.0348 158.324L65.0348 159.324L57.8126 159.324" fill="#333333" fill-rule="nonzero" opacity="1" stroke="none"/>
<path d="M67.5904 154.064C69.3682 152.768 72.6645 153.768 72.4422 156.324C72.8496 159.99 66.7385 160.546 66.1089 157.286L67.2941 157.138C67.5533 157.99 68.1089 158.509 69.22 158.509C70.5163 158.472 71.1089 157.694 71.22 156.361C71.3682 154.324 68.5163 153.953 67.5533 155.101L66.4052 155.101L66.7015 150.138L71.9237 150.138L71.9237 151.138L67.7756 151.138" fill="#333333" fill-rule="nonzero" opacity="1" stroke="none"/>
</g>
<g opacity="1">
<path d="M77.8126 159.324L77.8126 150.138L84.7385 150.138L84.7385 151.175L79.0348 151.175L79.0348 154.101L84.3682 154.101L84.3682 155.101L79.0348 155.101L79.0348 158.324L85.0348 158.324L85.0348 159.324L77.8126 159.324" fill="#333333" fill-rule="nonzero" opacity="1" stroke="none"/>
<path d="M89.5904 159.324L88.183 159.324L85.6274 152.286L86.8867 152.286L88.8867 158.398L90.9608 152.286L92.22 152.286" fill="#333333" fill-rule="nonzero" opacity="1" stroke="none"/>
<path d="M95.9608 152.138C98.2941 152.138 99.1459 153.694 99.0719 156.064L94.0719 156.064C94.0719 157.546 94.5904 158.546 96.0348 158.583C96.9978 158.62 97.6274 158.138 97.8496 157.509L98.8867 157.805C98.4793 158.842 97.5163 159.472 96.0348 159.472C93.8867 159.472 92.7756 158.101 92.8126 155.768C92.8496 153.509 93.7756 152.138 95.9608 152.138ZM97.8867 155.138C98.1089 152.916 95.0719 152.286 94.2941 154.101C94.183 154.361 94.0719 154.731 94.0719 155.138L97.8867 155.138" fill="#333333" fill-rule="nonzero" opacity="1" stroke="none"/>
<path d="M103.998 152.138C107.294 151.99 105.961 156.435 106.22 159.324L105.035 159.324L105.035 154.842C105.035 153.694 104.739 153.027 103.59 153.064C100.924 153.138 101.961 156.842 101.776 159.324L100.59 159.324L100.553 152.286L101.664 152.286C101.701 152.657 101.627 153.175 101.739 153.472C102.146 152.657 102.813 152.175 103.998 152.138" fill="#333333" fill-rule="nonzero" opacity="1" stroke="none"/>
<path d="M109.257 157.583C109.183 158.472 109.924 158.657 110.664 158.398L110.664 159.286C109.442 159.657 108.072 159.472 108.072 157.842L108.072 153.138L107.257 153.138L107.257 152.286L108.146 152.286L108.479 150.694L109.257 150.694L109.257 152.286L110.553 152.286L110.553 153.138L109.257 153.138L109.257 157.583" fill="#333333" fill-rule="nonzero" opacity="1" stroke="none"/>
</g>
<path d="M131.813 157.364L214.273 157.364" fill="none" opacity="1" stroke="#5e5e5e" stroke-linecap="butt" stroke-linejoin="miter" stroke-width="1"/>
<path d="M131.813 157.864L131.273 157.864L131.313 157.384L131.313 156.864L131.813 156.864L131.813 157.864Z" fill="#5e5e5e" fill-rule="nonzero" opacity="1" stroke="#5e5e5e" stroke-linecap="butt" stroke-linejoin="miter" stroke-width="0.05"/>
<path d="M229.033 157.364L214.773 161.994L214.773 152.724L229.033 157.364Z" fill="#5e5e5e" fill-rule="nonzero" opacity="1" stroke="#5e5e5e" stroke-linecap="butt" stroke-linejoin="miter" stroke-width="1"/>
<g opacity="1">
<path d="M154.6 125.771C153.118 125.771 152.822 126.994 152.822 128.475C152.822 129.957 153.155 131.253 154.6 131.253C155.488 131.253 156.118 130.734 156.192 129.845L157.377 129.92C157.155 131.29 156.229 132.179 154.637 132.179C152.451 132.179 151.822 130.66 151.6 128.512C151.229 125.068 155.34 123.66 157.044 126.142C157.192 126.401 157.229 126.66 157.303 126.957L156.118 127.068C155.97 126.29 155.525 125.771 154.6 125.771" fill="#333333" fill-rule="nonzero" opacity="1" stroke="none"/>
<path d="M161.933 125.994C159.044 125.401 159.97 129.364 159.822 132.031L158.637 132.031L158.6 124.994L159.711 124.994C159.748 125.438 159.674 126.068 159.785 126.438C160.007 125.438 160.637 124.623 161.933 124.92L161.933 125.994" fill="#333333" fill-rule="nonzero" opacity="1" stroke="none"/>
<path d="M169.896 125.771C167.414 125.882 168.488 129.66 168.266 132.031L167.118 132.031L167.118 127.549C167.118 126.475 166.933 125.697 165.822 125.771C163.377 125.92 164.414 129.623 164.192 132.031L163.044 132.031L163.007 124.994L164.118 124.994C164.155 125.364 164.081 125.882 164.192 126.179C164.563 124.549 167.859 124.327 168.155 126.179C168.563 125.401 169.155 124.882 170.303 124.845C173.451 124.771 172.044 129.253 172.34 132.031L171.192 132.031L171.192 127.549C171.192 126.475 171.007 125.734 169.896 125.771" fill="#333333" fill-rule="nonzero" opacity="1" stroke="none"/>
<path d="M174.414 126.327L174.414 124.994L175.674 124.994L175.674 126.327L174.414 126.327ZM174.414 132.031L174.414 130.697L175.674 130.697L175.674 132.031L174.414 132.031" fill="#333333" fill-rule="nonzero" opacity="1" stroke="none"/>
<path d="M178.007 122.845C181.229 122.882 185.081 122.29 185.081 125.623C185.081 128.512 182.229 128.586 179.229 128.438L179.229 132.031L178.007 132.031L178.007 122.845ZM179.229 127.475C181.34 127.475 183.822 127.882 183.822 125.623C183.822 123.438 181.303 123.882 179.229 123.845L179.229 127.475" fill="#333333" fill-rule="nonzero" opacity="1" stroke="none"/>
<path d="M186.785 132.031L186.785 131.031L189.155 131.031L189.155 123.994L187.081 125.438L187.081 124.364L189.229 122.845L190.303 122.845L190.303 131.031L192.563 131.031L192.563 132.031L186.785 132.031" fill="#333333" fill-rule="nonzero" opacity="1" stroke="none"/>
<path d="M196.933 122.734C199.451 122.734 200.081 124.771 200.081 127.438C200.081 130.105 199.34 132.179 196.896 132.179C194.414 132.179 193.711 130.105 193.711 127.438C193.711 124.734 194.34 122.734 196.933 122.734ZM196.896 131.216C198.637 131.216 198.896 129.401 198.896 127.438C198.896 125.475 198.748 123.66 196.933 123.66C195.044 123.66 194.896 125.438 194.896 127.438C194.896 129.401 195.081 131.216 196.896 131.216" fill="#333333" fill-rule="nonzero" opacity="1" stroke="none"/>
<path d="M201.488 123.475L201.488 122.364L202.674 122.364L202.674 123.475L201.488 123.475ZM201.488 132.031L201.488 124.994L202.674 124.994L202.674 132.031L201.488 132.031" fill="#333333" fill-rule="nonzero" opacity="1" stroke="none"/>
<path d="M203.34 134.697L203.34 133.845L211.081 133.845L211.081 134.697L203.34 134.697" fill="#333333" fill-rule="nonzero" opacity="1" stroke="none"/>
</g>
<g opacity="1">
<path d="M159.748 141.771C158.266 141.771 157.97 142.994 157.97 144.475C157.97 145.957 158.303 147.253 159.748 147.253C160.637 147.253 161.266 146.734 161.34 145.845L162.525 145.92C162.303 147.29 161.377 148.179 159.785 148.179C157.6 148.179 156.97 146.66 156.748 144.512C156.377 141.068 160.488 139.66 162.192 142.142C162.34 142.401 162.377 142.66 162.451 142.957L161.266 143.068C161.118 142.29 160.674 141.771 159.748 141.771" fill="#333333" fill-rule="nonzero" opacity="1" stroke="none"/>
<path d="M166.563 140.845C168.859 140.808 169.711 142.216 169.711 144.512C169.748 146.845 168.711 148.179 166.525 148.179C164.34 148.179 163.451 146.734 163.414 144.512C163.414 142.068 164.451 140.845 166.563 140.845ZM166.525 147.29C168.155 147.327 168.488 146.142 168.488 144.512C168.488 142.92 168.192 141.734 166.6 141.734C165.007 141.734 164.637 142.92 164.637 144.512C164.637 146.105 165.007 147.253 166.525 147.29" fill="#333333" fill-rule="nonzero" opacity="1" stroke="none"/>
<path d="M174.6 140.845C177.896 140.697 176.563 145.142 176.822 148.031L175.637 148.031L175.637 143.549C175.637 142.401 175.34 141.734 174.192 141.771C171.525 141.845 172.563 145.549 172.377 148.031L171.192 148.031L171.155 140.994L172.266 140.994C172.303 141.364 172.229 141.882 172.34 142.179C172.748 141.364 173.414 140.882 174.6 140.845" fill="#333333" fill-rule="nonzero" opacity="1" stroke="none"/>
<path d="M179.859 146.29C179.785 147.179 180.525 147.364 181.266 147.105L181.266 147.994C180.044 148.364 178.674 148.179 178.674 146.549L178.674 141.845L177.859 141.845L177.859 140.994L178.748 140.994L179.081 139.401L179.859 139.401L179.859 140.994L181.155 140.994L181.155 141.845L179.859 141.845L179.859 146.29" fill="#333333" fill-rule="nonzero" opacity="1" stroke="none"/>
<path d="M186.6 146.697C186.044 147.475 185.451 148.216 184.081 148.179C182.748 148.142 181.933 147.401 181.933 146.068C181.896 143.697 184.266 143.734 186.563 143.734C186.674 142.438 186.229 141.734 185.044 141.734C184.155 141.771 183.525 141.994 183.488 142.882L182.266 142.771C182.451 141.401 183.488 140.845 185.081 140.845C186.748 140.845 187.748 141.586 187.748 143.216L187.748 146.253C187.711 146.994 188.007 147.438 188.785 147.253L188.785 147.994C187.637 148.327 186.525 147.92 186.6 146.697ZM183.155 146.068C183.155 146.808 183.6 147.29 184.34 147.29C185.859 147.179 186.674 146.216 186.563 144.549C184.97 144.623 183.155 144.364 183.155 146.068" fill="#333333" fill-rule="nonzero" opacity="1" stroke="none"/>
<path d="M189.674 139.475L189.674 138.364L190.859 138.364L190.859 139.475L189.674 139.475ZM189.674 148.031L189.674 140.994L190.859 140.994L190.859 148.031L189.674 148.031" fill="#333333" fill-rule="nonzero" opacity="1" stroke="none"/>
<path d="M196.044 140.845C199.34 140.697 198.007 145.142 198.266 148.031L197.081 148.031L197.081 143.549C197.081 142.401 196.785 141.734 195.637 141.771C192.97 141.845 194.007 145.549 193.822 148.031L192.637 148.031L192.6 140.994L193.711 140.994C193.748 141.364 193.674 141.882 193.785 142.179C194.192 141.364 194.859 140.882 196.044 140.845" fill="#333333" fill-rule="nonzero" opacity="1" stroke="none"/>
<path d="M204.118 142.734C204.007 141.475 200.933 141.327 200.896 142.734C201.451 144.697 205.155 143.179 205.303 146.068C205.451 148.957 199.748 148.808 199.488 146.364L200.525 146.179C200.674 147.512 204.118 147.845 204.155 146.179C203.785 144.105 199.97 145.623 199.785 142.845C199.637 140.734 202.822 140.512 204.303 141.29C204.748 141.549 205.081 141.994 205.192 142.586" fill="#333333" fill-rule="nonzero" opacity="1" stroke="none"/>
</g>
<path d="M326.883 128.344C340.103 128.344 350.813 141.344 350.813 157.364C350.813 173.394 340.113 186.384 326.883 186.384L255.083 186.384C241.883 186.384 231.153 173.384 231.153 157.364C231.153 141.334 241.873 128.344 255.083 128.344L326.883 128.344Z" fill="#ffffff" fill-rule="nonzero" opacity="1" stroke="#5e5e5e" stroke-linecap="butt" stroke-linejoin="miter" stroke-width="1"/>
<g opacity="1">
<path d="M248.858 153.064C247.377 153.064 247.08 154.286 247.08 155.768C247.08 157.249 247.414 158.546 248.858 158.546C249.747 158.546 250.377 158.027 250.451 157.138L251.636 157.212C251.414 158.583 250.488 159.472 248.895 159.472C246.71 159.472 246.08 157.953 245.858 155.805C245.488 152.361 249.599 150.953 251.302 153.435C251.451 153.694 251.488 153.953 251.562 154.249L250.377 154.361C250.228 153.583 249.784 153.064 248.858 153.064" fill="#333333" fill-rule="nonzero" opacity="1" stroke="none"/>
<path d="M256.191 153.286C253.302 152.694 254.228 156.657 254.08 159.324L252.895 159.324L252.858 152.286L253.969 152.286C254.006 152.731 253.932 153.361 254.043 153.731C254.265 152.731 254.895 151.916 256.191 152.212L256.191 153.286" fill="#333333" fill-rule="nonzero" opacity="1" stroke="none"/>
<path d="M264.154 153.064C261.673 153.175 262.747 156.953 262.525 159.324L261.376 159.324L261.376 154.842C261.376 153.768 261.191 152.99 260.08 153.064C257.636 153.212 258.673 156.916 258.451 159.324L257.302 159.324L257.265 152.286L258.376 152.286C258.414 152.657 258.339 153.175 258.451 153.472C258.821 151.842 262.117 151.62 262.414 153.472C262.821 152.694 263.414 152.175 264.562 152.138C267.71 152.064 266.302 156.546 266.599 159.324L265.451 159.324L265.451 154.842C265.451 153.768 265.265 153.027 264.154 153.064" fill="#333333" fill-rule="nonzero" opacity="1" stroke="none"/>
<path d="M268.673 153.62L268.673 152.286L269.932 152.286L269.932 153.62L268.673 153.62ZM268.673 159.324L268.673 157.99L269.932 157.99L269.932 159.324L268.673 159.324" fill="#333333" fill-rule="nonzero" opacity="1" stroke="none"/>
<path d="M272.265 159.324L272.265 150.138L279.191 150.138L279.191 151.175L273.488 151.175L273.488 154.101L278.821 154.101L278.821 155.101L273.488 155.101L273.488 158.324L279.488 158.324L279.488 159.324L272.265 159.324" fill="#333333" fill-rule="nonzero" opacity="1" stroke="none"/>
<path d="M282.414 159.324C282.525 155.694 284.191 153.435 285.673 151.138L280.71 151.138L280.71 150.138L286.784 150.138L286.784 151.101C285.339 153.509 283.673 155.583 283.636 159.324L282.414 159.324" fill="#333333" fill-rule="nonzero" opacity="1" stroke="none"/>
<path d="M287.265 161.99L287.265 161.138L295.006 161.138L295.006 161.99L287.265 161.99" fill="#333333" fill-rule="nonzero" opacity="1" stroke="none"/>
<path d="M302.451 159.324L301.414 156.657L297.228 156.657L296.191 159.324L294.895 159.324L298.636 150.138L300.043 150.138L303.71 159.324L302.451 159.324ZM301.043 155.657L299.302 151.101C298.858 152.768 298.154 154.138 297.599 155.657L301.043 155.657" fill="#333333" fill-rule="nonzero" opacity="1" stroke="none"/>
<path d="M307.302 153.064C305.821 153.064 305.525 154.286 305.525 155.768C305.525 157.249 305.858 158.546 307.302 158.546C308.191 158.546 308.821 158.027 308.895 157.138L310.08 157.212C309.858 158.583 308.932 159.472 307.339 159.472C305.154 159.472 304.525 157.953 304.302 155.805C303.932 152.361 308.043 150.953 309.747 153.435C309.895 153.694 309.932 153.953 310.006 154.249L308.821 154.361C308.673 153.583 308.228 153.064 307.302 153.064" fill="#333333" fill-rule="nonzero" opacity="1" stroke="none"/>
<path d="M312.599 157.583C312.525 158.472 313.265 158.657 314.006 158.398L314.006 159.286C312.784 159.657 311.414 159.472 311.414 157.842L311.414 153.138L310.599 153.138L310.599 152.286L311.488 152.286L311.821 150.694L312.599 150.694L312.599 152.286L313.895 152.286L313.895 153.138L312.599 153.138L312.599 157.583" fill="#333333" fill-rule="nonzero" opacity="1" stroke="none"/>
<path d="M315.006 150.768L315.006 149.657L316.191 149.657L316.191 150.768L315.006 150.768ZM315.006 159.324L315.006 152.286L316.191 152.286L316.191 159.324L315.006 159.324" fill="#333333" fill-rule="nonzero" opacity="1" stroke="none"/>
<path d="M321.043 159.324L319.636 159.324L317.08 152.286L318.339 152.286L320.339 158.398L322.414 152.286L323.673 152.286" fill="#333333" fill-rule="nonzero" opacity="1" stroke="none"/>
<path d="M324.599 150.768L324.599 149.657L325.784 149.657L325.784 150.768L324.599 150.768ZM324.599 159.324L324.599 152.286L325.784 152.286L325.784 159.324L324.599 159.324" fill="#333333" fill-rule="nonzero" opacity="1" stroke="none"/>
<path d="M328.821 157.583C328.747 158.472 329.488 158.657 330.228 158.398L330.228 159.286C329.006 159.657 327.636 159.472 327.636 157.842L327.636 153.138L326.821 153.138L326.821 152.286L327.71 152.286L328.043 150.694L328.821 150.694L328.821 152.286L330.117 152.286L330.117 153.138L328.821 153.138L328.821 157.583" fill="#333333" fill-rule="nonzero" opacity="1" stroke="none"/>
<path d="M336.969 152.286L333.784 160.472C333.265 161.509 332.414 162.361 330.784 162.027L330.784 161.138C332.228 161.361 332.747 160.398 333.154 159.286L330.377 152.286L331.636 152.286L333.747 158.064L335.747 152.286L336.969 152.286" fill="#333333" fill-rule="nonzero" opacity="1" stroke="none"/>
</g>
<path d="M351.813 157.364L473.933 157.364" fill="none" opacity="1" stroke="#5e5e5e" stroke-linecap="butt" stroke-linejoin="miter" stroke-width="1"/>
<path d="M351.813 157.864L351.273 157.864L351.313 157.384L351.313 156.864L351.813 156.864L351.813 157.864Z" fill="#5e5e5e" fill-rule="nonzero" opacity="1" stroke="#5e5e5e" stroke-linecap="butt" stroke-linejoin="miter" stroke-width="0.05"/>
<path d="M488.693 157.364L474.433 161.994L474.433 152.724L488.693 157.364Z" fill="#5e5e5e" fill-rule="nonzero" opacity="1" stroke="#5e5e5e" stroke-linecap="butt" stroke-linejoin="miter" stroke-width="1"/>
<g opacity="1">
<path d="M375.577 125.771C374.095 125.771 373.799 126.994 373.799 128.475C373.799 129.957 374.132 131.253 375.577 131.253C376.466 131.253 377.095 130.734 377.169 129.845L378.355 129.92C378.132 131.29 377.206 132.179 375.614 132.179C373.429 132.179 372.799 130.66 372.577 128.512C372.206 125.068 376.318 123.66 378.021 126.142C378.169 126.401 378.206 126.66 378.281 126.957L377.095 127.068C376.947 126.29 376.503 125.771 375.577 125.771" fill="#333333" fill-rule="nonzero" opacity="1" stroke="none"/>
<path d="M382.91 125.994C380.021 125.401 380.947 129.364 380.799 132.031L379.614 132.031L379.577 124.994L380.688 124.994C380.725 125.438 380.651 126.068 380.762 126.438C380.984 125.438 381.614 124.623 382.91 124.92L382.91 125.994" fill="#333333" fill-rule="nonzero" opacity="1" stroke="none"/>
<path d="M390.873 125.771C388.392 125.882 389.466 129.66 389.244 132.031L388.095 132.031L388.095 127.549C388.095 126.475 387.91 125.697 386.799 125.771C384.355 125.92 385.392 129.623 385.169 132.031L384.021 132.031L383.984 124.994L385.095 124.994C385.132 125.364 385.058 125.882 385.169 126.179C385.54 124.549 388.836 124.327 389.132 126.179C389.54 125.401 390.132 124.882 391.281 124.845C394.429 124.771 393.021 129.253 393.318 132.031L392.169 132.031L392.169 127.549C392.169 126.475 391.984 125.734 390.873 125.771" fill="#333333" fill-rule="nonzero" opacity="1" stroke="none"/>
<path d="M395.392 126.327L395.392 124.994L396.651 124.994L396.651 126.327L395.392 126.327ZM395.392 132.031L395.392 130.697L396.651 130.697L396.651 132.031L395.392 132.031" fill="#333333" fill-rule="nonzero" opacity="1" stroke="none"/>
<path d="M398.984 122.845C402.206 122.882 406.058 122.29 406.058 125.623C406.058 128.512 403.206 128.586 400.206 128.438L400.206 132.031L398.984 132.031L398.984 122.845ZM400.206 127.475C402.318 127.475 404.799 127.882 404.799 125.623C404.799 123.438 402.281 123.882 400.206 123.845L400.206 127.475" fill="#333333" fill-rule="nonzero" opacity="1" stroke="none"/>
<path d="M407.762 132.031L407.762 131.031L410.132 131.031L410.132 123.994L408.058 125.438L408.058 124.364L410.206 122.845L411.281 122.845L411.281 131.031L413.54 131.031L413.54 132.031L407.762 132.031" fill="#333333" fill-rule="nonzero" opacity="1" stroke="none"/>
<path d="M419.91 129.957L419.91 132.031L418.799 132.031L418.799 129.957L414.466 129.957L414.466 129.031L418.688 122.845L419.91 122.845L419.91 129.031L421.206 129.031L421.206 129.957L419.91 129.957ZM418.799 124.179C417.799 125.882 416.651 127.512 415.54 129.031L418.799 129.031L418.799 124.179" fill="#333333" fill-rule="nonzero" opacity="1" stroke="none"/>
<path d="M421.392 134.697L421.392 133.845L429.132 133.845L429.132 134.697L421.392 134.697" fill="#333333" fill-rule="nonzero" opacity="1" stroke="none"/>
<path d="M432.54 125.771C431.058 125.771 430.762 126.994 430.762 128.475C430.762 129.957 431.095 131.253 432.54 131.253C433.429 131.253 434.058 130.734 434.132 129.845L435.318 129.92C435.095 131.29 434.169 132.179 432.577 132.179C430.392 132.179 429.762 130.66 429.54 128.512C429.169 125.068 433.281 123.66 434.984 126.142C435.132 126.401 435.169 126.66 435.244 126.957L434.058 127.068C433.91 126.29 433.466 125.771 432.54 125.771" fill="#333333" fill-rule="nonzero" opacity="1" stroke="none"/>
<path d="M440.873 130.697C440.318 131.475 439.725 132.216 438.355 132.179C437.021 132.142 436.206 131.401 436.206 130.068C436.169 127.697 438.54 127.734 440.836 127.734C440.947 126.438 440.503 125.734 439.318 125.734C438.429 125.771 437.799 125.994 437.762 126.882L436.54 126.771C436.725 125.401 437.762 124.845 439.355 124.845C441.021 124.845 442.021 125.586 442.021 127.216L442.021 130.253C441.984 130.994 442.281 131.438 443.058 131.253L443.058 131.994C441.91 132.327 440.799 131.92 440.873 130.697ZM437.429 130.068C437.429 130.808 437.873 131.29 438.614 131.29C440.132 131.179 440.947 130.216 440.836 128.549C439.244 128.623 437.429 128.364 437.429 130.068" fill="#333333" fill-rule="nonzero" opacity="1" stroke="none"/>
<path d="M447.281 125.994C444.392 125.401 445.318 129.364 445.169 132.031L443.984 132.031L443.947 124.994L445.058 124.994C445.095 125.438 445.021 126.068 445.132 126.438C445.355 125.438 445.984 124.623 447.281 124.92L447.281 125.994" fill="#333333" fill-rule="nonzero" opacity="1" stroke="none"/>
<path d="M451.688 125.994C448.799 125.401 449.725 129.364 449.577 132.031L448.392 132.031L448.355 124.994L449.466 124.994C449.503 125.438 449.429 126.068 449.54 126.438C449.762 125.438 450.392 124.623 451.688 124.92L451.688 125.994" fill="#333333" fill-rule="nonzero" opacity="1" stroke="none"/>
<path d="M452.762 123.475L452.762 122.364L453.947 122.364L453.947 123.475L452.762 123.475ZM452.762 132.031L452.762 124.994L453.947 124.994L453.947 132.031L452.762 132.031" fill="#333333" fill-rule="nonzero" opacity="1" stroke="none"/>
<path d="M458.503 124.845C460.836 124.845 461.688 126.401 461.614 128.771L456.614 128.771C456.614 130.253 457.132 131.253 458.577 131.29C459.54 131.327 460.169 130.845 460.392 130.216L461.429 130.512C461.021 131.549 460.058 132.179 458.577 132.179C456.429 132.179 455.318 130.808 455.355 128.475C455.392 126.216 456.318 124.845 458.503 124.845ZM460.429 127.845C460.651 125.623 457.614 124.994 456.836 126.808C456.725 127.068 456.614 127.438 456.614 127.845L460.429 127.845" fill="#333333" fill-rule="nonzero" opacity="1" stroke="none"/>
<path d="M465.355 124.845C466.503 124.845 467.132 125.327 467.577 126.068L467.54 122.364L468.725 122.364L468.762 132.031L467.651 132.031C467.577 131.66 467.651 131.179 467.54 130.882C467.169 131.734 466.503 132.179 465.355 132.179C463.392 132.179 462.799 130.734 462.762 128.549C462.762 126.105 463.614 124.845 465.355 124.845ZM465.688 125.734C464.206 125.734 463.984 126.994 463.984 128.512C463.984 129.994 464.206 131.253 465.651 131.253C467.206 131.253 467.54 130.068 467.54 128.438C467.54 126.882 467.206 125.697 465.688 125.734" fill="#333333" fill-rule="nonzero" opacity="1" stroke="none"/>
</g>
<g opacity="1">
<path d="M396.929 150.697L396.929 149.845L404.669 149.845L404.669 150.697L396.929 150.697" fill="#333333" fill-rule="nonzero" opacity="1" stroke="none"/>
<path d="M408.225 140.845C410.521 140.808 411.373 142.216 411.373 144.512C411.41 146.845 410.373 148.179 408.188 148.179C406.003 148.179 405.114 146.734 405.077 144.512C405.077 142.068 406.114 140.845 408.225 140.845ZM408.188 147.29C409.818 147.327 410.151 146.142 410.151 144.512C410.151 142.92 409.855 141.734 408.262 141.734C406.669 141.734 406.299 142.92 406.299 144.512C406.299 146.105 406.669 147.253 408.188 147.29" fill="#333333" fill-rule="nonzero" opacity="1" stroke="none"/>
<path d="M415.04 148.179C411.744 148.327 413.04 143.882 412.781 140.994L413.966 140.994L413.966 145.438C413.966 146.586 414.225 147.29 415.41 147.253C418.077 147.179 417.077 143.512 417.262 140.994L418.41 140.994L418.447 148.031L417.336 148.031C417.299 147.66 417.373 147.105 417.262 146.808C416.855 147.623 416.225 148.142 415.04 148.179" fill="#333333" fill-rule="nonzero" opacity="1" stroke="none"/>
<path d="M421.521 146.29C421.447 147.179 422.188 147.364 422.929 147.105L422.929 147.994C421.706 148.364 420.336 148.179 420.336 146.549L420.336 141.845L419.521 141.845L419.521 140.994L420.41 140.994L420.744 139.401L421.521 139.401L421.521 140.994L422.818 140.994L422.818 141.845L421.521 141.845L421.521 146.29" fill="#333333" fill-rule="nonzero" opacity="1" stroke="none"/>
<path d="M422.855 150.697L422.855 149.845L430.595 149.845L430.595 150.697L422.855 150.697" fill="#333333" fill-rule="nonzero" opacity="1" stroke="none"/>
<path d="M434.706 140.845C436.669 140.845 437.262 142.29 437.299 144.475C437.299 146.92 436.447 148.179 434.706 148.179C433.558 148.142 432.892 147.771 432.521 146.92L432.447 148.031L431.299 148.031L431.336 138.364L432.521 138.364L432.521 142.105C432.892 141.253 433.558 140.845 434.706 140.845ZM434.41 147.29C435.892 147.29 436.077 146.031 436.077 144.512C436.077 143.031 435.892 141.734 434.41 141.771C432.855 141.771 432.521 142.957 432.521 144.586C432.521 146.179 432.892 147.29 434.41 147.29" fill="#333333" fill-rule="nonzero" opacity="1" stroke="none"/>
<path d="M444.484 140.994L441.299 149.179C440.781 150.216 439.929 151.068 438.299 150.734L438.299 149.845C439.744 150.068 440.262 149.105 440.669 147.994L437.892 140.994L439.151 140.994L441.262 146.771L443.262 140.994L444.484 140.994" fill="#333333" fill-rule="nonzero" opacity="1" stroke="none"/>
</g>
<path d="M328.633 8.34436C342.493 8.34436 353.733 21.7744 353.733 38.3444C353.733 54.9144 342.493 68.3444 328.633 68.3444L253.333 68.3444C239.483 68.3444 228.233 54.9144 228.233 38.3444C228.233 21.7744 239.483 8.34436 253.333 8.34436L328.633 8.34436Z" fill="#ffffff" fill-rule="nonzero" opacity="1" stroke="#5e5e5e" stroke-linecap="butt" stroke-linejoin="miter" stroke-width="1"/>
<g opacity="1">
<path d="M235.149 34.7518C233.667 34.7518 233.371 35.974 233.371 37.4555C233.371 38.9369 233.704 40.2332 235.149 40.2332C236.038 40.2332 236.667 39.7147 236.741 38.8258L237.927 38.8999C237.704 40.2703 236.779 41.1592 235.186 41.1592C233.001 41.1592 232.371 39.6407 232.149 37.4925C231.779 34.0481 235.89 32.6407 237.593 35.1221C237.741 35.3814 237.779 35.6407 237.853 35.9369L236.667 36.0481C236.519 35.2703 236.075 34.7518 235.149 34.7518" fill="#333333" fill-rule="nonzero" opacity="1" stroke="none"/>
<path d="M242.482 34.974C239.593 34.3814 240.519 38.3444 240.371 41.011L239.186 41.011L239.149 33.974L240.26 33.974C240.297 34.4184 240.223 35.0481 240.334 35.4184C240.556 34.4184 241.186 33.6036 242.482 33.8999L242.482 34.974" fill="#333333" fill-rule="nonzero" opacity="1" stroke="none"/>
<path d="M250.445 34.7518C247.964 34.8629 249.038 38.6407 248.816 41.011L247.667 41.011L247.667 36.5295C247.667 35.4555 247.482 34.6777 246.371 34.7518C243.927 34.8999 244.964 38.6036 244.741 41.011L243.593 41.011L243.556 33.974L244.667 33.974C244.704 34.3444 244.63 34.8629 244.741 35.1592C245.112 33.5295 248.408 33.3073 248.704 35.1592C249.112 34.3814 249.704 33.8629 250.853 33.8258C254.001 33.7518 252.593 38.2332 252.89 41.011L251.741 41.011L251.741 36.5295C251.741 35.4555 251.556 34.7147 250.445 34.7518" fill="#333333" fill-rule="nonzero" opacity="1" stroke="none"/>
<path d="M254.964 35.3073L254.964 33.974L256.223 33.974L256.223 35.3073L254.964 35.3073ZM254.964 41.011L254.964 39.6777L256.223 39.6777L256.223 41.011L254.964 41.011" fill="#333333" fill-rule="nonzero" opacity="1" stroke="none"/>
<path d="M258.556 41.011L258.556 31.8258L265.482 31.8258L265.482 32.8629L259.779 32.8629L259.779 35.7888L265.112 35.7888L265.112 36.7888L259.779 36.7888L259.779 40.011L265.779 40.011L265.779 41.011L258.556 41.011" fill="#333333" fill-rule="nonzero" opacity="1" stroke="none"/>
<path d="M268.334 35.7518C270.112 34.4555 273.408 35.4555 273.186 38.011C273.593 41.6777 267.482 42.2332 266.853 38.974L268.038 38.8258C268.297 39.6777 268.853 40.1962 269.964 40.1962C271.26 40.1592 271.853 39.3814 271.964 38.0481C272.112 36.011 269.26 35.6407 268.297 36.7888L267.149 36.7888L267.445 31.8258L272.667 31.8258L272.667 32.8258L268.519 32.8258" fill="#333333" fill-rule="nonzero" opacity="1" stroke="none"/>
<path d="M277.482 31.7147C280.519 31.4555 280.927 34.9369 279.075 36.6036L276.779 38.6407C276.371 39.0481 275.927 39.4555 275.704 40.011L280.482 40.011L280.482 41.011L274.408 41.011C274.482 37.3444 279.149 37.5295 279.149 34.2703C279.149 33.2332 278.556 32.6777 277.482 32.6777C276.408 32.6777 275.779 33.2332 275.667 34.1962L274.482 34.0851C274.704 32.5666 275.741 31.8629 277.482 31.7147" fill="#333333" fill-rule="nonzero" opacity="1" stroke="none"/>
<path d="M280.964 43.6777L280.964 42.8258L288.704 42.8258L288.704 43.6777L280.964 43.6777" fill="#333333" fill-rule="nonzero" opacity="1" stroke="none"/>
<path d="M293.26 32.8629L293.26 41.011L292.001 41.011L292.001 32.8629L288.853 32.8629L288.853 31.8258L296.408 31.8258L296.408 32.8629L293.26 32.8629" fill="#333333" fill-rule="nonzero" opacity="1" stroke="none"/>
<path d="M297.075 32.4555L297.075 31.3444L298.26 31.3444L298.26 32.4555L297.075 32.4555ZM297.075 41.011L297.075 33.974L298.26 33.974L298.26 41.011L297.075 41.011" fill="#333333" fill-rule="nonzero" opacity="1" stroke="none"/>
<path d="M306.89 34.7518C304.408 34.8629 305.482 38.6407 305.26 41.011L304.112 41.011L304.112 36.5295C304.112 35.4555 303.927 34.6777 302.816 34.7518C300.371 34.8999 301.408 38.6036 301.186 41.011L300.038 41.011L300.001 33.974L301.112 33.974C301.149 34.3444 301.075 34.8629 301.186 35.1592C301.556 33.5295 304.853 33.3073 305.149 35.1592C305.556 34.3814 306.149 33.8629 307.297 33.8258C310.445 33.7518 309.038 38.2332 309.334 41.011L308.186 41.011L308.186 36.5295C308.186 35.4555 308.001 34.7147 306.89 34.7518" fill="#333333" fill-rule="nonzero" opacity="1" stroke="none"/>
<path d="M313.89 33.8258C316.223 33.8258 317.075 35.3814 317.001 37.7518L312.001 37.7518C312.001 39.2332 312.519 40.2332 313.964 40.2703C314.927 40.3073 315.556 39.8258 315.779 39.1962L316.816 39.4925C316.408 40.5295 315.445 41.1592 313.964 41.1592C311.816 41.1592 310.704 39.7888 310.741 37.4555C310.779 35.1962 311.704 33.8258 313.89 33.8258ZM315.816 36.8258C316.038 34.6036 313.001 33.974 312.223 35.7888C312.112 36.0481 312.001 36.4184 312.001 36.8258L315.816 36.8258" fill="#333333" fill-rule="nonzero" opacity="1" stroke="none"/>
<path d="M318.186 37.974L318.186 36.9369L321.445 36.9369L321.445 37.974L318.186 37.974" fill="#333333" fill-rule="nonzero" opacity="1" stroke="none"/>
<path d="M327.001 35.7147C326.89 34.4555 323.816 34.3073 323.779 35.7147C324.334 37.6777 328.038 36.1592 328.186 39.0481C328.334 41.9369 322.63 41.7888 322.371 39.3444L323.408 39.1592C323.556 40.4925 327.001 40.8258 327.038 39.1592C326.667 37.0851 322.853 38.6036 322.667 35.8258C322.519 33.7147 325.704 33.4925 327.186 34.2703C327.63 34.5295 327.964 34.974 328.075 35.5666" fill="#333333" fill-rule="nonzero" opacity="1" stroke="none"/>
<path d="M332.927 33.8258C334.964 33.8629 335.519 35.3444 335.519 37.4555C335.519 39.5666 334.927 41.0851 332.927 41.1592C331.779 41.1592 331.112 40.6777 330.704 39.8999L330.741 43.7888L329.556 43.7888L329.519 33.974L330.667 33.974L330.741 35.0851C331.112 34.3073 331.779 33.8258 332.927 33.8258ZM332.63 40.2703C334.112 40.2703 334.297 39.011 334.297 37.4925C334.297 35.974 334.075 34.7888 332.63 34.7518C331.075 34.7518 330.741 35.9369 330.741 37.5666C330.741 39.1592 331.112 40.2703 332.63 40.2703" fill="#333333" fill-rule="nonzero" opacity="1" stroke="none"/>
<path d="M341.297 39.6777C340.741 40.4555 340.149 41.1962 338.779 41.1592C337.445 41.1221 336.63 40.3814 336.63 39.0481C336.593 36.6777 338.964 36.7147 341.26 36.7147C341.371 35.4184 340.927 34.7147 339.741 34.7147C338.853 34.7518 338.223 34.974 338.186 35.8629L336.964 35.7518C337.149 34.3814 338.186 33.8258 339.779 33.8258C341.445 33.8258 342.445 34.5666 342.445 36.1962L342.445 39.2332C342.408 39.974 342.704 40.4184 343.482 40.2332L343.482 40.974C342.334 41.3073 341.223 40.8999 341.297 39.6777ZM337.853 39.0481C337.853 39.7888 338.297 40.2703 339.038 40.2703C340.556 40.1592 341.371 39.1962 341.26 37.5295C339.667 37.6036 337.853 37.3444 337.853 39.0481" fill="#333333" fill-rule="nonzero" opacity="1" stroke="none"/>
<path d="M347.816 33.8258C351.112 33.6777 349.779 38.1221 350.038 41.011L348.853 41.011L348.853 36.5295C348.853 35.3814 348.556 34.7147 347.408 34.7518C344.741 34.8258 345.779 38.5295 345.593 41.011L344.408 41.011L344.371 33.974L345.482 33.974C345.519 34.3444 345.445 34.8629 345.556 35.1592C345.964 34.3444 346.63 33.8629 347.816 33.8258" fill="#333333" fill-rule="nonzero" opacity="1" stroke="none"/>
</g>
<path d="M291.483 127.344L290.483 127.344L290.483 109.624L291.483 109.624L291.483 127.344ZM291.483 93.6244L290.483 93.6244L290.483 85.2244L291.483 85.2244L291.483 93.6244Z" fill="#5e5e5e" fill-rule="nonzero" opacity="1" stroke="#5e5e5e" stroke-linecap="butt" stroke-linejoin="miter" stroke-width="0.05"/>
<path d="M291.483 127.844L290.483 127.844L290.483 127.344L291.483 127.344L291.483 127.844Z" fill="#5e5e5e" fill-rule="nonzero" opacity="1" stroke="none"/>
<path d="M291.513 127.864L290.463 127.864L290.463 127.304L291.513 127.304L291.513 127.864ZM290.513 127.364L290.513 127.824L291.463 127.824L291.463 127.344L290.513 127.364Z" fill="#5e5e5e" fill-rule="nonzero" opacity="1" stroke="#5e5e5e" stroke-linecap="butt" stroke-linejoin="miter" stroke-width="0.05"/>
<path d="M295.613 84.7444L286.353 84.7444L290.983 70.4644L295.613 84.7444Z" fill="#5e5e5e" fill-rule="nonzero" opacity="1" stroke="none"/>
<path d="M296.313 85.2444L285.663 85.2444L290.983 68.8444L296.313 85.2444ZM287.033 84.2444L294.933 84.2444L290.983 72.0844L287.033 84.2444Z" fill="#5e5e5e" fill-rule="nonzero" opacity="1" stroke="#5e5e5e" stroke-linecap="butt" stroke-linejoin="miter" stroke-width="0.05"/>
<g opacity="1">
<path d="M226.118 98.0283C224.637 98.0283 224.34 99.2505 224.34 100.732C224.34 102.213 224.674 103.51 226.118 103.51C227.007 103.51 227.637 102.991 227.711 102.102L228.896 102.176C228.674 103.547 227.748 104.436 226.155 104.436C223.97 104.436 223.34 102.917 223.118 100.769C222.748 97.3246 226.859 95.9171 228.563 98.3986C228.711 98.6579 228.748 98.9171 228.822 99.2134L227.637 99.3246C227.488 98.5468 227.044 98.0283 226.118 98.0283" fill="#333333" fill-rule="nonzero" opacity="1" stroke="none"/>
<path d="M233.451 98.2505C230.563 97.6579 231.488 101.621 231.34 104.288L230.155 104.288L230.118 97.2505L231.229 97.2505C231.266 97.6949 231.192 98.3246 231.303 98.6949C231.525 97.6949 232.155 96.8801 233.451 97.1764L233.451 98.2505" fill="#333333" fill-rule="nonzero" opacity="1" stroke="none"/>
<path d="M241.414 98.0283C238.933 98.1394 240.007 101.917 239.785 104.288L238.637 104.288L238.637 99.806C238.637 98.732 238.451 97.9542 237.34 98.0283C234.896 98.1764 235.933 101.88 235.711 104.288L234.563 104.288L234.525 97.2505L235.637 97.2505C235.674 97.6208 235.6 98.1394 235.711 98.4357C236.081 96.806 239.377 96.5838 239.674 98.4357C240.081 97.6579 240.674 97.1394 241.822 97.1023C244.97 97.0283 243.563 101.51 243.859 104.288L242.711 104.288L242.711 99.806C242.711 98.732 242.525 97.9912 241.414 98.0283" fill="#333333" fill-rule="nonzero" opacity="1" stroke="none"/>
<path d="M245.933 98.5838L245.933 97.2505L247.192 97.2505L247.192 98.5838L245.933 98.5838ZM245.933 104.288L245.933 102.954L247.192 102.954L247.192 104.288L245.933 104.288" fill="#333333" fill-rule="nonzero" opacity="1" stroke="none"/>
<path d="M249.525 95.1023C252.748 95.1394 256.6 94.5468 256.6 97.8801C256.6 100.769 253.748 100.843 250.748 100.695L250.748 104.288L249.525 104.288L249.525 95.1023ZM250.748 99.732C252.859 99.732 255.34 100.139 255.34 97.8801C255.34 95.6949 252.822 96.1394 250.748 96.1023L250.748 99.732" fill="#333333" fill-rule="nonzero" opacity="1" stroke="none"/>
<path d="M263.044 102.213L263.044 104.288L261.933 104.288L261.933 102.213L257.6 102.213L257.6 101.288L261.822 95.1023L263.044 95.1023L263.044 101.288L264.34 101.288L264.34 102.213L263.044 102.213ZM261.933 96.4357C260.933 98.1394 259.785 99.769 258.674 101.288L261.933 101.288L261.933 96.4357" fill="#333333" fill-rule="nonzero" opacity="1" stroke="none"/>
<path d="M264.525 106.954L264.525 106.102L272.266 106.102L272.266 106.954L264.525 106.954" fill="#333333" fill-rule="nonzero" opacity="1" stroke="none"/>
<path d="M276.044 98.0283C273.377 98.0283 274.414 101.806 274.229 104.288L273.044 104.288L273.044 94.6208L274.229 94.6208L274.192 98.4357C274.637 97.6579 275.229 97.1023 276.451 97.1023C279.748 97.1023 278.414 101.399 278.674 104.288L277.488 104.288L277.488 99.806C277.563 98.6208 277.192 97.9912 276.044 98.0283" fill="#333333" fill-rule="nonzero" opacity="1" stroke="none"/>
<path d="M284.748 102.954C284.192 103.732 283.6 104.473 282.229 104.436C280.896 104.399 280.081 103.658 280.081 102.325C280.044 99.9542 282.414 99.9912 284.711 99.9912C284.822 98.6949 284.377 97.9912 283.192 97.9912C282.303 98.0283 281.674 98.2505 281.637 99.1394L280.414 99.0283C280.6 97.6579 281.637 97.1023 283.229 97.1023C284.896 97.1023 285.896 97.8431 285.896 99.4727L285.896 102.51C285.859 103.25 286.155 103.695 286.933 103.51L286.933 104.25C285.785 104.584 284.674 104.176 284.748 102.954ZM281.303 102.325C281.303 103.065 281.748 103.547 282.488 103.547C284.007 103.436 284.822 102.473 284.711 100.806C283.118 100.88 281.303 100.621 281.303 102.325" fill="#333333" fill-rule="nonzero" opacity="1" stroke="none"/>
<path d="M291.933 98.9912C291.822 97.732 288.748 97.5838 288.711 98.9912C289.266 100.954 292.97 99.4357 293.118 102.325C293.266 105.213 287.563 105.065 287.303 102.621L288.34 102.436C288.488 103.769 291.933 104.102 291.97 102.436C291.6 100.362 287.785 101.88 287.6 99.1023C287.451 96.9912 290.637 96.769 292.118 97.5468C292.563 97.806 292.896 98.2505 293.007 98.8431" fill="#333333" fill-rule="nonzero" opacity="1" stroke="none"/>
<path d="M293.414 106.954L293.414 106.102L301.155 106.102L301.155 106.954L293.414 106.954" fill="#333333" fill-rule="nonzero" opacity="1" stroke="none"/>
<path d="M303.192 102.547C303.118 103.436 303.859 103.621 304.6 103.362L304.6 104.25C303.377 104.621 302.007 104.436 302.007 102.806L302.007 98.1023L301.192 98.1023L301.192 97.2505L302.081 97.2505L302.414 95.6579L303.192 95.6579L303.192 97.2505L304.488 97.2505L304.488 98.1023L303.192 98.1023L303.192 102.547" fill="#333333" fill-rule="nonzero" opacity="1" stroke="none"/>
<path d="M305.6 95.732L305.6 94.6208L306.785 94.6208L306.785 95.732L305.6 95.732ZM305.6 104.288L305.6 97.2505L306.785 97.2505L306.785 104.288L305.6 104.288" fill="#333333" fill-rule="nonzero" opacity="1" stroke="none"/>
<path d="M315.414 98.0283C312.933 98.1394 314.007 101.917 313.785 104.288L312.637 104.288L312.637 99.806C312.637 98.732 312.451 97.9542 311.34 98.0283C308.896 98.1764 309.933 101.88 309.711 104.288L308.563 104.288L308.525 97.2505L309.637 97.2505C309.674 97.6208 309.6 98.1394 309.711 98.4357C310.081 96.806 313.377 96.5838 313.674 98.4357C314.081 97.6579 314.674 97.1394 315.822 97.1023C318.97 97.0283 317.563 101.51 317.859 104.288L316.711 104.288L316.711 99.806C316.711 98.732 316.525 97.9912 315.414 98.0283" fill="#333333" fill-rule="nonzero" opacity="1" stroke="none"/>
<path d="M322.414 97.1023C324.748 97.1023 325.6 98.6579 325.525 101.028L320.525 101.028C320.525 102.51 321.044 103.51 322.488 103.547C323.451 103.584 324.081 103.102 324.303 102.473L325.34 102.769C324.933 103.806 323.97 104.436 322.488 104.436C320.34 104.436 319.229 103.065 319.266 100.732C319.303 98.4727 320.229 97.1023 322.414 97.1023ZM324.34 100.102C324.563 97.8801 321.525 97.2505 320.748 99.0653C320.637 99.3246 320.525 99.6949 320.525 100.102L324.34 100.102" fill="#333333" fill-rule="nonzero" opacity="1" stroke="none"/>
<path d="M326.711 101.25L326.711 100.213L329.97 100.213L329.97 101.25L326.711 101.25" fill="#333333" fill-rule="nonzero" opacity="1" stroke="none"/>
<path d="M335.525 98.9912C335.414 97.732 332.34 97.5838 332.303 98.9912C332.859 100.954 336.563 99.4357 336.711 102.325C336.859 105.213 331.155 105.065 330.896 102.621L331.933 102.436C332.081 103.769 335.525 104.102 335.563 102.436C335.192 100.362 331.377 101.88 331.192 99.1023C331.044 96.9912 334.229 96.769 335.711 97.5468C336.155 97.806 336.488 98.2505 336.6 98.8431" fill="#333333" fill-rule="nonzero" opacity="1" stroke="none"/>
<path d="M341.451 97.1023C343.488 97.1394 344.044 98.6208 344.044 100.732C344.044 102.843 343.451 104.362 341.451 104.436C340.303 104.436 339.637 103.954 339.229 103.176L339.266 107.065L338.081 107.065L338.044 97.2505L339.192 97.2505L339.266 98.3616C339.637 97.5838 340.303 97.1023 341.451 97.1023ZM341.155 103.547C342.637 103.547 342.822 102.288 342.822 100.769C342.822 99.2505 342.6 98.0653 341.155 98.0283C339.6 98.0283 339.266 99.2134 339.266 100.843C339.266 102.436 339.637 103.547 341.155 103.547" fill="#333333" fill-rule="nonzero" opacity="1" stroke="none"/>
<path d="M349.822 102.954C349.266 103.732 348.674 104.473 347.303 104.436C345.97 104.399 345.155 103.658 345.155 102.325C345.118 99.9542 347.488 99.9912 349.785 99.9912C349.896 98.6949 349.451 97.9912 348.266 97.9912C347.377 98.0283 346.748 98.2505 346.711 99.1394L345.488 99.0283C345.674 97.6579 346.711 97.1023 348.303 97.1023C349.97 97.1023 350.97 97.8431 350.97 99.4727L350.97 102.51C350.933 103.25 351.229 103.695 352.007 103.51L352.007 104.25C350.859 104.584 349.748 104.176 349.822 102.954ZM346.377 102.325C346.377 103.065 346.822 103.547 347.563 103.547C349.081 103.436 349.896 102.473 349.785 100.806C348.192 100.88 346.377 100.621 346.377 102.325" fill="#333333" fill-rule="nonzero" opacity="1" stroke="none"/>
<path d="M356.34 97.1023C359.637 96.9542 358.303 101.399 358.563 104.288L357.377 104.288L357.377 99.806C357.377 98.6579 357.081 97.9912 355.933 98.0283C353.266 98.1023 354.303 101.806 354.118 104.288L352.933 104.288L352.896 97.2505L354.007 97.2505C354.044 97.6208 353.97 98.1394 354.081 98.4357C354.488 97.6208 355.155 97.1394 356.34 97.1023" fill="#333333" fill-rule="nonzero" opacity="1" stroke="none"/>
</g>
<path d="M326.543 246.384C339.743 246.384 350.473 259.384 350.473 275.404C350.473 291.434 339.753 304.424 326.543 304.424L254.743 304.424C241.523 304.424 230.813 291.424 230.813 275.404C230.813 259.374 241.513 246.384 254.743 246.384L326.543 246.384Z" fill="#ffffff" fill-rule="nonzero" opacity="1" stroke="#5e5e5e" stroke-linecap="butt" stroke-linejoin="miter" stroke-width="1"/>
<g opacity="1">
<path d="M251.461 271.104C249.979 271.104 249.683 272.326 249.683 273.807C249.683 275.289 250.016 276.585 251.461 276.585C252.35 276.585 252.979 276.066 253.053 275.178L254.239 275.252C254.016 276.622 253.09 277.511 251.498 277.511C249.313 277.511 248.683 275.992 248.461 273.844C248.09 270.4 252.201 268.992 253.905 271.474C254.053 271.733 254.09 271.992 254.164 272.289L252.979 272.4C252.831 271.622 252.387 271.104 251.461 271.104" fill="#333333" fill-rule="nonzero" opacity="1" stroke="none"/>
<path d="M258.794 271.326C255.905 270.733 256.831 274.696 256.683 277.363L255.498 277.363L255.461 270.326L256.572 270.326C256.609 270.77 256.535 271.4 256.646 271.77C256.868 270.77 257.498 269.955 258.794 270.252L258.794 271.326" fill="#333333" fill-rule="nonzero" opacity="1" stroke="none"/>
<path d="M266.757 271.104C264.276 271.215 265.35 274.992 265.127 277.363L263.979 277.363L263.979 272.881C263.979 271.807 263.794 271.029 262.683 271.104C260.239 271.252 261.276 274.955 261.053 277.363L259.905 277.363L259.868 270.326L260.979 270.326C261.016 270.696 260.942 271.215 261.053 271.511C261.424 269.881 264.72 269.659 265.016 271.511C265.424 270.733 266.016 270.215 267.164 270.178C270.313 270.104 268.905 274.585 269.201 277.363L268.053 277.363L268.053 272.881C268.053 271.807 267.868 271.066 266.757 271.104" fill="#333333" fill-rule="nonzero" opacity="1" stroke="none"/>
<path d="M271.276 271.659L271.276 270.326L272.535 270.326L272.535 271.659L271.276 271.659ZM271.276 277.363L271.276 276.029L272.535 276.029L272.535 277.363L271.276 277.363" fill="#333333" fill-rule="nonzero" opacity="1" stroke="none"/>
<path d="M274.868 277.363L274.868 268.178L281.794 268.178L281.794 269.215L276.09 269.215L276.09 272.141L281.424 272.141L281.424 273.141L276.09 273.141L276.09 276.363L282.09 276.363L282.09 277.363L274.868 277.363" fill="#333333" fill-rule="nonzero" opacity="1" stroke="none"/>
<path d="M284.646 272.104C286.424 270.807 289.72 271.807 289.498 274.363C289.905 278.029 283.794 278.585 283.164 275.326L284.35 275.178C284.609 276.029 285.164 276.548 286.276 276.548C287.572 276.511 288.164 275.733 288.276 274.4C288.424 272.363 285.572 271.992 284.609 273.141L283.461 273.141L283.757 268.178L288.979 268.178L288.979 269.178L284.831 269.178" fill="#333333" fill-rule="nonzero" opacity="1" stroke="none"/>
<path d="M292.053 272.104C293.831 270.807 297.127 271.807 296.905 274.363C297.313 278.029 291.201 278.585 290.572 275.326L291.757 275.178C292.016 276.029 292.572 276.548 293.683 276.548C294.979 276.511 295.572 275.733 295.683 274.4C295.831 272.363 292.979 271.992 292.016 273.141L290.868 273.141L291.164 268.178L296.387 268.178L296.387 269.178L292.239 269.178" fill="#333333" fill-rule="nonzero" opacity="1" stroke="none"/>
<path d="M297.276 280.029L297.276 279.178L305.016 279.178L305.016 280.029L297.276 280.029" fill="#333333" fill-rule="nonzero" opacity="1" stroke="none"/>
<path d="M309.572 269.215L309.572 277.363L308.313 277.363L308.313 269.215L305.164 269.215L305.164 268.178L312.72 268.178L312.72 269.215L309.572 269.215" fill="#333333" fill-rule="nonzero" opacity="1" stroke="none"/>
<path d="M318.868 270.326L315.683 278.511C315.164 279.548 314.313 280.4 312.683 280.066L312.683 279.178C314.127 279.4 314.646 278.437 315.053 277.326L312.276 270.326L313.535 270.326L315.646 276.104L317.646 270.326L318.868 270.326" fill="#333333" fill-rule="nonzero" opacity="1" stroke="none"/>
<path d="M323.164 270.178C325.201 270.215 325.757 271.696 325.757 273.807C325.757 275.918 325.164 277.437 323.164 277.511C322.016 277.511 321.35 277.029 320.942 276.252L320.979 280.141L319.794 280.141L319.757 270.326L320.905 270.326L320.979 271.437C321.35 270.659 322.016 270.178 323.164 270.178ZM322.868 276.622C324.35 276.622 324.535 275.363 324.535 273.844C324.535 272.326 324.313 271.141 322.868 271.104C321.313 271.104 320.979 272.289 320.979 273.918C320.979 275.511 321.35 276.622 322.868 276.622" fill="#333333" fill-rule="nonzero" opacity="1" stroke="none"/>
<path d="M330.016 270.178C332.35 270.178 333.201 271.733 333.127 274.104L328.127 274.104C328.127 275.585 328.646 276.585 330.09 276.622C331.053 276.659 331.683 276.178 331.905 275.548L332.942 275.844C332.535 276.881 331.572 277.511 330.09 277.511C327.942 277.511 326.831 276.141 326.868 273.807C326.905 271.548 327.831 270.178 330.016 270.178ZM331.942 273.178C332.164 270.955 329.127 270.326 328.35 272.141C328.239 272.4 328.127 272.77 328.127 273.178L331.942 273.178" fill="#333333" fill-rule="nonzero" opacity="1" stroke="none"/>
</g>
<path d="M291.483 229.494L290.483 229.494L290.483 219.244L291.483 219.244L291.483 229.494ZM291.483 203.234L290.483 203.234L290.483 187.374L291.483 187.374L291.483 203.234Z" fill="#5e5e5e" fill-rule="nonzero" opacity="1" stroke="#5e5e5e" stroke-linecap="butt" stroke-linejoin="miter" stroke-width="0.05"/>
<path d="M291.483 187.394L290.483 187.394L290.483 186.894L291.483 186.894L291.483 187.394Z" fill="#5e5e5e" fill-rule="nonzero" opacity="1" stroke="none"/>
<path d="M291.513 187.424L290.463 187.424L290.463 186.854L291.513 186.854L291.513 187.424ZM290.513 186.904L290.513 187.374L291.463 187.374L291.463 186.904L290.513 186.904Z" fill="#5e5e5e" fill-rule="nonzero" opacity="1" stroke="#5e5e5e" stroke-linecap="butt" stroke-linejoin="miter" stroke-width="0.05"/>
<path d="M290.983 244.264L286.353 230.004L295.623 230.004L290.983 244.264Z" fill="#5e5e5e" fill-rule="nonzero" opacity="1" stroke="none"/>
<path d="M290.983 245.884L285.663 229.504L296.303 229.504L290.983 245.884ZM287.033 230.504L290.983 242.644L294.933 230.504L287.033 230.504Z" fill="#5e5e5e" fill-rule="nonzero" opacity="1" stroke="#5e5e5e" stroke-linecap="butt" stroke-linejoin="miter" stroke-width="0.05"/>
<g opacity="1">
<path d="M242.729 207.637C241.248 207.637 240.951 208.86 240.951 210.341C240.951 211.823 241.285 213.119 242.729 213.119C243.618 213.119 244.248 212.6 244.322 211.711L245.507 211.785C245.285 213.156 244.359 214.045 242.766 214.045C240.581 214.045 239.951 212.526 239.729 210.378C239.359 206.934 243.47 205.526 245.174 208.008C245.322 208.267 245.359 208.526 245.433 208.823L244.248 208.934C244.1 208.156 243.655 207.637 242.729 207.637" fill="#333333" fill-rule="nonzero" opacity="1" stroke="none"/>
<path d="M250.063 207.86C247.174 207.267 248.1 211.23 247.951 213.897L246.766 213.897L246.729 206.86L247.84 206.86C247.877 207.304 247.803 207.934 247.914 208.304C248.137 207.304 248.766 206.489 250.063 206.785L250.063 207.86" fill="#333333" fill-rule="nonzero" opacity="1" stroke="none"/>
<path d="M258.025 207.637C255.544 207.748 256.618 211.526 256.396 213.897L255.248 213.897L255.248 209.415C255.248 208.341 255.063 207.563 253.951 207.637C251.507 207.785 252.544 211.489 252.322 213.897L251.174 213.897L251.137 206.86L252.248 206.86C252.285 207.23 252.211 207.748 252.322 208.045C252.692 206.415 255.988 206.193 256.285 208.045C256.692 207.267 257.285 206.748 258.433 206.711C261.581 206.637 260.174 211.119 260.47 213.897L259.322 213.897L259.322 209.415C259.322 208.341 259.137 207.6 258.025 207.637" fill="#333333" fill-rule="nonzero" opacity="1" stroke="none"/>
<path d="M262.544 208.193L262.544 206.86L263.803 206.86L263.803 208.193L262.544 208.193ZM262.544 213.897L262.544 212.563L263.803 212.563L263.803 213.897L262.544 213.897" fill="#333333" fill-rule="nonzero" opacity="1" stroke="none"/>
<path d="M266.137 204.711C269.359 204.748 273.211 204.156 273.211 207.489C273.211 210.378 270.359 210.452 267.359 210.304L267.359 213.897L266.137 213.897L266.137 204.711ZM267.359 209.341C269.47 209.341 271.951 209.748 271.951 207.489C271.951 205.304 269.433 205.748 267.359 205.711L267.359 209.341" fill="#333333" fill-rule="nonzero" opacity="1" stroke="none"/>
<path d="M277.655 204.6C280.692 204.341 281.1 207.823 279.248 209.489L276.951 211.526C276.544 211.934 276.1 212.341 275.877 212.897L280.655 212.897L280.655 213.897L274.581 213.897C274.655 210.23 279.322 210.415 279.322 207.156C279.322 206.119 278.729 205.563 277.655 205.563C276.581 205.563 275.951 206.119 275.84 207.082L274.655 206.971C274.877 205.452 275.914 204.748 277.655 204.6" fill="#333333" fill-rule="nonzero" opacity="1" stroke="none"/>
<path d="M281.137 216.563L281.137 215.711L288.877 215.711L288.877 216.563L281.137 216.563" fill="#333333" fill-rule="nonzero" opacity="1" stroke="none"/>
<path d="M292.655 207.637C289.988 207.637 291.025 211.415 290.84 213.897L289.655 213.897L289.655 204.23L290.84 204.23L290.803 208.045C291.248 207.267 291.84 206.711 293.063 206.711C296.359 206.711 295.025 211.008 295.285 213.897L294.1 213.897L294.1 209.415C294.174 208.23 293.803 207.6 292.655 207.637" fill="#333333" fill-rule="nonzero" opacity="1" stroke="none"/>
<path d="M301.359 212.563C300.803 213.341 300.211 214.082 298.84 214.045C297.507 214.008 296.692 213.267 296.692 211.934C296.655 209.563 299.025 209.6 301.322 209.6C301.433 208.304 300.988 207.6 299.803 207.6C298.914 207.637 298.285 207.86 298.248 208.748L297.025 208.637C297.211 207.267 298.248 206.711 299.84 206.711C301.507 206.711 302.507 207.452 302.507 209.082L302.507 212.119C302.47 212.86 302.766 213.304 303.544 213.119L303.544 213.86C302.396 214.193 301.285 213.785 301.359 212.563ZM297.914 211.934C297.914 212.674 298.359 213.156 299.1 213.156C300.618 213.045 301.433 212.082 301.322 210.415C299.729 210.489 297.914 210.23 297.914 211.934" fill="#333333" fill-rule="nonzero" opacity="1" stroke="none"/>
<path d="M308.544 208.6C308.433 207.341 305.359 207.193 305.322 208.6C305.877 210.563 309.581 209.045 309.729 211.934C309.877 214.823 304.174 214.674 303.914 212.23L304.951 212.045C305.1 213.378 308.544 213.711 308.581 212.045C308.211 209.971 304.396 211.489 304.211 208.711C304.063 206.6 307.248 206.378 308.729 207.156C309.174 207.415 309.507 207.86 309.618 208.452" fill="#333333" fill-rule="nonzero" opacity="1" stroke="none"/>
<path d="M310.025 216.563L310.025 215.711L317.766 215.711L317.766 216.563L310.025 216.563" fill="#333333" fill-rule="nonzero" opacity="1" stroke="none"/>
<path d="M319.803 212.156C319.729 213.045 320.47 213.23 321.211 212.971L321.211 213.86C319.988 214.23 318.618 214.045 318.618 212.415L318.618 207.711L317.803 207.711L317.803 206.86L318.692 206.86L319.025 205.267L319.803 205.267L319.803 206.86L321.1 206.86L321.1 207.711L319.803 207.711L319.803 212.156" fill="#333333" fill-rule="nonzero" opacity="1" stroke="none"/>
<path d="M327.951 206.86L324.766 215.045C324.248 216.082 323.396 216.934 321.766 216.6L321.766 215.711C323.211 215.934 323.729 214.971 324.137 213.86L321.359 206.86L322.618 206.86L324.729 212.637L326.729 206.86L327.951 206.86" fill="#333333" fill-rule="nonzero" opacity="1" stroke="none"/>
<path d="M332.248 206.711C334.285 206.748 334.84 208.23 334.84 210.341C334.84 212.452 334.248 213.971 332.248 214.045C331.1 214.045 330.433 213.563 330.025 212.785L330.063 216.674L328.877 216.674L328.84 206.86L329.988 206.86L330.063 207.971C330.433 207.193 331.1 206.711 332.248 206.711ZM331.951 213.156C333.433 213.156 333.618 211.897 333.618 210.378C333.618 208.86 333.396 207.674 331.951 207.637C330.396 207.637 330.063 208.823 330.063 210.452C330.063 212.045 330.433 213.156 331.951 213.156" fill="#333333" fill-rule="nonzero" opacity="1" stroke="none"/>
<path d="M339.1 206.711C341.433 206.711 342.285 208.267 342.211 210.637L337.211 210.637C337.211 212.119 337.729 213.119 339.174 213.156C340.137 213.193 340.766 212.711 340.988 212.082L342.025 212.378C341.618 213.415 340.655 214.045 339.174 214.045C337.025 214.045 335.914 212.674 335.951 210.341C335.988 208.082 336.914 206.711 339.1 206.711ZM341.025 209.711C341.248 207.489 338.211 206.86 337.433 208.674C337.322 208.934 337.211 209.304 337.211 209.711L341.025 209.711" fill="#333333" fill-rule="nonzero" opacity="1" stroke="none"/>
</g>
</g>
</g>
</svg>
