<svg xmlns="http://www.w3.org/2000/svg" xmlns:xlink="http://www.w3.org/1999/xlink" xmlns:lucid="lucid" width="631" height="328"><g transform="translate(-105 -504)" lucid:page-tab-id="0_0"><path d="M696 640c13.25 0 24 13 24 29.02 0 16.03-10.75 29.02-24 29.02h-72c-13.25 0-24-13-24-29.02C600 653 610.75 640 624 640z" stroke="#5e5e5e" fill="#fff"/><use xlink:href="#a" transform="matrix(1,0,0,1,605,645) translate(5.925925925925931 25.979166666666668)"/><path d="M216 640c13.25 0 24 13 24 29.02 0 16.03-10.75 29.02-24 29.02h-72c-13.25 0-24-13-24-29.02C120 653 130.75 640 144 640z" stroke="#5e5e5e" fill="#fff"/><use xlink:href="#b" transform="matrix(1,0,0,1,125,645) translate(15.037037037037038 25.979166666666668)"/><use xlink:href="#c" transform="matrix(1,0,0,1,125,645) translate(60.88888888888889 25.979166666666668)"/><path d="M241 669.02h82.46" stroke="#5e5e5e" fill="none"/><path d="M241 669.52h-.54l.04-.48v-.52h.5z" stroke="#5e5e5e" stroke-width=".05" fill="#5e5e5e"/><path d="M338.22 669.02l-14.26 4.63v-9.27z" stroke="#5e5e5e" fill="#5e5e5e"/><use xlink:href="#d" transform="matrix(1,0,0,1,260.2263939829921,633.0196078431372) translate(0.004999999999999005 10.666666666666668)"/><use xlink:href="#e" transform="matrix(1,0,0,1,260.2263939829921,633.0196078431372) translate(5.153148148148144 26.666666666666668)"/><path d="M436.07 640c13.22 0 23.93 13 23.93 29.02 0 16.03-10.7 29.02-23.93 29.02h-71.8c-13.2 0-23.93-13-23.93-29.02 0-16.03 10.72-29.02 23.93-29.02z" stroke="#5e5e5e" fill="#fff"/><use xlink:href="#f" transform="matrix(1,0,0,1,345.34167686133964,645) translate(9.148148148148138 25.979166666666668)"/><path d="M461 669.02h122.12" stroke="#5e5e5e" fill="none"/><path d="M461 669.52h-.54l.04-.48v-.52h.5z" stroke="#5e5e5e" stroke-width=".05" fill="#5e5e5e"/><path d="M597.88 669.02l-14.26 4.63v-9.27z" stroke="#5e5e5e" fill="#5e5e5e"/><use xlink:href="#g" transform="matrix(1,0,0,1,481.2037036344566,633.0196078431372) translate(0.005000000000002558 10.666666666666668)"/><use xlink:href="#h" transform="matrix(1,0,0,1,481.2037036344566,633.0196078431372) translate(25.097592592592584 26.666666666666668)"/><path d="M437.82 520c13.86 0 25.1 13.43 25.1 30s-11.24 30-25.1 30h-75.3c-13.85 0-25.1-13.43-25.1-30s11.25-30 25.1-30z" stroke="#5e5e5e" fill="#fff"/><use xlink:href="#i" transform="matrix(1,0,0,1,342.42890294690676,525) translate(-1.6481481481481453 27.666666666666668)"/><path d="M400.67 639h-1v-17.72h1zm0-33.72h-1v-8.4h1z" stroke="#5e5e5e" stroke-width=".05" fill="#5e5e5e"/><path d="M400.67 639.5h-1v-.5h1z" fill="#5e5e5e"/><path d="M400.7 639.52h-1.05v-.56h1.05zm-1-.5v.46h.95V639z" stroke="#5e5e5e" stroke-width=".05" fill="#5e5e5e"/><path d="M404.8 596.4h-9.26l4.63-14.28z" fill="#5e5e5e"/><path d="M405.5 596.9h-10.65l5.32-16.4zm-9.28-1h7.9l-3.95-12.16z" stroke="#5e5e5e" stroke-width=".05" fill="#5e5e5e"/><use xlink:href="#j" transform="matrix(1,0,0,1,331.74491251628615,605.2764710339585) translate(0.0049999999999954525 10.666666666666668)"/><path d="M435.73 758.04c13.2 0 23.93 13 23.93 29.02 0 16.03-10.72 29.02-23.93 29.02h-71.8c-13.22 0-23.93-13-23.93-29.02 0-16.03 10.7-29.02 23.93-29.02z" stroke="#5e5e5e" fill="#fff"/><use xlink:href="#k" transform="matrix(1,0,0,1,344.9999999999999,763.0392156862746) translate(12.092592592592595 25.979166666666668)"/><path d="M400.67 741.15h-1V730.9h1zm0-26.26h-1v-15.86h1z" stroke="#5e5e5e" stroke-width=".05" fill="#5e5e5e"/><path d="M400.67 699.05h-1v-.5h1z" fill="#5e5e5e"/><path d="M400.7 699.08h-1.05v-.57h1.05zm-1-.52v.47h.95v-.47z" stroke="#5e5e5e" stroke-width=".05" fill="#5e5e5e"/><path d="M400.17 755.92l-4.63-14.26h9.27z" fill="#5e5e5e"/><path d="M400.17 757.54l-5.32-16.38h10.64zm-3.95-15.38l3.95 12.14 3.95-12.14z" stroke="#5e5e5e" stroke-width=".05" fill="#5e5e5e"/><g><use xlink:href="#l" transform="matrix(1,0,0,1,348.3560235662126,714.8855455966932) translate(0.005000000000002558 10.666666666666668)"/></g><defs><path fill="#333" d="M96-169c-40 0-48 33-48 73s9 75 48 75c24 0 41-14 43-38l32 2c-6 37-31 61-74 61-59 0-76-41-82-99-10-93 101-131 147-64 4 7 5 14 7 22l-32 3c-4-21-16-35-41-35" id="m"/><path fill="#333" d="M114-163C36-179 61-72 57 0H25l-1-190h30c1 12-1 29 2 39 6-27 23-49 58-41v29" id="n"/><path fill="#333" d="M210-169c-67 3-38 105-44 169h-31v-121c0-29-5-50-35-48C34-165 62-65 56 0H25l-1-190h30c1 10-1 24 2 32 10-44 99-50 107 0 11-21 27-35 58-36 85-2 47 119 55 194h-31v-121c0-29-5-49-35-48" id="o"/><path fill="#333" d="M33-154v-36h34v36H33zM33 0v-36h34V0H33" id="p"/><path fill="#333" d="M30 0v-248h187v28H63v79h144v27H63v87h162V0H30" id="q"/><path fill="#333" d="M101-251c82-7 93 87 43 132L82-64C71-53 59-42 53-27h129V0H18c2-99 128-94 128-182 0-28-16-43-45-43s-46 15-49 41l-32-3c6-41 34-60 81-64" id="r"/><path fill="#333" d="M27 0v-27h64v-190l-56 39v-29l58-41h29v221h61V0H27" id="s"/><path fill="#333" d="M-5 72V49h209v23H-5" id="t"/><path fill="#333" d="M30-248c87 1 191-15 191 75 0 78-77 80-158 76V0H30v-248zm33 125c57 0 124 11 124-50 0-59-68-47-124-48v98" id="u"/><path fill="#333" d="M100-194c63 0 86 42 84 106H49c0 40 14 67 53 68 26 1 43-12 49-29l28 8c-11 28-37 45-77 45C44 4 14-33 15-96c1-61 26-98 85-98zm52 81c6-60-76-77-97-28-3 7-6 17-6 28h103" id="v"/><path fill="#333" d="M135-143c-3-34-86-38-87 0 15 53 115 12 119 90S17 21 10-45l28-5c4 36 97 45 98 0-10-56-113-15-118-90-4-57 82-63 122-42 12 7 21 19 24 35" id="w"/><path fill="#333" d="M100-194c62-1 85 37 85 99 1 63-27 99-86 99S16-35 15-95c0-66 28-99 85-99zM99-20c44 1 53-31 53-75 0-43-8-75-51-75s-53 32-53 75 10 74 51 75" id="x"/><path fill="#333" d="M117-194c89-4 53 116 60 194h-32v-121c0-31-8-49-39-48C34-167 62-67 57 0H25l-1-190h30c1 10-1 24 2 32 11-22 29-35 61-36" id="y"/><g id="a"><use transform="matrix(0.03703703703703704,0,0,0.03703703703703704,0,0)" xlink:href="#m"/><use transform="matrix(0.03703703703703704,0,0,0.03703703703703704,6.666666666666668,0)" xlink:href="#n"/><use transform="matrix(0.03703703703703704,0,0,0.03703703703703704,11.074074074074076,0)" xlink:href="#o"/><use transform="matrix(0.03703703703703704,0,0,0.03703703703703704,22.148148148148152,0)" xlink:href="#p"/><use transform="matrix(0.03703703703703704,0,0,0.03703703703703704,25.851851851851855,0)" xlink:href="#q"/><use transform="matrix(0.03703703703703704,0,0,0.03703703703703704,34.74074074074075,0)" xlink:href="#r"/><use transform="matrix(0.03703703703703704,0,0,0.03703703703703704,42.14814814814815,0)" xlink:href="#s"/><use transform="matrix(0.03703703703703704,0,0,0.03703703703703704,49.55555555555556,0)" xlink:href="#t"/><use transform="matrix(0.03703703703703704,0,0,0.03703703703703704,56.96296296296296,0)" xlink:href="#u"/><use transform="matrix(0.03703703703703704,0,0,0.03703703703703704,65.85185185185185,0)" xlink:href="#v"/><use transform="matrix(0.03703703703703704,0,0,0.03703703703703704,73.25925925925925,0)" xlink:href="#n"/><use transform="matrix(0.03703703703703704,0,0,0.03703703703703704,77.66666666666666,0)" xlink:href="#w"/><use transform="matrix(0.03703703703703704,0,0,0.03703703703703704,84.33333333333333,0)" xlink:href="#x"/><use transform="matrix(0.03703703703703704,0,0,0.03703703703703704,91.74074074074073,0)" xlink:href="#y"/></g><path fill="#333" d="M54-142c48-35 137-8 131 61C196 18 31 33 14-55l32-4c7 23 22 37 52 37 35-1 51-22 54-58 4-55-73-65-99-34H22l8-134h141v27H59" id="z"/><g id="b"><use transform="matrix(0.03703703703703704,0,0,0.03703703703703704,0,0)" xlink:href="#m"/><use transform="matrix(0.03703703703703704,0,0,0.03703703703703704,6.666666666666668,0)" xlink:href="#n"/><use transform="matrix(0.03703703703703704,0,0,0.03703703703703704,11.074074074074076,0)" xlink:href="#o"/><use transform="matrix(0.03703703703703704,0,0,0.03703703703703704,22.148148148148152,0)" xlink:href="#p"/><use transform="matrix(0.03703703703703704,0,0,0.03703703703703704,25.851851851851855,0)" xlink:href="#q"/><use transform="matrix(0.03703703703703704,0,0,0.03703703703703704,34.74074074074075,0)" xlink:href="#z"/></g><path fill="#333" d="M108 0H70L1-190h34L89-25l56-165h34" id="A"/><path fill="#333" d="M59-47c-2 24 18 29 38 22v24C64 9 27 4 27-40v-127H5v-23h24l9-43h21v43h35v23H59v120" id="B"/><g id="c"><use transform="matrix(0.03703703703703704,0,0,0.03703703703703704,0,0)" xlink:href="#q"/><use transform="matrix(0.03703703703703704,0,0,0.03703703703703704,8.88888888888889,0)" xlink:href="#A"/><use transform="matrix(0.03703703703703704,0,0,0.03703703703703704,15.555555555555557,0)" xlink:href="#v"/><use transform="matrix(0.03703703703703704,0,0,0.03703703703703704,22.962962962962965,0)" xlink:href="#y"/><use transform="matrix(0.03703703703703704,0,0,0.03703703703703704,30.370370370370374,0)" xlink:href="#B"/></g><path fill="#333" d="M101-251c68 0 85 55 85 127S166 4 100 4C33 4 14-52 14-124c0-73 17-127 87-127zm-1 229c47 0 54-49 54-102s-4-102-53-102c-51 0-55 48-55 102 0 53 5 102 54 102" id="C"/><path fill="#333" d="M24-231v-30h32v30H24zM24 0v-190h32V0H24" id="D"/><g id="d"><use transform="matrix(0.03703703703703704,0,0,0.03703703703703704,0,0)" xlink:href="#m"/><use transform="matrix(0.03703703703703704,0,0,0.03703703703703704,6.666666666666668,0)" xlink:href="#n"/><use transform="matrix(0.03703703703703704,0,0,0.03703703703703704,11.074074074074076,0)" xlink:href="#o"/><use transform="matrix(0.03703703703703704,0,0,0.03703703703703704,22.148148148148152,0)" xlink:href="#p"/><use transform="matrix(0.03703703703703704,0,0,0.03703703703703704,25.851851851851855,0)" xlink:href="#u"/><use transform="matrix(0.03703703703703704,0,0,0.03703703703703704,34.74074074074075,0)" xlink:href="#s"/><use transform="matrix(0.03703703703703704,0,0,0.03703703703703704,42.14814814814815,0)" xlink:href="#C"/><use transform="matrix(0.03703703703703704,0,0,0.03703703703703704,49.55555555555556,0)" xlink:href="#D"/><use transform="matrix(0.03703703703703704,0,0,0.03703703703703704,52.48148148148148,0)" xlink:href="#t"/></g><path fill="#333" d="M141-36C126-15 110 5 73 4 37 3 15-17 15-53c-1-64 63-63 125-63 3-35-9-54-41-54-24 1-41 7-42 31l-33-3c5-37 33-52 76-52 45 0 72 20 72 64v82c-1 20 7 32 28 27v20c-31 9-61-2-59-35zM48-53c0 20 12 33 32 33 41-3 63-29 60-74-43 2-92-5-92 41" id="E"/><g id="e"><use transform="matrix(0.03703703703703704,0,0,0.03703703703703704,0,0)" xlink:href="#m"/><use transform="matrix(0.03703703703703704,0,0,0.03703703703703704,6.666666666666668,0)" xlink:href="#x"/><use transform="matrix(0.03703703703703704,0,0,0.03703703703703704,14.074074074074076,0)" xlink:href="#y"/><use transform="matrix(0.03703703703703704,0,0,0.03703703703703704,21.481481481481485,0)" xlink:href="#B"/><use transform="matrix(0.03703703703703704,0,0,0.03703703703703704,25.185185185185187,0)" xlink:href="#E"/><use transform="matrix(0.03703703703703704,0,0,0.03703703703703704,32.592592592592595,0)" xlink:href="#D"/><use transform="matrix(0.03703703703703704,0,0,0.03703703703703704,35.51851851851852,0)" xlink:href="#y"/><use transform="matrix(0.03703703703703704,0,0,0.03703703703703704,42.925925925925924,0)" xlink:href="#w"/></g><path fill="#333" d="M64 0c3-98 48-159 88-221H18v-27h164v26C143-157 98-101 97 0H64" id="F"/><path fill="#333" d="M205 0l-28-72H64L36 0H1l101-248h38L239 0h-34zm-38-99l-47-123c-12 45-31 82-46 123h93" id="G"/><path fill="#333" d="M179-190L93 31C79 59 56 82 12 73V49c39 6 53-20 64-50L1-190h34L92-34l54-156h33" id="H"/><g id="f"><use transform="matrix(0.03703703703703704,0,0,0.03703703703703704,0,0)" xlink:href="#m"/><use transform="matrix(0.03703703703703704,0,0,0.03703703703703704,6.666666666666668,0)" xlink:href="#n"/><use transform="matrix(0.03703703703703704,0,0,0.03703703703703704,11.074074074074076,0)" xlink:href="#o"/><use transform="matrix(0.03703703703703704,0,0,0.03703703703703704,22.148148148148152,0)" xlink:href="#p"/><use transform="matrix(0.03703703703703704,0,0,0.03703703703703704,25.851851851851855,0)" xlink:href="#q"/><use transform="matrix(0.03703703703703704,0,0,0.03703703703703704,34.74074074074075,0)" xlink:href="#F"/><use transform="matrix(0.03703703703703704,0,0,0.03703703703703704,42.14814814814815,0)" xlink:href="#t"/><use transform="matrix(0.03703703703703704,0,0,0.03703703703703704,49.55555555555556,0)" xlink:href="#G"/><use transform="matrix(0.03703703703703704,0,0,0.03703703703703704,58.44444444444444,0)" xlink:href="#m"/><use transform="matrix(0.03703703703703704,0,0,0.03703703703703704,65.11111111111111,0)" xlink:href="#B"/><use transform="matrix(0.03703703703703704,0,0,0.03703703703703704,68.81481481481482,0)" xlink:href="#D"/><use transform="matrix(0.03703703703703704,0,0,0.03703703703703704,71.74074074074075,0)" xlink:href="#A"/><use transform="matrix(0.03703703703703704,0,0,0.03703703703703704,78.40740740740742,0)" xlink:href="#D"/><use transform="matrix(0.03703703703703704,0,0,0.03703703703703704,81.33333333333334,0)" xlink:href="#B"/><use transform="matrix(0.03703703703703704,0,0,0.03703703703703704,85.03703703703705,0)" xlink:href="#H"/></g><path fill="#333" d="M155-56V0h-30v-56H8v-25l114-167h33v167h35v25h-35zm-30-156c-27 46-58 90-88 131h88v-131" id="I"/><path fill="#333" d="M85-194c31 0 48 13 60 33l-1-100h32l1 261h-30c-2-10 0-23-3-31C134-8 116 4 85 4 32 4 16-35 15-94c0-66 23-100 70-100zm9 24c-40 0-46 34-46 75 0 40 6 74 45 74 42 0 51-32 51-76 0-42-9-74-50-73" id="J"/><g id="g"><use transform="matrix(0.03703703703703704,0,0,0.03703703703703704,0,0)" xlink:href="#m"/><use transform="matrix(0.03703703703703704,0,0,0.03703703703703704,6.666666666666668,0)" xlink:href="#n"/><use transform="matrix(0.03703703703703704,0,0,0.03703703703703704,11.074074074074076,0)" xlink:href="#o"/><use transform="matrix(0.03703703703703704,0,0,0.03703703703703704,22.148148148148152,0)" xlink:href="#p"/><use transform="matrix(0.03703703703703704,0,0,0.03703703703703704,25.851851851851855,0)" xlink:href="#u"/><use transform="matrix(0.03703703703703704,0,0,0.03703703703703704,34.74074074074075,0)" xlink:href="#s"/><use transform="matrix(0.03703703703703704,0,0,0.03703703703703704,42.14814814814815,0)" xlink:href="#I"/><use transform="matrix(0.03703703703703704,0,0,0.03703703703703704,49.55555555555556,0)" xlink:href="#t"/><use transform="matrix(0.03703703703703704,0,0,0.03703703703703704,56.96296296296296,0)" xlink:href="#m"/><use transform="matrix(0.03703703703703704,0,0,0.03703703703703704,63.629629629629626,0)" xlink:href="#E"/><use transform="matrix(0.03703703703703704,0,0,0.03703703703703704,71.03703703703704,0)" xlink:href="#n"/><use transform="matrix(0.03703703703703704,0,0,0.03703703703703704,75.44444444444444,0)" xlink:href="#n"/><use transform="matrix(0.03703703703703704,0,0,0.03703703703703704,79.85185185185185,0)" xlink:href="#D"/><use transform="matrix(0.03703703703703704,0,0,0.03703703703703704,82.77777777777777,0)" xlink:href="#v"/><use transform="matrix(0.03703703703703704,0,0,0.03703703703703704,90.18518518518518,0)" xlink:href="#J"/></g><path fill="#333" d="M84 4C-5 8 30-112 23-190h32v120c0 31 7 50 39 49 72-2 45-101 50-169h31l1 190h-30c-1-10 1-25-2-33-11 22-28 36-60 37" id="K"/><path fill="#333" d="M115-194c53 0 69 39 70 98 0 66-23 100-70 100C84 3 66-7 56-30L54 0H23l1-261h32v101c10-23 28-34 59-34zm-8 174c40 0 45-34 45-75 0-40-5-75-45-74-42 0-51 32-51 76 0 43 10 73 51 73" id="L"/><g id="h"><use transform="matrix(0.03703703703703704,0,0,0.03703703703703704,0,0)" xlink:href="#t"/><use transform="matrix(0.03703703703703704,0,0,0.03703703703703704,7.407407407407408,0)" xlink:href="#x"/><use transform="matrix(0.03703703703703704,0,0,0.03703703703703704,14.814814814814817,0)" xlink:href="#K"/><use transform="matrix(0.03703703703703704,0,0,0.03703703703703704,22.222222222222225,0)" xlink:href="#B"/><use transform="matrix(0.03703703703703704,0,0,0.03703703703703704,25.92592592592593,0)" xlink:href="#t"/><use transform="matrix(0.03703703703703704,0,0,0.03703703703703704,33.33333333333334,0)" xlink:href="#L"/><use transform="matrix(0.03703703703703704,0,0,0.03703703703703704,40.74074074074075,0)" xlink:href="#H"/></g><path fill="#333" d="M127-220V0H93v-220H8v-28h204v28h-85" id="M"/><path fill="#333" d="M16-82v-28h88v28H16" id="N"/><path fill="#333" d="M115-194c55 1 70 41 70 98S169 2 115 4C84 4 66-9 55-30l1 105H24l-1-265h31l2 30c10-21 28-34 59-34zm-8 174c40 0 45-34 45-75s-6-73-45-74c-42 0-51 32-51 76 0 43 10 73 51 73" id="O"/><g id="i"><use transform="matrix(0.03703703703703704,0,0,0.03703703703703704,0,0)" xlink:href="#m"/><use transform="matrix(0.03703703703703704,0,0,0.03703703703703704,6.666666666666668,0)" xlink:href="#n"/><use transform="matrix(0.03703703703703704,0,0,0.03703703703703704,11.074074074074076,0)" xlink:href="#o"/><use transform="matrix(0.03703703703703704,0,0,0.03703703703703704,22.148148148148152,0)" xlink:href="#p"/><use transform="matrix(0.03703703703703704,0,0,0.03703703703703704,25.851851851851855,0)" xlink:href="#q"/><use transform="matrix(0.03703703703703704,0,0,0.03703703703703704,34.74074074074075,0)" xlink:href="#z"/><use transform="matrix(0.03703703703703704,0,0,0.03703703703703704,42.14814814814815,0)" xlink:href="#r"/><use transform="matrix(0.03703703703703704,0,0,0.03703703703703704,49.55555555555556,0)" xlink:href="#t"/><use transform="matrix(0.03703703703703704,0,0,0.03703703703703704,56.96296296296296,0)" xlink:href="#M"/><use transform="matrix(0.03703703703703704,0,0,0.03703703703703704,64.5925925925926,0)" xlink:href="#D"/><use transform="matrix(0.03703703703703704,0,0,0.03703703703703704,67.51851851851852,0)" xlink:href="#o"/><use transform="matrix(0.03703703703703704,0,0,0.03703703703703704,78.59259259259261,0)" xlink:href="#v"/><use transform="matrix(0.03703703703703704,0,0,0.03703703703703704,86,0)" xlink:href="#N"/><use transform="matrix(0.03703703703703704,0,0,0.03703703703703704,90.4074074074074,0)" xlink:href="#w"/><use transform="matrix(0.03703703703703704,0,0,0.03703703703703704,97.07407407407408,0)" xlink:href="#O"/><use transform="matrix(0.03703703703703704,0,0,0.03703703703703704,104.48148148148148,0)" xlink:href="#E"/><use transform="matrix(0.03703703703703704,0,0,0.03703703703703704,111.88888888888889,0)" xlink:href="#y"/></g><path fill="#333" d="M106-169C34-169 62-67 57 0H25v-261h32l-1 103c12-21 28-36 61-36 89 0 53 116 60 194h-32v-121c2-32-8-49-39-48" id="P"/><g id="j"><use transform="matrix(0.03703703703703704,0,0,0.03703703703703704,0,0)" xlink:href="#m"/><use transform="matrix(0.03703703703703704,0,0,0.03703703703703704,6.666666666666668,0)" xlink:href="#n"/><use transform="matrix(0.03703703703703704,0,0,0.03703703703703704,11.074074074074076,0)" xlink:href="#o"/><use transform="matrix(0.03703703703703704,0,0,0.03703703703703704,22.148148148148152,0)" xlink:href="#p"/><use transform="matrix(0.03703703703703704,0,0,0.03703703703703704,25.851851851851855,0)" xlink:href="#u"/><use transform="matrix(0.03703703703703704,0,0,0.03703703703703704,34.74074074074075,0)" xlink:href="#I"/><use transform="matrix(0.03703703703703704,0,0,0.03703703703703704,42.14814814814815,0)" xlink:href="#t"/><use transform="matrix(0.03703703703703704,0,0,0.03703703703703704,49.55555555555556,0)" xlink:href="#P"/><use transform="matrix(0.03703703703703704,0,0,0.03703703703703704,56.96296296296296,0)" xlink:href="#E"/><use transform="matrix(0.03703703703703704,0,0,0.03703703703703704,64.37037037037037,0)" xlink:href="#w"/><use transform="matrix(0.03703703703703704,0,0,0.03703703703703704,71.03703703703704,0)" xlink:href="#t"/><use transform="matrix(0.03703703703703704,0,0,0.03703703703703704,78.44444444444444,0)" xlink:href="#B"/><use transform="matrix(0.03703703703703704,0,0,0.03703703703703704,82.14814814814815,0)" xlink:href="#D"/><use transform="matrix(0.03703703703703704,0,0,0.03703703703703704,85.07407407407406,0)" xlink:href="#o"/><use transform="matrix(0.03703703703703704,0,0,0.03703703703703704,96.14814814814814,0)" xlink:href="#v"/><use transform="matrix(0.03703703703703704,0,0,0.03703703703703704,103.55555555555556,0)" xlink:href="#N"/><use transform="matrix(0.03703703703703704,0,0,0.03703703703703704,107.96296296296296,0)" xlink:href="#w"/><use transform="matrix(0.03703703703703704,0,0,0.03703703703703704,114.62962962962963,0)" xlink:href="#O"/><use transform="matrix(0.03703703703703704,0,0,0.03703703703703704,122.03703703703704,0)" xlink:href="#E"/><use transform="matrix(0.03703703703703704,0,0,0.03703703703703704,129.44444444444446,0)" xlink:href="#y"/></g><g id="k"><use transform="matrix(0.03703703703703704,0,0,0.03703703703703704,0,0)" xlink:href="#m"/><use transform="matrix(0.03703703703703704,0,0,0.03703703703703704,6.666666666666668,0)" xlink:href="#n"/><use transform="matrix(0.03703703703703704,0,0,0.03703703703703704,11.074074074074076,0)" xlink:href="#o"/><use transform="matrix(0.03703703703703704,0,0,0.03703703703703704,22.148148148148152,0)" xlink:href="#p"/><use transform="matrix(0.03703703703703704,0,0,0.03703703703703704,25.851851851851855,0)" xlink:href="#q"/><use transform="matrix(0.03703703703703704,0,0,0.03703703703703704,34.74074074074075,0)" xlink:href="#z"/><use transform="matrix(0.03703703703703704,0,0,0.03703703703703704,42.14814814814815,0)" xlink:href="#z"/><use transform="matrix(0.03703703703703704,0,0,0.03703703703703704,49.55555555555556,0)" xlink:href="#t"/><use transform="matrix(0.03703703703703704,0,0,0.03703703703703704,56.96296296296296,0)" xlink:href="#M"/><use transform="matrix(0.03703703703703704,0,0,0.03703703703703704,64.33333333333333,0)" xlink:href="#H"/><use transform="matrix(0.03703703703703704,0,0,0.03703703703703704,71,0)" xlink:href="#O"/><use transform="matrix(0.03703703703703704,0,0,0.03703703703703704,78.4074074074074,0)" xlink:href="#v"/></g><g id="l"><use transform="matrix(0.03703703703703704,0,0,0.03703703703703704,0,0)" xlink:href="#m"/><use transform="matrix(0.03703703703703704,0,0,0.03703703703703704,6.666666666666668,0)" xlink:href="#n"/><use transform="matrix(0.03703703703703704,0,0,0.03703703703703704,11.074074074074076,0)" xlink:href="#o"/><use transform="matrix(0.03703703703703704,0,0,0.03703703703703704,22.148148148148152,0)" xlink:href="#p"/><use transform="matrix(0.03703703703703704,0,0,0.03703703703703704,25.851851851851855,0)" xlink:href="#u"/><use transform="matrix(0.03703703703703704,0,0,0.03703703703703704,34.74074074074075,0)" xlink:href="#r"/><use transform="matrix(0.03703703703703704,0,0,0.03703703703703704,42.14814814814815,0)" xlink:href="#t"/><use transform="matrix(0.03703703703703704,0,0,0.03703703703703704,49.55555555555556,0)" xlink:href="#P"/><use transform="matrix(0.03703703703703704,0,0,0.03703703703703704,56.96296296296296,0)" xlink:href="#E"/><use transform="matrix(0.03703703703703704,0,0,0.03703703703703704,64.37037037037037,0)" xlink:href="#w"/><use transform="matrix(0.03703703703703704,0,0,0.03703703703703704,71.03703703703704,0)" xlink:href="#t"/><use transform="matrix(0.03703703703703704,0,0,0.03703703703703704,78.44444444444444,0)" xlink:href="#B"/><use transform="matrix(0.03703703703703704,0,0,0.03703703703703704,82.14814814814815,0)" xlink:href="#H"/><use transform="matrix(0.03703703703703704,0,0,0.03703703703703704,88.81481481481482,0)" xlink:href="#O"/><use transform="matrix(0.03703703703703704,0,0,0.03703703703703704,96.22222222222223,0)" xlink:href="#v"/></g></defs></g></svg>