<svg xmlns="http://www.w3.org/2000/svg" xmlns:xlink="http://www.w3.org/1999/xlink" xmlns:lucid="lucid" width="550" height="253"><g transform="translate(-105 234)" lucid:page-tab-id="0_0"><path d="M0-500h1500v4500H0z" fill="#fff"/><path d="M306.94-78.83c15.7 0 28.42 15.2 28.42 33.93 0 18.74-12.73 33.93-28.42 33.93h-85.26c-15.7 0-28.42-15.2-28.42-33.93 0-18.74 12.73-33.93 28.42-33.93z" stroke="#5e5e5e" fill="#fff"/><use xlink:href="#a" transform="matrix(1,0,0,1,198.26506382189388,-73.83025303220302) translate(9.166666666666664 32.41666666666667)"/><path d="M336.36-44.9h85.7" stroke="#5e5e5e" fill="none"/><path d="M336.37-44.4h-.55l.04-.5-.03-.5h.54z" stroke="#5e5e5e" stroke-width=".05" fill="#5e5e5e"/><path d="M436.83-44.9l-14.26 4.64v-9.27z" stroke="#5e5e5e" fill="#5e5e5e"/><use xlink:href="#b" transform="matrix(1,0,0,1,350.5445489721275,-85.53340673494603) translate(11.838333333333338 10.666666666666668)"/><use xlink:href="#c" transform="matrix(1,0,0,1,350.5445489721275,-85.53340673494603) translate(0.005000000000002558 26.666666666666668)"/><path d="M552.63-78.83c15.7 0 28.42 15.2 28.42 33.93 0 18.74-12.73 33.93-28.42 33.93h-85.26c-15.7 0-28.42-15.2-28.42-33.93 0-18.74 12.73-33.93 28.42-33.93z" stroke="#5e5e5e" fill="#fff"/><use xlink:href="#d" transform="matrix(1,0,0,1,443.9537433239542,-73.83025303220302) translate(39.51851851851851 25.166666666666668)"/><use xlink:href="#e" transform="matrix(1,0,0,1,443.9537433239542,-73.83025303220302) translate(28.370370370370367 41.16666666666667)"/><path d="M548.7-200c14.26 0 25.82 14.78 25.82 33s-11.56 33-25.8 33h-77.43c-14.26 0-25.82-14.78-25.82-33s11.56-33 25.8-33z" stroke="#5e5e5e" fill="#fff"/><use xlink:href="#f" transform="matrix(1,0,0,1,450.48387096774195,-195) translate(32.52351851851852 14.166666666666668)"/><use xlink:href="#g" transform="matrix(1,0,0,1,450.48387096774195,-195) translate(13.75925925925926 30.166666666666668)"/><use xlink:href="#h" transform="matrix(1,0,0,1,450.48387096774195,-195) translate(26.579074074074065 46.16666666666667)"/><path d="M310.98-199.3c17.18 0 31.1 14.62 31.1 32.65S328.17-134 311-134h-93.34c-17.18 0-31.1-14.62-31.1-32.65s13.92-32.64 31.1-32.64z" stroke="#5e5e5e" fill="#fff"/><use xlink:href="#i" transform="matrix(1,0,0,1,191.53012764378775,-194.2941176470588) translate(42.31481481481482 21.166666666666668)"/><use xlink:href="#j" transform="matrix(1,0,0,1,191.53012764378775,-194.2941176470588) translate(3.8333333333333286 37.16666666666667)"/><path d="M343.1-166.65h85.5" stroke="#5e5e5e" fill="none"/><path d="M343.1-166.15h-.54l.03-.48-.02-.52h.53z" stroke="#5e5e5e" stroke-width=".05" fill="#5e5e5e"/><path d="M443.38-166.65l-14.27 4.63v-9.27z" stroke="#5e5e5e" fill="#5e5e5e"/><use xlink:href="#k" transform="matrix(1,0,0,1,357.18156021087816,-207.28759470998074) translate(4.4309259259259335 10.666666666666668)"/><use xlink:href="#c" transform="matrix(1,0,0,1,357.18156021087816,-207.28759470998074) translate(0.005000000000002558 26.666666666666668)"/><path d="M510-133v37.3" stroke="#5e5e5e" fill="none"/><path d="M510.5-133h-1v-.5h1z" stroke="#5e5e5e" stroke-width=".05" fill="#5e5e5e"/><path d="M510-80.95l-4.63-14.26h9.26z" stroke="#5e5e5e" fill="#5e5e5e"/><g><use xlink:href="#l" transform="matrix(1,0,0,1,522.6352549156242,-126.18587232760274) translate(0.41240740740741444 10.666666666666668)"/><use xlink:href="#m" transform="matrix(1,0,0,1,522.6352549156242,-126.18587232760274) translate(0.005000000000002558 26.666666666666668)"/></g><path d="M265.4-133v26.5a.1.1 0 0 1-.1.08.1.1 0 0 0-.1.1v10.6" stroke="#5e5e5e" fill="none"/><path d="M265.9-133h-1v-.5h1z" stroke="#5e5e5e" stroke-width=".05" fill="#5e5e5e"/><path d="M265.2-80.95l-4.63-14.26h9.28z" stroke="#5e5e5e" fill="#5e5e5e"/><g><use xlink:href="#n" transform="matrix(1,0,0,1,127.87639918976807,-118.13892599162959) translate(0.0049999999999954525 10.666666666666668)"/></g><defs><path fill="#333" d="M24-231v-30h32v30H24zM24 0v-190h32V0H24" id="o"/><path fill="#333" d="M117-194c89-4 53 116 60 194h-32v-121c0-31-8-49-39-48C34-167 62-67 57 0H25l-1-190h30c1 10-1 24 2 32 11-22 29-35 61-36" id="p"/><path fill="#333" d="M59-47c-2 24 18 29 38 22v24C64 9 27 4 27-40v-127H5v-23h24l9-43h21v43h35v23H59v120" id="q"/><path fill="#333" d="M33-154v-36h34v36H33zM33 0v-36h34V0H33" id="r"/><path fill="#333" d="M33 0v-248h34V0H33" id="s"/><path fill="#333" d="M190 0L58-211 59 0H30v-248h39L202-35l-2-213h31V0h-41" id="t"/><path fill="#333" d="M127-220V0H93v-220H8v-28h204v28h-85" id="u"/><path fill="#333" d="M27 0v-27h64v-190l-56 39v-29l58-41h29v221h61V0H27" id="v"/><path fill="#333" d="M110-160c48 1 74 30 74 79 0 53-28 85-80 85-65 0-83-55-86-122-5-90 50-162 133-122 14 7 22 21 27 39l-31 6c-5-40-67-38-82-6-9 19-15 44-15 74 11-20 30-34 60-33zm-7 138c34 0 49-23 49-58s-16-56-50-56c-29 0-50 16-49 49 1 36 15 65 50 65" id="w"/><path fill="#333" d="M-5 72V49h209v23H-5" id="x"/><path fill="#333" d="M185-189c-5-48-123-54-124 2 14 75 158 14 163 119 3 78-121 87-175 55-17-10-28-26-33-46l33-7c5 56 141 63 141-1 0-78-155-14-162-118-5-82 145-84 179-34 5 7 8 16 11 25" id="y"/><path fill="#333" d="M100-194c63 0 86 42 84 106H49c0 40 14 67 53 68 26 1 43-12 49-29l28 8c-11 28-37 45-77 45C44 4 14-33 15-96c1-61 26-98 85-98zm52 81c6-60-76-77-97-28-3 7-6 17-6 28h103" id="z"/><path fill="#333" d="M177-190C167-65 218 103 67 71c-23-6-38-20-44-43l32-5c15 47 100 32 89-28v-30C133-14 115 1 83 1 29 1 15-40 15-95c0-56 16-97 71-98 29-1 48 16 59 35 1-10 0-23 2-32h30zM94-22c36 0 50-32 50-73 0-42-14-75-50-75-39 0-46 34-46 75s6 73 46 73" id="A"/><path fill="#333" d="M210-169c-67 3-38 105-44 169h-31v-121c0-29-5-50-35-48C34-165 62-65 56 0H25l-1-190h30c1 10-1 24 2 32 10-44 99-50 107 0 11-21 27-35 58-36 85-2 47 119 55 194h-31v-121c0-29-5-49-35-48" id="B"/><g id="a"><use transform="matrix(0.03703703703703704,0,0,0.03703703703703704,0,0)" xlink:href="#o"/><use transform="matrix(0.03703703703703704,0,0,0.03703703703703704,2.9259259259259265,0)" xlink:href="#p"/><use transform="matrix(0.03703703703703704,0,0,0.03703703703703704,10.333333333333334,0)" xlink:href="#q"/><use transform="matrix(0.03703703703703704,0,0,0.03703703703703704,14.037037037037038,0)" xlink:href="#r"/><use transform="matrix(0.03703703703703704,0,0,0.03703703703703704,17.740740740740744,0)" xlink:href="#s"/><use transform="matrix(0.03703703703703704,0,0,0.03703703703703704,21.44444444444445,0)" xlink:href="#t"/><use transform="matrix(0.03703703703703704,0,0,0.03703703703703704,31.037037037037045,0)" xlink:href="#u"/><use transform="matrix(0.03703703703703704,0,0,0.03703703703703704,39.14814814814816,0)" xlink:href="#v"/><use transform="matrix(0.03703703703703704,0,0,0.03703703703703704,46.55555555555557,0)" xlink:href="#w"/><use transform="matrix(0.03703703703703704,0,0,0.03703703703703704,53.962962962962976,0)" xlink:href="#x"/><use transform="matrix(0.03703703703703704,0,0,0.03703703703703704,61.37037037037038,0)" xlink:href="#y"/><use transform="matrix(0.03703703703703704,0,0,0.03703703703703704,70.25925925925927,0)" xlink:href="#z"/><use transform="matrix(0.03703703703703704,0,0,0.03703703703703704,77.66666666666667,0)" xlink:href="#A"/><use transform="matrix(0.03703703703703704,0,0,0.03703703703703704,85.07407407407406,0)" xlink:href="#B"/><use transform="matrix(0.03703703703703704,0,0,0.03703703703703704,96.14814814814814,0)" xlink:href="#z"/><use transform="matrix(0.03703703703703704,0,0,0.03703703703703704,103.55555555555556,0)" xlink:href="#p"/><use transform="matrix(0.03703703703703704,0,0,0.03703703703703704,110.96296296296296,0)" xlink:href="#q"/></g><path fill="#333" d="M233-177c-1 41-23 64-60 70L243 0h-38l-65-103H63V0H30v-248c88 3 205-21 203 71zM63-129c60-2 137 13 137-47 0-61-80-42-137-45v92" id="C"/><g id="b"><use transform="matrix(0.03703703703703704,0,0,0.03703703703703704,0,0)" xlink:href="#o"/><use transform="matrix(0.03703703703703704,0,0,0.03703703703703704,2.9259259259259265,0)" xlink:href="#p"/><use transform="matrix(0.03703703703703704,0,0,0.03703703703703704,10.333333333333334,0)" xlink:href="#q"/><use transform="matrix(0.03703703703703704,0,0,0.03703703703703704,14.037037037037038,0)" xlink:href="#r"/><use transform="matrix(0.03703703703703704,0,0,0.03703703703703704,17.740740740740744,0)" xlink:href="#C"/><use transform="matrix(0.03703703703703704,0,0,0.03703703703703704,27.333333333333336,0)" xlink:href="#v"/><use transform="matrix(0.03703703703703704,0,0,0.03703703703703704,34.74074074074075,0)" xlink:href="#w"/><use transform="matrix(0.03703703703703704,0,0,0.03703703703703704,42.14814814814815,0)" xlink:href="#x"/></g><path fill="#333" d="M96-169c-40 0-48 33-48 73s9 75 48 75c24 0 41-14 43-38l32 2c-6 37-31 61-74 61-59 0-76-41-82-99-10-93 101-131 147-64 4 7 5 14 7 22l-32 3c-4-21-16-35-41-35" id="D"/><path fill="#333" d="M100-194c62-1 85 37 85 99 1 63-27 99-86 99S16-35 15-95c0-66 28-99 85-99zM99-20c44 1 53-31 53-75 0-43-8-75-51-75s-53 32-53 75 10 74 51 75" id="E"/><path fill="#333" d="M114-163C36-179 61-72 57 0H25l-1-190h30c1 12-1 29 2 39 6-27 23-49 58-41v29" id="F"/><path fill="#333" d="M115-194c55 1 70 41 70 98S169 2 115 4C84 4 66-9 55-30l1 105H24l-1-265h31l2 30c10-21 28-34 59-34zm-8 174c40 0 45-34 45-75s-6-73-45-74c-42 0-51 32-51 76 0 43 10 73 51 73" id="G"/><path fill="#333" d="M141-36C126-15 110 5 73 4 37 3 15-17 15-53c-1-64 63-63 125-63 3-35-9-54-41-54-24 1-41 7-42 31l-33-3c5-37 33-52 76-52 45 0 72 20 72 64v82c-1 20 7 32 28 27v20c-31 9-61-2-59-35zM48-53c0 20 12 33 32 33 41-3 63-29 60-74-43 2-92-5-92 41" id="H"/><path fill="#333" d="M135-143c-3-34-86-38-87 0 15 53 115 12 119 90S17 21 10-45l28-5c4 36 97 45 98 0-10-56-113-15-118-90-4-57 82-63 122-42 12 7 21 19 24 35" id="I"/><g id="c"><use transform="matrix(0.03703703703703704,0,0,0.03703703703703704,0,0)" xlink:href="#o"/><use transform="matrix(0.03703703703703704,0,0,0.03703703703703704,2.9259259259259265,0)" xlink:href="#p"/><use transform="matrix(0.03703703703703704,0,0,0.03703703703703704,10.333333333333334,0)" xlink:href="#D"/><use transform="matrix(0.03703703703703704,0,0,0.03703703703703704,17.000000000000004,0)" xlink:href="#E"/><use transform="matrix(0.03703703703703704,0,0,0.03703703703703704,24.407407407407412,0)" xlink:href="#F"/><use transform="matrix(0.03703703703703704,0,0,0.03703703703703704,28.81481481481482,0)" xlink:href="#G"/><use transform="matrix(0.03703703703703704,0,0,0.03703703703703704,36.22222222222223,0)" xlink:href="#E"/><use transform="matrix(0.03703703703703704,0,0,0.03703703703703704,43.62962962962963,0)" xlink:href="#F"/><use transform="matrix(0.03703703703703704,0,0,0.03703703703703704,48.03703703703704,0)" xlink:href="#H"/><use transform="matrix(0.03703703703703704,0,0,0.03703703703703704,55.44444444444444,0)" xlink:href="#q"/><use transform="matrix(0.03703703703703704,0,0,0.03703703703703704,59.148148148148145,0)" xlink:href="#z"/><use transform="matrix(0.03703703703703704,0,0,0.03703703703703704,66.55555555555556,0)" xlink:href="#I"/></g><g id="d"><use transform="matrix(0.03703703703703704,0,0,0.03703703703703704,0,0)" xlink:href="#o"/><use transform="matrix(0.03703703703703704,0,0,0.03703703703703704,2.9259259259259265,0)" xlink:href="#p"/><use transform="matrix(0.03703703703703704,0,0,0.03703703703703704,10.333333333333334,0)" xlink:href="#q"/><use transform="matrix(0.03703703703703704,0,0,0.03703703703703704,14.037037037037038,0)" xlink:href="#r"/><use transform="matrix(0.03703703703703704,0,0,0.03703703703703704,17.740740740740744,0)" xlink:href="#s"/><use transform="matrix(0.03703703703703704,0,0,0.03703703703703704,21.44444444444445,0)" xlink:href="#t"/><use transform="matrix(0.03703703703703704,0,0,0.03703703703703704,31.037037037037045,0)" xlink:href="#u"/><use transform="matrix(0.03703703703703704,0,0,0.03703703703703704,39.14814814814816,0)" xlink:href="#v"/><use transform="matrix(0.03703703703703704,0,0,0.03703703703703704,46.55555555555557,0)" xlink:href="#x"/></g><path fill="#333" d="M141 0L90-78 38 0H4l68-98-65-92h35l48 74 47-74h35l-64 92 68 98h-35" id="J"/><path fill="#333" d="M30-248c87 1 191-15 191 75 0 78-77 80-158 76V0H30v-248zm33 125c57 0 124 11 124-50 0-59-68-47-124-48v98" id="K"/><g id="e"><use transform="matrix(0.03703703703703704,0,0,0.03703703703703704,0,0)" xlink:href="#u"/><use transform="matrix(0.03703703703703704,0,0,0.03703703703703704,6.629629629629631,0)" xlink:href="#z"/><use transform="matrix(0.03703703703703704,0,0,0.03703703703703704,14.037037037037038,0)" xlink:href="#J"/><use transform="matrix(0.03703703703703704,0,0,0.03703703703703704,20.703703703703706,0)" xlink:href="#q"/><use transform="matrix(0.03703703703703704,0,0,0.03703703703703704,24.407407407407412,0)" xlink:href="#K"/><use transform="matrix(0.03703703703703704,0,0,0.03703703703703704,33.296296296296305,0)" xlink:href="#H"/><use transform="matrix(0.03703703703703704,0,0,0.03703703703703704,40.70370370370371,0)" xlink:href="#I"/><use transform="matrix(0.03703703703703704,0,0,0.03703703703703704,47.37037037037039,0)" xlink:href="#I"/><use transform="matrix(0.03703703703703704,0,0,0.03703703703703704,54.03703703703705,0)" xlink:href="#H"/><use transform="matrix(0.03703703703703704,0,0,0.03703703703703704,61.444444444444464,0)" xlink:href="#A"/><use transform="matrix(0.03703703703703704,0,0,0.03703703703703704,68.85185185185186,0)" xlink:href="#z"/></g><path fill="#333" d="M101-234c-31-9-42 10-38 44h38v23H63V0H32v-167H5v-23h27c-7-52 17-82 69-68v24" id="L"/><path fill="#333" d="M115-194c53 0 69 39 70 98 0 66-23 100-70 100C84 3 66-7 56-30L54 0H23l1-261h32v101c10-23 28-34 59-34zm-8 174c40 0 45-34 45-75 0-40-5-75-45-74-42 0-51 32-51 76 0 43 10 73 51 73" id="M"/><path fill="#333" d="M63-220v92h138v28H63V0H30v-248h175v28H63" id="N"/><path fill="#333" d="M101-251c82-7 93 87 43 132L82-64C71-53 59-42 53-27h129V0H18c2-99 128-94 128-182 0-28-16-43-45-43s-46 15-49 41l-32-3c6-41 34-60 81-64" id="O"/><g id="f"><use transform="matrix(0.03703703703703704,0,0,0.03703703703703704,0,0)" xlink:href="#L"/><use transform="matrix(0.03703703703703704,0,0,0.03703703703703704,3.703703703703704,0)" xlink:href="#F"/><use transform="matrix(0.03703703703703704,0,0,0.03703703703703704,8.111111111111112,0)" xlink:href="#M"/><use transform="matrix(0.03703703703703704,0,0,0.03703703703703704,15.51851851851852,0)" xlink:href="#F"/><use transform="matrix(0.03703703703703704,0,0,0.03703703703703704,19.925925925925934,0)" xlink:href="#r"/><use transform="matrix(0.03703703703703704,0,0,0.03703703703703704,23.629629629629633,0)" xlink:href="#N"/><use transform="matrix(0.03703703703703704,0,0,0.03703703703703704,31.740740740740748,0)" xlink:href="#O"/><use transform="matrix(0.03703703703703704,0,0,0.03703703703703704,39.14814814814815,0)" xlink:href="#O"/><use transform="matrix(0.03703703703703704,0,0,0.03703703703703704,46.55555555555555,0)" xlink:href="#x"/></g><path fill="#333" d="M24 0v-261h32V0H24" id="P"/><path fill="#333" d="M16-82v-28h88v28H16" id="Q"/><path fill="#333" d="M85-194c31 0 48 13 60 33l-1-100h32l1 261h-30c-2-10 0-23-3-31C134-8 116 4 85 4 32 4 16-35 15-94c0-66 23-100 70-100zm9 24c-40 0-46 34-46 75 0 40 6 74 45 74 42 0 51-32 51-76 0-42-9-74-50-73" id="R"/><g id="g"><use transform="matrix(0.03703703703703704,0,0,0.03703703703703704,0,0)" xlink:href="#y"/><use transform="matrix(0.03703703703703704,0,0,0.03703703703703704,8.88888888888889,0)" xlink:href="#z"/><use transform="matrix(0.03703703703703704,0,0,0.03703703703703704,16.296296296296298,0)" xlink:href="#P"/><use transform="matrix(0.03703703703703704,0,0,0.03703703703703704,19.222222222222225,0)" xlink:href="#L"/><use transform="matrix(0.03703703703703704,0,0,0.03703703703703704,22.925925925925927,0)" xlink:href="#Q"/><use transform="matrix(0.03703703703703704,0,0,0.03703703703703704,27.333333333333343,0)" xlink:href="#D"/><use transform="matrix(0.03703703703703704,0,0,0.03703703703703704,34.00000000000001,0)" xlink:href="#E"/><use transform="matrix(0.03703703703703704,0,0,0.03703703703703704,41.40740740740742,0)" xlink:href="#p"/><use transform="matrix(0.03703703703703704,0,0,0.03703703703703704,48.814814814814824,0)" xlink:href="#q"/><use transform="matrix(0.03703703703703704,0,0,0.03703703703703704,52.518518518518526,0)" xlink:href="#H"/><use transform="matrix(0.03703703703703704,0,0,0.03703703703703704,59.92592592592593,0)" xlink:href="#o"/><use transform="matrix(0.03703703703703704,0,0,0.03703703703703704,62.85185185185186,0)" xlink:href="#p"/><use transform="matrix(0.03703703703703704,0,0,0.03703703703703704,70.25925925925927,0)" xlink:href="#z"/><use transform="matrix(0.03703703703703704,0,0,0.03703703703703704,77.66666666666667,0)" xlink:href="#R"/><use transform="matrix(0.03703703703703704,0,0,0.03703703703703704,85.07407407407406,0)" xlink:href="#x"/></g><path fill="#333" d="M30 0v-248h187v28H63v79h144v27H63v87h162V0H30" id="S"/><g id="h"><use transform="matrix(0.03703703703703704,0,0,0.03703703703703704,0,0)" xlink:href="#S"/><use transform="matrix(0.03703703703703704,0,0,0.03703703703703704,8.88888888888889,0)" xlink:href="#J"/><use transform="matrix(0.03703703703703704,0,0,0.03703703703703704,15.555555555555557,0)" xlink:href="#G"/><use transform="matrix(0.03703703703703704,0,0,0.03703703703703704,22.962962962962965,0)" xlink:href="#F"/><use transform="matrix(0.03703703703703704,0,0,0.03703703703703704,27.370370370370374,0)" xlink:href="#z"/><use transform="matrix(0.03703703703703704,0,0,0.03703703703703704,34.777777777777786,0)" xlink:href="#I"/><use transform="matrix(0.03703703703703704,0,0,0.03703703703703704,41.44444444444446,0)" xlink:href="#I"/><use transform="matrix(0.03703703703703704,0,0,0.03703703703703704,48.11111111111113,0)" xlink:href="#o"/><use transform="matrix(0.03703703703703704,0,0,0.03703703703703704,51.03703703703705,0)" xlink:href="#E"/><use transform="matrix(0.03703703703703704,0,0,0.03703703703703704,58.44444444444446,0)" xlink:href="#p"/></g><path fill="#333" d="M155-56V0h-30v-56H8v-25l114-167h33v167h35v25h-35zm-30-156c-27 46-58 90-88 131h88v-131" id="T"/><g id="i"><use transform="matrix(0.03703703703703704,0,0,0.03703703703703704,0,0)" xlink:href="#L"/><use transform="matrix(0.03703703703703704,0,0,0.03703703703703704,3.703703703703704,0)" xlink:href="#F"/><use transform="matrix(0.03703703703703704,0,0,0.03703703703703704,8.111111111111112,0)" xlink:href="#M"/><use transform="matrix(0.03703703703703704,0,0,0.03703703703703704,15.51851851851852,0)" xlink:href="#F"/><use transform="matrix(0.03703703703703704,0,0,0.03703703703703704,19.925925925925934,0)" xlink:href="#r"/><use transform="matrix(0.03703703703703704,0,0,0.03703703703703704,23.629629629629633,0)" xlink:href="#x"/><use transform="matrix(0.03703703703703704,0,0,0.03703703703703704,31.03703703703704,0)" xlink:href="#N"/><use transform="matrix(0.03703703703703704,0,0,0.03703703703703704,39.14814814814815,0)" xlink:href="#O"/><use transform="matrix(0.03703703703703704,0,0,0.03703703703703704,46.55555555555555,0)" xlink:href="#T"/><use transform="matrix(0.03703703703703704,0,0,0.03703703703703704,53.96296296296296,0)" xlink:href="#x"/></g><path fill="#333" d="M84 4C-5 8 30-112 23-190h32v120c0 31 7 50 39 49 72-2 45-101 50-169h31l1 190h-30c-1-10 1-25-2-33-11 22-28 36-60 37" id="U"/><g id="j"><use transform="matrix(0.03703703703703704,0,0,0.03703703703703704,0,0)" xlink:href="#K"/><use transform="matrix(0.03703703703703704,0,0,0.03703703703703704,8.88888888888889,0)" xlink:href="#U"/><use transform="matrix(0.03703703703703704,0,0,0.03703703703703704,16.296296296296298,0)" xlink:href="#M"/><use transform="matrix(0.03703703703703704,0,0,0.03703703703703704,23.703703703703706,0)" xlink:href="#P"/><use transform="matrix(0.03703703703703704,0,0,0.03703703703703704,26.629629629629633,0)" xlink:href="#o"/><use transform="matrix(0.03703703703703704,0,0,0.03703703703703704,29.55555555555556,0)" xlink:href="#D"/><use transform="matrix(0.03703703703703704,0,0,0.03703703703703704,36.22222222222223,0)" xlink:href="#H"/><use transform="matrix(0.03703703703703704,0,0,0.03703703703703704,43.62962962962963,0)" xlink:href="#q"/><use transform="matrix(0.03703703703703704,0,0,0.03703703703703704,47.33333333333334,0)" xlink:href="#o"/><use transform="matrix(0.03703703703703704,0,0,0.03703703703703704,50.25925925925926,0)" xlink:href="#E"/><use transform="matrix(0.03703703703703704,0,0,0.03703703703703704,57.66666666666667,0)" xlink:href="#p"/><use transform="matrix(0.03703703703703704,0,0,0.03703703703703704,65.07407407407408,0)" xlink:href="#x"/><use transform="matrix(0.03703703703703704,0,0,0.03703703703703704,72.48148148148148,0)" xlink:href="#S"/><use transform="matrix(0.03703703703703704,0,0,0.03703703703703704,81.37037037037037,0)" xlink:href="#J"/><use transform="matrix(0.03703703703703704,0,0,0.03703703703703704,88.03703703703704,0)" xlink:href="#G"/><use transform="matrix(0.03703703703703704,0,0,0.03703703703703704,95.44444444444444,0)" xlink:href="#F"/><use transform="matrix(0.03703703703703704,0,0,0.03703703703703704,99.85185185185185,0)" xlink:href="#z"/><use transform="matrix(0.03703703703703704,0,0,0.03703703703703704,107.25925925925925,0)" xlink:href="#I"/><use transform="matrix(0.03703703703703704,0,0,0.03703703703703704,113.92592592592592,0)" xlink:href="#I"/><use transform="matrix(0.03703703703703704,0,0,0.03703703703703704,120.5925925925926,0)" xlink:href="#o"/><use transform="matrix(0.03703703703703704,0,0,0.03703703703703704,123.51851851851852,0)" xlink:href="#E"/><use transform="matrix(0.03703703703703704,0,0,0.03703703703703704,130.92592592592592,0)" xlink:href="#p"/></g><path fill="#333" d="M54-142c48-35 137-8 131 61C196 18 31 33 14-55l32-4c7 23 22 37 52 37 35-1 51-22 54-58 4-55-73-65-99-34H22l8-134h141v27H59" id="V"/><g id="k"><use transform="matrix(0.03703703703703704,0,0,0.03703703703703704,0,0)" xlink:href="#D"/><use transform="matrix(0.03703703703703704,0,0,0.03703703703703704,6.666666666666668,0)" xlink:href="#F"/><use transform="matrix(0.03703703703703704,0,0,0.03703703703703704,11.074074074074076,0)" xlink:href="#B"/><use transform="matrix(0.03703703703703704,0,0,0.03703703703703704,22.148148148148152,0)" xlink:href="#r"/><use transform="matrix(0.03703703703703704,0,0,0.03703703703703704,25.851851851851855,0)" xlink:href="#K"/><use transform="matrix(0.03703703703703704,0,0,0.03703703703703704,34.74074074074075,0)" xlink:href="#v"/><use transform="matrix(0.03703703703703704,0,0,0.03703703703703704,42.14814814814815,0)" xlink:href="#w"/><use transform="matrix(0.03703703703703704,0,0,0.03703703703703704,49.55555555555556,0)" xlink:href="#V"/><use transform="matrix(0.03703703703703704,0,0,0.03703703703703704,56.96296296296296,0)" xlink:href="#x"/></g><path fill="#333" d="M101-251c68 0 85 55 85 127S166 4 100 4C33 4 14-52 14-124c0-73 17-127 87-127zm-1 229c47 0 54-49 54-102s-4-102-53-102c-51 0-55 48-55 102 0 53 5 102 54 102" id="W"/><path fill="#333" d="M106-169C34-169 62-67 57 0H25v-261h32l-1 103c12-21 28-36 61-36 89 0 53 116 60 194h-32v-121c2-32-8-49-39-48" id="X"/><g id="l"><use transform="matrix(0.03703703703703704,0,0,0.03703703703703704,0,0)" xlink:href="#o"/><use transform="matrix(0.03703703703703704,0,0,0.03703703703703704,2.9259259259259265,0)" xlink:href="#p"/><use transform="matrix(0.03703703703703704,0,0,0.03703703703703704,10.333333333333334,0)" xlink:href="#q"/><use transform="matrix(0.03703703703703704,0,0,0.03703703703703704,14.037037037037038,0)" xlink:href="#r"/><use transform="matrix(0.03703703703703704,0,0,0.03703703703703704,17.740740740740744,0)" xlink:href="#C"/><use transform="matrix(0.03703703703703704,0,0,0.03703703703703704,27.333333333333336,0)" xlink:href="#v"/><use transform="matrix(0.03703703703703704,0,0,0.03703703703703704,34.74074074074075,0)" xlink:href="#W"/><use transform="matrix(0.03703703703703704,0,0,0.03703703703703704,42.14814814814815,0)" xlink:href="#x"/><use transform="matrix(0.03703703703703704,0,0,0.03703703703703704,49.55555555555556,0)" xlink:href="#X"/><use transform="matrix(0.03703703703703704,0,0,0.03703703703703704,56.96296296296296,0)" xlink:href="#H"/><use transform="matrix(0.03703703703703704,0,0,0.03703703703703704,64.37037037037037,0)" xlink:href="#I"/><use transform="matrix(0.03703703703703704,0,0,0.03703703703703704,71.03703703703704,0)" xlink:href="#x"/></g><g id="m"><use transform="matrix(0.03703703703703704,0,0,0.03703703703703704,0,0)" xlink:href="#q"/><use transform="matrix(0.03703703703703704,0,0,0.03703703703703704,3.703703703703704,0)" xlink:href="#z"/><use transform="matrix(0.03703703703703704,0,0,0.03703703703703704,11.111111111111112,0)" xlink:href="#J"/><use transform="matrix(0.03703703703703704,0,0,0.03703703703703704,17.77777777777778,0)" xlink:href="#q"/><use transform="matrix(0.03703703703703704,0,0,0.03703703703703704,21.48148148148148,0)" xlink:href="#x"/><use transform="matrix(0.03703703703703704,0,0,0.03703703703703704,28.88888888888889,0)" xlink:href="#G"/><use transform="matrix(0.03703703703703704,0,0,0.03703703703703704,36.2962962962963,0)" xlink:href="#H"/><use transform="matrix(0.03703703703703704,0,0,0.03703703703703704,43.70370370370371,0)" xlink:href="#I"/><use transform="matrix(0.03703703703703704,0,0,0.03703703703703704,50.370370370370374,0)" xlink:href="#I"/><use transform="matrix(0.03703703703703704,0,0,0.03703703703703704,57.03703703703705,0)" xlink:href="#H"/><use transform="matrix(0.03703703703703704,0,0,0.03703703703703704,64.44444444444446,0)" xlink:href="#A"/><use transform="matrix(0.03703703703703704,0,0,0.03703703703703704,71.85185185185186,0)" xlink:href="#z"/></g><g id="n"><use transform="matrix(0.03703703703703704,0,0,0.03703703703703704,0,0)" xlink:href="#o"/><use transform="matrix(0.03703703703703704,0,0,0.03703703703703704,2.9259259259259265,0)" xlink:href="#p"/><use transform="matrix(0.03703703703703704,0,0,0.03703703703703704,10.333333333333334,0)" xlink:href="#q"/><use transform="matrix(0.03703703703703704,0,0,0.03703703703703704,14.037037037037038,0)" xlink:href="#r"/><use transform="matrix(0.03703703703703704,0,0,0.03703703703703704,17.740740740740744,0)" xlink:href="#C"/><use transform="matrix(0.03703703703703704,0,0,0.03703703703703704,27.333333333333336,0)" xlink:href="#O"/><use transform="matrix(0.03703703703703704,0,0,0.03703703703703704,34.74074074074075,0)" xlink:href="#V"/><use transform="matrix(0.03703703703703704,0,0,0.03703703703703704,42.14814814814815,0)" xlink:href="#x"/><use transform="matrix(0.03703703703703704,0,0,0.03703703703703704,49.55555555555556,0)" xlink:href="#X"/><use transform="matrix(0.03703703703703704,0,0,0.03703703703703704,56.96296296296296,0)" xlink:href="#H"/><use transform="matrix(0.03703703703703704,0,0,0.03703703703703704,64.37037037037037,0)" xlink:href="#I"/><use transform="matrix(0.03703703703703704,0,0,0.03703703703703704,71.03703703703704,0)" xlink:href="#x"/><use transform="matrix(0.03703703703703704,0,0,0.03703703703703704,78.44444444444444,0)" xlink:href="#I"/><use transform="matrix(0.03703703703703704,0,0,0.03703703703703704,85.11111111111113,0)" xlink:href="#z"/><use transform="matrix(0.03703703703703704,0,0,0.03703703703703704,92.51851851851852,0)" xlink:href="#A"/><use transform="matrix(0.03703703703703704,0,0,0.03703703703703704,99.92592592592592,0)" xlink:href="#B"/><use transform="matrix(0.03703703703703704,0,0,0.03703703703703704,111,0)" xlink:href="#z"/><use transform="matrix(0.03703703703703704,0,0,0.03703703703703704,118.4074074074074,0)" xlink:href="#p"/><use transform="matrix(0.03703703703703704,0,0,0.03703703703703704,125.81481481481481,0)" xlink:href="#q"/></g></defs></g></svg>